<?xml version="1.0" encoding="utf-8"?>
<!-- Generator: Adobe Illustrator 22.1.0, SVG Export Plug-In . SVG Version: 6.00 Build 0)  -->
<svg version="1.1" id="Capa_1" xmlns="http://www.w3.org/2000/svg" xmlns:xlink="http://www.w3.org/1999/xlink" x="0px" y="0px"
	 viewBox="0 0 547 514" style="enable-background:new 0 0 547 514;" xml:space="preserve">
<style type="text/css">
	.st0{stroke:#000000;stroke-width:0.1;stroke-miterlimit:10;}
</style>
<g>
	<g>
		<g>
			<path class="st0" d="M496.8,239.9H221.3c-9.3-36.4-46.2-58.3-82.6-49.1c-24.1,6.1-42.9,25-49.1,49.1H53.1
				c-9.4,0-17.1,7.6-17.1,17.1c0,9.4,7.6,17.1,17.1,17.1h36.6c9.3,36.4,46.2,58.3,82.6,49.1c24.1-6.1,42.9-25,49.1-49.1h275.5
				c9.4,0,17.1-7.6,17.1-17.1C513.9,247.5,506.2,239.9,496.8,239.9z M155.5,291.1c-18.9,0-34.1-15.3-34.1-34.1s15.3-34.1,34.1-34.1
				s34.1,15.3,34.1,34.1C189.6,275.8,174.3,291.1,155.5,291.1z"/>
		</g>
	</g>
	<g>
		<path class="st0" d="M496.8,69.2h-53.6c-9.3-36.4-46.2-58.3-82.6-49.1c-24.1,6.1-42.9,25-49.1,49.1H53.1
			c-9.4,0-17.1,7.6-17.1,17.1s7.6,17.1,17.1,17.1h258.4c9.3,36.4,46.2,58.3,82.6,49.1c24.1-6.1,42.9-25,49.1-49.1h53.6
			c9.4,0,17.1-7.6,17.1-17.1S506.2,69.2,496.8,69.2z M377.3,120.4c-18.9,0-34.1-15.3-34.1-34.1s15.3-34.1,34.1-34.1
			s34.1,15.3,34.1,34.1S396.2,120.4,377.3,120.4z"/>
	</g>
	<g>
		<g>
			<path class="st0" d="M496.8,410.5H409c-9.3-36.4-46.2-58.3-82.6-49.1c-24.1,6.1-42.9,25-49.1,49.1H53.1
				c-9.4,0-17.1,7.6-17.1,17.1s7.6,17.1,17.1,17.1h224.3c9.3,36.4,46.2,58.3,82.6,49.1c24.1-6.1,42.9-25,49.1-49.1h87.8
				c9.4,0,17.1-7.6,17.1-17.1S506.2,410.5,496.8,410.5z M343.2,461.7c-18.9,0-34.1-15.3-34.1-34.1s15.3-34.1,34.1-34.1
				c18.9,0,34.1,15.3,34.1,34.1S362.1,461.7,343.2,461.7z"/>
		</g>
	</g>
</g>
</svg>
