<?xml version="1.0" encoding="utf-8"?>
<!-- Generator: Adobe Illustrator 22.1.0, SVG Export Plug-In . SVG Version: 6.00 Build 0)  -->
<svg version="1.1" id="Layer_1" xmlns="http://www.w3.org/2000/svg" xmlns:xlink="http://www.w3.org/1999/xlink" x="0px" y="0px"
	 viewBox="0 0 851 813" style="enable-background:new 0 0 851 813;" xml:space="preserve">
<style type="text/css">
	.st0{stroke:#000000;stroke-width:14;stroke-miterlimit:10;}
</style>
<path d="M587.3,195.3c0-7-5.7-12.7-12.7-12.7s-12.7,5.7-12.7,12.7c0,0.9,0,1.1-2.6,3.7c-6.4,5.4-10,13.3-10,21.6s3.7,16.2,10,21.6
	c2.6,2.6,2.6,2.7,2.6,3.7s0,1.1-2.6,3.7c-6.3,5.4-10,13.3-10.1,21.6c0,7,5.7,12.7,12.7,12.7s12.7-5.7,12.7-12.7c0-1,0-1.1,2.6-3.7
	c6.4-5.4,10-13.3,10-21.6s-3.7-16.2-10-21.6c-2.6-2.6-2.6-2.8-2.6-3.7s0-1.1,2.6-3.7C583.6,211.6,587.3,203.7,587.3,195.3z"/>
<path d="M714,208c0,7,5.7,12.7,12.7,12.7s12.7-5.7,12.7-12.7c0-1,0-1.1,2.6-3.7c6.4-5.4,10-13.3,10-21.6s-3.7-16.2-10-21.6
	c-2.6-2.6-2.6-2.7-2.6-3.7s0-1.1,2.6-3.7c6.3-5.4,10-13.3,10-21.6c0-7-5.7-12.7-12.7-12.7s-12.7,5.7-12.7,12.7c0,1,0,1.1-2.6,3.7
	c-6.4,5.4-10,13.3-10,21.6s3.7,16.2,10,21.6c2.6,2.6,2.6,2.7,2.6,3.7s0,1.1-2.6,3.7C717.7,191.8,714.1,199.7,714,208z"/>
<path d="M676,30.7c0-7-5.7-12.7-12.7-12.7s-12.7,5.7-12.7,12.7c0,1,0,1.1-2.6,3.7c-6.3,5.4-10,13.3-10,21.6
	c0.1,8.3,3.7,16.2,10,21.6c2.6,2.6,2.6,2.7,2.6,3.7s0,1.1-2.6,3.7c-6.3,5.4-10,13.3-10,21.6c0,7,5.7,12.7,12.7,12.7
	s12.7-5.7,12.7-12.7c0-1,0-1.1,2.6-3.7c6.4-5.4,10-13.3,10-21.6s-3.7-16.2-10-21.6c-2.6-2.6-2.6-2.7-2.6-3.7c0-0.9,0-1.1,2.6-3.7
	C672.3,46.9,675.9,39,676,30.7z"/>
<path class="st0" d="M612.7,322c-93.5,0-171.9,21.5-234,64.2l5.9-50c0-0.2-0.1-0.5,0-0.7c0.1-0.3,0.1-0.5,0.1-0.8V233.3
	c-0.1-23-10.5-44.7-28.4-59.1c-11.2-39.3-51.6-62.5-91.2-52.5c-26.9-19.5-63.3-19.5-90.2,0c-39.6-10-80,13.2-91.2,52.5
	c-17,13.6-27.3,33.8-28.3,55.4c0,0.9,0,1.8,0.1,2.7c0,0.4-0.2,0.7-0.2,1v101.3c0,0.3,0.1,0.5,0.2,0.8c0,0.3-0.1,0.5,0,0.7L67,434.2
	c-23.1,13.5-37.2,38.3-37,65.1c0,9.4,1.7,18.7,5.2,27.4c2.9,7.5,4.3,15.4,4.1,23.4c0.2,7.9-1.2,15.7-4.1,23.1
	c-3.5,8.8-5.2,18.1-5.2,27.5c-0.1,37.9,27.8,70,65.4,75l5.4,46.4c3.8,31.9,30.8,55.9,62.9,55.9h112.6c32.1,0,59.1-24,62.9-55.9
	l4.3-36.5c66.5,61.3,157,92.4,269.2,92.4C710.5,778,790,675.7,790,550S710.5,322,612.7,322z M339.5,418c-3.9,3.8-7.6,7.7-11.1,11.8
	c-1,1.2-2.1,2.4-3.1,3.6c-2.9,3.5-5.7,7.1-8.3,10.8c-1.5,2-2.8,4.2-4.2,6.3c-1.5,2.3-3,4.7-4.4,7.1s-3,5.1-4.3,7.8l-0.4,0.7
	l4.6-118.7h49.6l-7.1,60.6C346.9,411.2,343.1,414.5,339.5,418z M201.9,499.3c-10.3,0.3-19.4-6.7-21.7-16.8
	c-0.8-3.6-1.9-7.2-3.2-10.7c-3.6-9.2-9-17.6-15.9-24.7l-3.8-99.8h50.1v152H201.9z M144,271.3c-7,0-12.7,5.7-12.7,12.7v38H80.7v-76
	h278.7v76h-50.7v-38c0-7-5.7-12.7-12.7-12.7s-12.7,5.7-12.7,12.7v38h-50.7v-38c0-7-5.7-12.7-12.7-12.7s-12.7,5.7-12.7,12.7v38h-50.7
	v-38C156.7,277,151,271.3,144,271.3z M232.7,347.3h50.2l-5.8,152h-44.3L232.7,347.3L232.7,347.3z M102.2,192
	c2.6-1.8,4.4-4.5,5.1-7.6c5.2-23.1,25.7-39.6,49.4-39.7c5.7,0.1,11.4,1.1,16.8,3.1c4.4,1.5,9.2,0.6,12.7-2.5
	c19.3-17.1,48.3-17.1,67.6,0c3.4,3.1,8.3,4.1,12.7,2.5c5.4-2,11.1-3.1,16.9-3.1c23.7,0.1,44.2,16.6,49.4,39.7
	c0.7,3.1,2.5,5.8,5.1,7.6c9.8,6.9,16.8,17.1,19.9,28.7H82.3C85.3,209,92.4,198.9,102.2,192z M91.3,424.8l-9.1-77.5h49.6l3.2,81.9
	c-4.7-2-9.6-3.6-14.6-4.6c-4.4-0.8-8.9-1.2-13.3-1.2c-0.6,0-1.3,0-1.9,0c-4.3,0.1-8.7,0.5-12.9,1.3
	C91.9,424.8,91.6,424.8,91.3,424.8L91.3,424.8z M55.3,600.7c0-6.2,1.2-12.4,3.4-18.2c4-10.3,6-21.3,5.9-32.3
	c0.2-11.2-1.8-22.2-5.8-32.6c-2.3-5.8-3.4-12-3.4-18.2c0-22.5,14.9-42.2,36.5-48.5c0.8-0.2,1.5-0.4,2.3-0.6c1.7-0.4,3.5-0.8,5.2-1
	c1.1-0.1,2.2-0.2,3.4-0.3c1.4-0.1,2.9-0.2,4.4-0.2c2.9,0,5.8,0.3,8.7,0.8c19.8,3.9,35.4,19.2,39.8,39c5.1,21.4,24.3,36.5,46.4,36.1
	h83.2c-0.2,1.1-0.2,2.2-0.3,3.3c-0.2,2-0.5,4.1-0.6,6.1c-0.4,4.7-0.6,9.3-0.7,13.9c0,0.6-0.1,1.3-0.1,1.9s0.1,1.3,0.1,1.9
	c0,4.7,0.3,9.3,0.7,13.9c0.2,2.1,0.4,4.1,0.6,6.1c0.1,1.1,0.2,2.2,0.3,3.3h-83.2c-22.2-0.3-41.6,15-46.5,36.7
	c-5.7,25.2-29.4,42-55.1,39.1C74.7,648.2,55.3,626.5,55.3,600.7z M314,719.1c-2.3,19.1-18.5,33.6-37.7,33.6H163.7
	c-19.3,0-35.5-14.4-37.7-33.6l-5.2-43.9c2.1-0.4,4.2-1.1,6.3-1.7c1.4-0.4,2.8-0.6,4.1-1.1c2.1-0.7,4.1-1.7,6.1-2.6
	c1.3-0.6,2.7-1.1,3.9-1.8c1.9-1,3.8-2.3,5.6-3.5c1.2-0.8,2.5-1.4,3.6-2.3c1.8-1.3,3.5-2.9,5.2-4.4c1-0.9,2.2-1.7,3.2-2.7
	c1.7-1.6,3.2-3.5,4.7-5.2c0.9-1,1.8-1.9,2.6-3c1.5-1.9,2.7-4,4-6c0.7-1.1,1.5-2.1,2.1-3.2c1.3-2.4,2.4-4.8,3.4-7.2
	c0.4-1,1-1.9,1.3-2.9c1.4-3.5,2.5-7.2,3.3-10.9c2.5-9.7,11.5-16.4,21.5-16.1h5.5V702c0,7,5.7,12.7,12.7,12.7s12.7-5.7,12.7-12.7
	V600.7h57.8C295,617,302,632.6,311,647l0.2,0.3c2.7,4.4,5.7,8.6,8.9,12.7c0.3,0.4,0.5,0.7,0.7,1.1L314,719.1z M519.9,744.3
	c-61-10.4-117.6-38.5-163-80.6c-4.7-4.5-9-9.3-13.1-14.3c-15.6-19.2-26.4-41.8-31.6-66c-1-4.6-1.8-9.2-2.3-13.9
	c-0.1-0.7-0.2-1.3-0.3-2c-1.3-11.6-1.3-23.2,0-34.8c0.1-0.7,0.2-1.3,0.3-2c0.6-4.7,1.4-9.3,2.3-13.9c1.6-7.5,3.7-14.8,6.3-22l0.4-1
	c1.3-3.4,2.7-6.7,4.2-9.9c0.3-0.6,0.5-1.1,0.8-1.7c2.4-5.1,5.1-10.1,8.1-14.9c1-1.6,1.9-3.2,2.9-4.7c1.3-1.8,2.5-3.6,3.8-5.3
	c1.7-2.3,3.4-4.5,5.2-6.7c1.1-1.3,2.2-2.7,3.3-4c3.1-3.5,6.2-6.9,9.7-10.1c45.3-42.2,102-70.2,163-80.7c-1.6,1.3-3,2.5-4.6,3.8
	c-1,0.8-1.9,1.6-2.9,2.4c-4.1,3.6-8.1,7.4-11.9,11.4c-0.7,0.8-1.4,1.6-2.2,2.4c-3.3,3.6-6.5,7.4-9.6,11.3c-0.7,0.9-1.5,1.8-2.2,2.7
	c-3.5,4.5-6.8,9.2-10,14.1c-0.7,1-1.3,2.1-2,3.1c-2.8,4.4-5.4,8.9-7.9,13.6c-0.5,0.9-1,1.8-1.5,2.8c-2.8,5.3-5.4,10.8-7.8,16.5
	c-0.5,1.3-1.1,2.5-1.6,3.8c-2.1,5.1-4.1,10.4-5.9,15.8c-0.3,0.8-0.6,1.6-0.9,2.4c-1.9,6-3.7,12.1-5.2,18.4c-0.4,1.5-0.7,2.9-1,4.4
	c-1.4,5.9-2.6,11.9-3.6,18c-0.1,0.6-0.2,1.1-0.3,1.7c-1,6.5-1.8,13.2-2.4,19.9c-0.1,1.6-0.3,3.2-0.4,4.9c-0.5,6.9-0.8,13.9-0.8,20.9
	s0.3,13.9,0.8,20.7c0.1,1.6,0.2,3.3,0.4,4.9c0.6,6.7,1.3,13.4,2.4,19.9c0.1,0.6,0.2,1.1,0.3,1.7c1,6.1,2.2,12.1,3.6,18
	c0.3,1.5,0.7,3,1,4.4c1.6,6.2,3.3,12.4,5.2,18.4c0.3,0.8,0.6,1.6,0.9,2.4c1.8,5.4,3.8,10.6,5.9,15.8c0.5,1.3,1,2.5,1.6,3.8
	c2.4,5.6,5,11.1,7.8,16.5c0.5,1,1,1.8,1.5,2.8c2.5,4.7,5.2,9.2,7.9,13.6c0.7,1,1.3,2.1,2,3.1c3.2,4.9,6.5,9.6,10,14.1
	c0.7,0.9,1.5,1.8,2.2,2.7c3.1,3.9,6.3,7.7,9.6,11.3c0.7,0.8,1.4,1.6,2.2,2.4c3.8,4,7.8,7.8,11.9,11.4c1,0.8,1.9,1.6,2.9,2.4
	C516.9,741.7,518.4,743.1,519.9,744.3z M612.7,752.7c-83.8,0-152-90.9-152-202.7s68.2-202.7,152-202.7s152,90.9,152,202.7
	S696.5,752.7,612.7,752.7z"/>
<path d="M612.7,486.7c-27.9,0-50.7,28.4-50.7,63.3s22.7,63.3,50.7,63.3s50.7-28.4,50.7-63.3C663.3,515.1,640.6,486.7,612.7,486.7z
	 M612.7,588c-13.7,0-25.3-17.4-25.3-38s11.6-38,25.3-38s25.3,17.4,25.3,38S626.4,588,612.7,588z"/>
<path d="M410,550c-0.1-28.7,4-57.2,12-84.7c2.2-6.6-1.4-13.8-8-16s-13.8,1.4-16,8c-17.7,60.5-17.7,124.8,0,185.3
	c2.2,6.6,9.4,10.2,16,8c6.7-2.2,10.2-9.4,8-16C414,607.2,409.9,578.7,410,550z"/>
<path d="M356.9,500.1c-6.6-2.4-13.8,1-16.2,7.6c-8.9,27.5-8.9,57.1,0,84.5c2.4,6.6,9.6,10,16.2,7.6s10-9.6,7.7-16.2
	c-6.9-22-6.9-45.5,0-67.5C366.8,509.7,363.4,502.4,356.9,500.1z"/>
</svg>
