<svg xmlns="http://www.w3.org/2000/svg" viewBox="0 0 612.8 653.3"><defs><style>.cls-1{stroke:#000;stroke-miterlimit:10;stroke-width:12px;}</style></defs><title>champagne-glassAsset 2</title><g id="Layer_2" data-name="Layer 2"><g id="Layer_1-2" data-name="Layer 1"><path class="cls-1" d="M525.09,16.08a73,73,0,0,1-4.94,15.6c-7.15,14.69-24.57,27.17-40,28.73l-7.41.78V87.71l7.67.91c21.71,2.47,40.82,21.58,44.72,44.59l1.43,8.19h25.22l1.43-8.19c4.16-23.66,22.88-42,45.89-44.72l6.24-.78V61.19l-7.15-.78C576.83,58.2,557.2,39,553.3,16.21L551.74,7.5H526.52Zm24.44,47.71,10.92,10.79L549.66,85,539,95.51,528.21,84.72,517.42,73.93l5.85-4.55A66.4,66.4,0,0,0,533.8,59c2.47-3.25,4.68-5.85,4.68-6S543.55,57.81,549.53,63.79Z"/><path class="cls-1" d="M70.35,183.26,34,329.25v16.9c.13,20,1.95,28.34,10.4,45.5a100.71,100.71,0,0,0,47.32,47.06c5.46,2.6,10,4.81,10.27,4.94.52.39-23.92,116.35-24.7,117-.39.39-14.82-2.34-32.11-6-24.44-5.2-31.85-6.37-32.63-5.07-1.17,1.82-5.59,23.4-4.94,24s155.09,33,155.48,32.63c.91-.91,5.46-24.57,4.81-25.22-.39-.39-14.82-3.77-32.24-7.41-28.34-6-31.46-6.89-31.2-9.23.26-1.95,16.51-80.08,22.49-107.9l1.43-6.63,12.61-.78c20.15-1.43,36.66-6.76,52.13-17.16a103.61,103.61,0,0,0,43.42-61.1c1-4.29,8.84-47.71,17.29-96.46s15.47-88.53,15.73-88.27,9.23,51,19.89,112.71S309.81,414,311,417.65c13,40.43,52.39,69.94,94.77,71.11l11.7.39,12.22,58.24c9.23,43.81,11.83,58.63,10.66,59.28-.78.52-15.21,3.9-32,7.28-23.92,5.07-30.55,6.76-30.55,8.45,0,1,1,6.76,2.21,12.61,1.69,8.45,2.73,10.79,4.42,10.79,2.08,0,149.5-30.68,152.75-31.85,1.17-.26.78-3.9-.91-12.48-1.43-6.63-2.86-12.35-3.12-12.74-.78-.65-12.22,1.43-43.94,8.19-14.43,3.12-20.8,3.9-21.19,2.86-.91-2.6-23.92-112.71-23.92-114.66,0-1,3.25-3.25,7.28-5.07,39.78-17.55,66-63.05,60.45-104.52-1.43-11.18-71.37-295.23-73.06-297-.65-.78-32.37,5.33-78.13,15.08-53.95,11.31-77.22,15.73-77.48,14.69s.78-8.58,2.21-17,2.47-15.47,2.21-15.73S109.22,37.4,107.53,37.4C107,37.4,90.37,103.05,70.35,183.26ZM191.64,82.12c35.36,7.41,64.48,13.91,65,14.3.65.78-20.28,124.41-21.32,125.45-.26.26-4.42-3.25-9.36-7.93-14.56-14.17-30.16-20.15-49-18.85a86,86,0,0,0-18.07,3.38c-13.13,4.68-27.43,3.12-37.31-3.9-2.21-1.56-7.54-7.67-12.09-13.65l-8.19-10.79,12.48-50.7c6.89-27.95,12.74-50.83,13.13-50.83S156.41,74.71,191.64,82.12Zm228.93,31.59c.78,2.73,6.11,23.92,11.83,47.19l10.53,42.25L439.29,206c-12.87,10.4-24.7,17.94-30.68,19.5-7.67,2-12.87,1.3-23.14-3-24.7-10.14-47.06-5.46-67.6,14.56-9.49,9.36-10.14,9.75-10.92,6.89-1.95-8.58-18.59-107.25-18.07-107.64.65-.78,124.93-27.17,128.18-27.3C418.62,108.9,419.66,110.46,420.57,113.71ZM114.29,221.09c16.77,8.19,34.45,9.36,51,3.38a59.87,59.87,0,0,1,15.6-2.86c12.48-.13,18.72,3.51,35,19.76L230,255.54l-9.36,53.69c-5.07,29.64-10.53,57.46-12,61.88-6.89,20.93-25.48,39.65-47.06,47.19-10.14,3.51-29.12,4.81-40.17,2.73-13.52-2.6-28.6-10.79-38.61-20.67-15-15.08-22.75-33.67-22.62-54.21.13-10.4,1.82-18.46,15.86-75.4,8.71-35.1,16-64.35,16.25-65.13s3.77,1.56,7.54,5.2A72.18,72.18,0,0,0,114.29,221.09Zm353.6,83.07c14.69,59.41,17.81,73.58,17.81,81.25,0,13-1.95,21.32-8.06,34.19-16.38,34.32-57.07,51.09-93.34,38.48-11.57-4-25.35-13.13-32.5-21.45-5.59-6.37-13-19.76-15.6-27.82-.78-2.73-6.37-32.76-12.35-66.95l-10.92-62,16.51-16.25c17.55-17.29,21.06-19.5,32.5-19.5,3.12,0,9.75,1.82,15.47,4.16,9,3.64,11.57,4.16,23.14,4.16,16.38.13,23-2.08,37.31-12.35,6-4.16,11.05-7.67,11.44-7.67S458,264.77,467.89,304.16Z"/><path class="cls-1" d="M166.16,287.26l.39,13.39,13.39.39,13.26.39V274H165.77Z"/><path class="cls-1" d="M99.6,354V367.6H127l-.39-13.39L126.25,341,113,340.56l-13.39-.39Z"/><path class="cls-1" d="M406.4,300.65V314.3h26V287h-26Z"/><path class="cls-1" d="M353.1,341V354.6h26V327.3h-26Z"/><path class="cls-1" d="M406.4,394.25V407.9h26V380.6h-26Z"/><path class="cls-1" d="M218.81,468.22c-2.21,21.71-22.36,41.86-44.59,44.72l-7.67.91L166.16,527l-.39,13.13,7.67.91c22.49,2.6,43,23.27,45.37,45.5l.78,7.28h26.52l.78-7c1.43-13.65,9.1-26.78,20.8-35.49,7.8-5.59,21.19-10.79,28.34-10.79h3.9l-.39-13.26-.39-13.39-7.67-.91c-19.5-2.47-37.18-17.81-42.9-37.31a49.26,49.26,0,0,1-2.08-10.79V461.2H219.59ZM254,528c-4.55,3-13.13,11.05-16.51,15.47l-4.42,6-5.46-6.89a79.73,79.73,0,0,0-16-14.56c-.26-.13,4.42-5.07,10.4-11l10.79-10.92L243.64,517C249.49,523,254.17,527.89,254,528Z"/></g></g></svg>