<?xml version="1.0" standalone="no"?>
<!DOCTYPE svg PUBLIC "-//W3C//DTD SVG 20010904//EN"
 "http://www.w3.org/TR/2001/REC-SVG-20010904/DTD/svg10.dtd">
<svg version="1.0" xmlns="http://www.w3.org/2000/svg"
 width="512.000000pt" height="512.000000pt" viewBox="0 0 512.000000 512.000000"
 preserveAspectRatio="xMidYMid meet">

<g transform="translate(0.000000,512.000000) scale(0.100000,-0.100000)"
fill="#000000" stroke="none">
<path d="M4243 4954 c-6 -36 -24 -90 -38 -120 -55 -113 -189 -209 -308 -221
l-57 -6 0 -102 0 -102 59 -7 c167 -19 314 -166 344 -343 l11 -63 97 0 97 0 11
63 c32 182 176 323 353 344 l48 6 0 102 0 102 -55 6 c-164 17 -315 165 -345
340 l-12 67 -97 0 -97 0 -11 -66z m188 -367 l84 -83 -83 -80 -82 -81 -83 83
-83 83 45 35 c25 19 62 55 81 80 19 25 36 45 36 46 1 0 39 -37 85 -83z"/>
<path d="M745 3668 l-280 -1123 0 -130 c1 -154 15 -218 80 -350 80 -162 205
-286 364 -362 42 -20 77 -37 79 -38 4 -3 -184 -895 -190 -900 -3 -3 -114 18
-247 46 -188 40 -245 49 -251 39 -9 -14 -43 -180 -38 -185 5 -5 1193 -254
1196 -251 7 7 42 189 37 194 -3 3 -114 29 -248 57 -218 46 -242 53 -240 71 2
15 127 616 173 830 l11 51 97 6 c155 11 282 52 401 132 167 110 286 279 334
470 8 33 68 367 133 742 65 376 119 681 121 679 2 -1 71 -392 153 -867 83
-475 157 -886 166 -914 100 -311 403 -538 729 -547 l90 -3 94 -448 c71 -337
91 -451 82 -456 -6 -4 -117 -30 -246 -56 -184 -39 -235 -52 -235 -65 0 -8 8
-52 17 -97 13 -65 21 -83 34 -83 16 0 1150 236 1175 245 9 2 6 30 -7 96 -11
51 -22 95 -24 98 -6 5 -94 -11 -338 -63 -111 -24 -160 -30 -163 -22 -7 20
-184 867 -184 882 0 8 25 25 56 39 306 135 508 485 465 804 -11 86 -549 2271
-562 2285 -5 6 -249 -41 -601 -116 -415 -87 -594 -121 -596 -113 -2 7 6 66 17
131 11 65 19 119 17 121 -3 3 -1372 293 -1385 293 -4 0 -132 -505 -286 -1122z
m933 778 c272 -57 496 -107 500 -110 5 -6 -156 -957 -164 -965 -2 -2 -34 25
-72 61 -112 109 -232 155 -377 145 -44 -3 -107 -15 -139 -26 -101 -36 -211
-24 -287 30 -17 12 -58 59 -93 105 l-63 83 96 390 c53 215 98 391 101 391 3 0
227 -47 498 -104z m1761 -243 c6 -21 47 -184 91 -363 l81 -325 -28 -22 c-99
-80 -190 -138 -236 -150 -59 -15 -99 -10 -178 23 -190 78 -362 42 -520 -112
-73 -72 -78 -75 -84 -53 -15 66 -143 825 -139 828 5 6 961 209 986 210 12 1
20 -11 27 -36z m-2356 -826 c129 -63 265 -72 392 -26 35 12 85 21 120 22 96 1
144 -27 269 -152 l109 -109 -72 -413 c-39 -228 -81 -442 -92 -476 -53 -161
-196 -305 -362 -363 -78 -27 -224 -37 -309 -21 -104 20 -220 83 -297 159 -115
116 -175 259 -174 417 1 80 14 142 122 580 67 270 123 495 125 501 3 6 29 -12
58 -40 30 -28 80 -64 111 -79z m2720 -639 c113 -457 137 -566 137 -625 0 -100
-15 -164 -62 -263 -126 -264 -439 -393 -718 -296 -89 31 -195 101 -250 165
-43 49 -100 152 -120 214 -6 21 -49 252 -95 515 l-84 477 127 125 c135 133
162 150 250 150 24 0 75 -14 119 -32 69 -28 89 -32 178 -32 126 -1 177 16 287
95 46 32 85 59 88 59 3 0 67 -249 143 -552z"/>
<path d="M1482 2868 l3 -103 103 -3 102 -3 0 106 0 105 -105 0 -106 0 3 -102z"/>
<path d="M970 2355 l0 -105 105 0 106 0 -3 103 -3 102 -102 3 -103 3 0 -106z"/>
<path d="M3330 2765 l0 -105 100 0 100 0 0 105 0 105 -100 0 -100 0 0 -105z"/>
<path d="M2920 2455 l0 -105 100 0 100 0 0 105 0 105 -100 0 -100 0 0 -105z"/>
<path d="M3330 2045 l0 -105 100 0 100 0 0 105 0 105 -100 0 -100 0 0 -105z"/>
<path d="M1887 1476 c-17 -167 -172 -322 -343 -344 l-59 -7 -3 -101 -3 -101
59 -7 c173 -20 331 -179 349 -350 l6 -56 102 0 102 0 6 54 c11 105 70 206 160
273 60 43 163 83 218 83 l30 0 -3 102 -3 103 -59 7 c-150 19 -286 137 -330
287 -9 30 -16 67 -16 83 l0 28 -104 0 -103 0 -6 -54z m271 -460 c-35 -23 -101
-85 -127 -119 l-34 -46 -42 53 c-35 42 -70 74 -123 112 -2 1 34 39 80 85 l83
84 83 -84 c45 -46 81 -84 80 -85z"/>
</g>
</svg>
