<?xml version="1.0" encoding="utf-8"?>
<!-- Generator: Adobe Illustrator 24.1.2, SVG Export Plug-In . SVG Version: 6.00 Build 0)  -->
<svg version="1.1" id="Layer_1" xmlns="http://www.w3.org/2000/svg" xmlns:xlink="http://www.w3.org/1999/xlink" x="0px" y="0px"
	 viewBox="0 0 864.3 581.6" style="enable-background:new 0 0 864.3 581.6;" xml:space="preserve">
<style type="text/css">
	.st0{fill-rule:evenodd;clip-rule:evenodd;fill:#2F1959;}
</style>
<path class="st0" d="M531.2,562.1c0,0,15.6-0.2,30.3-5.8c14.7-5.6,33.9-29.4,35.2-31.5c18.6-29,54.8-58.3,90.7-81.6
	c21.2-13.8,40.2-27.8,58.7-43.1c-7.2,36.9-8.1,59.7-10.1,76.1c-4.5,35.5-9.5,40.7-12.7,73.5c-0.7,7.6,8.5,15.5,15.3,22.2
	s36.5,6.7,42.3,5.7s39.8,0.7,47-0.3s4.3-3.6,4.3-3.6s2.4-0.3,5.2-0.3c2.8-0.1,11.1,1.9,15.2,1.6c4-0.3,10.2-1.7,11.4-3.5
	c1.2-1.9-1.7-3.2-1.7-3.2s-0.2-0.6-0.5-2.6s-31.3-10-31.3-10s-10.7-0.9-13.4-1.6c-2.6-0.7-17-0.5-17-0.5s-5.5-1.9-9.9-1.7
	c-4.4,0.1-10.5-0.7-16.2-1.6c-5.7-0.9-13.7-6.3-13.8-9.3c-0.6-18.9,6.2-31.1,24.2-78.9c3.6-9.7,5.8-14.7,7.9-20.2
	c6.3,15.8,19,31.4,19,31.4s-1.7-4-5.5-11.5c-6.5-12.6-3.7-25.5,9.9-1.4c4.7,8.2,16,13.9,16,13.9s-13.6-15.3-15.9-36s2-36,2-36
	c4.3,28.8,37,36.2,37,36.2s-8.1-8.4-12.9-15.2c-5.4-7.6-6-24.5-4.7-33.5c4-26.9-0.3-37.4-0.3-64.3c0-51.8,23-100,21-115.4
	s-21.2-28.6-21.2-28.6c-17-69.7,5-143.2-42.4-171c-15.1-8.9-38.1-11.7-65.1-10C704,2,673.6,12.2,673.4,38.2
	c-0.1,7.6,5.9,8.6,5.9,8.6s-8.1,9.3-9.1,18.5s-1,18.1-1.9,22.4c-0.9,4.3,1.8,9,2.3,11.4s-2.7,17.1-8.2,25.9
	c-3.9,6.1,5.7,6.9,8.3,6.8c2.6-0.1,2.4,6,1.6,8.9c-0.7,2.9-1.8,3.2,0.9,4.8c2.7,1.6,0.8,1.6,0.1,5.3c-0.7,3.7,2.6,1.6,4,4.2
	c0.1,0.2-1.2,9.3-1.1,12.8s3,6.8,3,6.8s-28.7-3.3-42.7-1.1c-14,2.2-20.5,10-27.6,25.2c-16.2,34.4-20.5,74.7-24,112.1
	c-0.9,9.4-1.5,16.1-1.5,16.1c-28,13.8-43.9,12.6-70.2,8.2c-13.8-2.3-28-1.8-35.5-0.5c-15.2,2.6-36.9,9.8-36.9,9.8
	s-30.4-6.9-47.6,2.2c-4.5,2.4-8.4,4.6-11.1,6.4c-53.7,36-152.7,147.2-171.6,154.8c-18.9,7.6-56.3,16.3-56.3,16.3
	c-17-3.7-34.4-9.1-51.5-4.6c-3.1,0.8-6.3,1.6-10,2c-7.5,0.8-14.9,5-14.9,5s-26.7-3.4-32.1-1.1c-5.4,2.4-13.7,3-17.9,5.3
	s-5.7,6.8-5.7,6.8s-4,0.5-7,3.8s-2.9,6-2.9,6s-5.1,0.1-6.8,2.4c-1.8,2.3-1.5,6.5-1.5,6.5s-0.5-1.6-2.8,2.9s-0.2,7.3-0.2,7.3
	s-1.1,4.1,0.2,9.7c1.4,5.6,5.8,5.5,5.8,5.5s79.6-1.4,88.9-1.6c9.3-0.2,48.7-10.3,52.1-11.6c3.4-1.3,14-1.5,20.7-1.9
	s19.5-8.4,19.5-8.4s10.2,2,18.4,4.7c8.2,2.7,73.8,5.3,79.1,5.2c5.3-0.1,72.1,8.2,92.1,5.9c6-0.7,15.2-1.3,25.1-1.8
	c23-1.2,49.8-1.8,49.8-1.8L531.2,562.1z"/>
</svg>
