<?xml version="1.0" encoding="utf-8"?>
<!-- Generator: Adobe Illustrator 24.1.2, SVG Export Plug-In . SVG Version: 6.00 Build 0)  -->
<svg version="1.1" id="Layer_1" xmlns="http://www.w3.org/2000/svg" xmlns:xlink="http://www.w3.org/1999/xlink" x="0px" y="0px"
	 viewBox="0 0 603.9 922.4" style="enable-background:new 0 0 603.9 922.4;" xml:space="preserve">
<style type="text/css">
	.st0{fill-rule:evenodd;clip-rule:evenodd;fill:#150A28;}
</style>
<g>
	<g>
		<path class="st0" d="M581.3,759.2c-16.7-4.5-43.8,2.4-58.1-7.6c-14.3-9.9-32.9-15.3-40.3-8.3s-4.2,22.6-10.8,28.7
			c-18.1,16.6-59.3,20.9-80.8,22.1c0,0,65.1-40.1,88.6-77.2c23.5-37.1,50-117.3,3-148.4c-8.4-5.6-16.5-10.8-24.1-15.5
			c-34.7-21.7-59.1-34.4-59.1-34.4s39.4-106,45.4-145.3c6.1-39.4,14.4-82.5,7.6-95.4s-28.8-29.5-28.8-29.5s-22.7-22.7-26.5-59.8
			c-5.9-57.9-23.1-149.4-73.4-178.5c-19.6-11.4-27.2-10-27.2-10S255.1-2.4,227.5,17c-9.8,6.9-17.8,16.5-21.6,30
			c-10.5,37.7-29.8,129.4-27.5,166c1.5,24.2-5.1,65.6-5.1,65.6s-12.1,10.6-16.7,24.2c-4.5,13.6,0.5,48.7,0.5,48.7
			c-4.1,7.1-8.6,18.7-8.6,38.1s9.1,31,9.1,31s3.5,38.8,2,47.9c-9.5,57.1-5,110-3.5,167.3C117.3,653.6,3.6,699.6,0.6,743.2
			c-0.8,11.4-2.3,34.1,6.8,37.9c9.1,3.8,28,6.1,36.3,6.1c36.5,0,40.4,9.2,73.9-8.3c-5.8,14.6-1.2,18.5-7.1,33.1
			c-0.8,2,1.5,4.1,0.7,6.1s-1.6,4.1-2.4,6.1c33.1,22.1,58.5-64.1,71.8-56.7c6.8,3.8,7.7,12.1,9.2,18.1c1.5,6.1,9.8,23.6,15.1,17.6
			c5.3-6.1-5.3-18.3-5.3-26.7s-0.8-28-0.8-28c9.1-2.3,18.8-4.5,28.4-6.8c8.6-2,17.1-4,25.2-6.1c-4,11.9-10.2,23.7-14.2,35.6
			c0,0-4.6,5.5-11,13.7c-13.1,16.9-33.7,45.4-36.7,61.2c-4.5,23.5-4.5,47.7,22.7,68.9c4.8,1.5,9.4,2.7,14,3.8
			c48.7,10.8,88.2-4.4,133.8-25.2c33.4-15.2,65.2-33.5,97.8-56.8c39.1-27.9,100.3-46,110.9-46c12.9,0,24.2,10.6,31.8,4.5
			c1.5-1.2,2.3-3.2,2.4-5.7v-1.2C603.8,778.7,594.1,762.7,581.3,759.2z M227.5,606.7l-34.4,15.5c7.3-37.3,14.6-74.7,21.9-112
			c2.9,8.5,7.4,18,12.5,27.4c14.8,27.2,34.4,53.6,34.4,53.6L227.5,606.7z"/>
	</g>
</g>
</svg>
