<svg height="512pt" viewBox="0 0 512.00122 512" width="512pt" xmlns="http://www.w3.org/2000/svg"><path d="m375.46875 119.46875c0-4.714844-3.820312-8.535156-8.535156-8.535156-4.710938 0-8.53125 3.820312-8.53125 8.535156 0 .636719 0 .722656-1.765625 2.492188-4.289063 3.621093-6.761719 8.949218-6.761719 14.558593 0 5.613281 2.472656 10.941407 6.761719 14.5625 1.773437 1.769531 1.773437 1.851563 1.773437 2.511719 0 .65625 0 .730469-1.765625 2.5-4.261719 3.648438-6.730469 8.964844-6.777343 14.574219 0 4.710937 3.820312 8.53125 8.535156 8.53125 4.710937 0 8.53125-3.820313 8.53125-8.53125 0-.65625 0-.742188 1.777344-2.507813 4.285156-3.628906 6.761718-8.957031 6.761718-14.574218 0-5.613282-2.476562-10.945313-6.761718-14.570313-1.777344-1.773437-1.777344-1.859375-1.777344-2.480469 0-.625 0-.726562 1.765625-2.492187 4.261719-3.648438 6.730469-8.964844 6.769531-14.574219zm0 0"/><path d="m460.800781 128c0 4.714844 3.820313 8.535156 8.535157 8.535156 4.710937 0 8.53125-3.820312 8.53125-8.535156 0-.65625 0-.742188 1.777343-2.507812 4.285157-3.625 6.757813-8.957032 6.757813-14.570313 0-5.617187-2.472656-10.945313-6.757813-14.570313-1.777343-1.765624-1.777343-1.851562-1.777343-2.484374 0-.632813 0-.726563 1.765624-2.492188 4.261719-3.648438 6.730469-8.964844 6.769532-14.574219 0-4.714843-3.820313-8.535156-8.535156-8.535156-4.710938 0-8.53125 3.820313-8.53125 8.535156 0 .640625 0 .726563-1.769532 2.492188-4.285156 3.621093-6.757812 8.949219-6.757812 14.5625s2.472656 10.9375 6.757812 14.5625c1.777344 1.765625 1.777344 1.851562 1.777344 2.507812s0 .734375-1.765625 2.5c-4.261719 3.648438-6.730469 8.964844-6.777344 14.574219zm0 0"/><path d="m435.203125 8.535156c0-4.714844-3.824219-8.535156-8.535156-8.535156-4.714844 0-8.535157 3.820312-8.535157 8.535156 0 .640625 0 .722656-1.765624 2.492188-4.261719 3.644531-6.730469 8.964844-6.765626 14.574218.042969 5.601563 2.507813 10.914063 6.757813 14.566407 1.773437 1.75 1.773437 1.832031 1.773437 2.5 0 .664062 0 .734375-1.765624 2.5-4.253907 3.648437-6.722657 8.960937-6.765626 14.566406 0 4.710937 3.820313 8.53125 8.53125 8.53125 4.714844 0 8.535157-3.820313 8.535157-8.53125 0-.65625 0-.742187 1.773437-2.507813 4.289063-3.625 6.761719-8.957031 6.761719-14.570312 0-5.617188-2.472656-10.945312-6.761719-14.574219-1.773437-1.765625-1.773437-1.851562-1.773437-2.480469 0-.632812 0-.726562 1.765625-2.492187 4.261718-3.648437 6.730468-8.964844 6.769531-14.574219zm0 0"/><path d="m392.535156 204.800781c-62.992187 0-115.839844 14.507813-157.621094 43.246094l3.960938-33.714844c0-.160156-.050781-.316406 0-.484375.050781-.171875.058594-.335937.058594-.515625v-68.265625c-.035156-15.480468-7.070313-30.113281-19.128906-39.816406-7.550782-26.460938-34.769532-42.125-61.441407-35.363281-18.113281-13.167969-42.644531-13.167969-60.757812 0-26.667969-6.753907-53.878907 8.902343-61.441407 35.355469-11.425781 9.128906-18.363281 22.738281-19.035156 37.351562-.007812.597656.015625 1.195312.074219 1.789062 0 .242188-.136719.445313-.136719.683594v68.265625c0 .179688.09375.335938.105469.515625.007813.175782-.0625.324219 0 .484375l7.773437 66.082031c-15.558593 9.105469-25.070312 25.828126-24.945312 43.851563-.0117188 6.328125 1.175781 12.597656 3.492188 18.484375 1.9375 5.023438 2.875 10.378906 2.753906 15.761719.101562 5.308593-.835938 10.589843-2.761719 15.539062-2.3125 5.886719-3.4921875 12.15625-3.484375 18.484375-.078125 25.511719 18.757812 47.136719 44.042969 50.558594l3.667969 31.230469c2.53125 21.488281 20.742187 37.679687 42.375 37.675781h75.828124c21.636719.003906 39.847657-16.1875 42.378907-37.675781l2.882812-24.566407c44.824219 41.277344 105.746094 62.242188 181.359375 62.242188 65.875 0 119.464844-68.90625 119.464844-153.597656 0-84.695313-53.589844-153.601563-119.464844-153.601563zm-184.039062 64.65625c-2.644532 2.5625-5.121094 5.1875-7.507813 7.917969-.703125.804688-1.402343 1.613281-2.082031 2.433594-1.964844 2.363281-3.859375 4.789062-5.625 7.289062-.988281 1.378906-1.886719 2.796875-2.816406 4.214844-1.007813 1.570312-2.003906 3.148438-2.945313 4.761719-.9375 1.613281-1.996093 3.464843-2.917969 5.230469l-.261718.503906 3.070312-79.941406h33.390625l-4.796875 40.816406c-2.542968 2.207031-5.058594 4.410156-7.507812 6.773437zm-92.707032 54.808594c-6.953124.191406-13.078124-4.542969-14.640624-11.320313-.542969-2.449218-1.273438-4.851562-2.1875-7.1875-2.453126-6.191406-6.089844-11.847656-10.707032-16.648437l-2.5625-67.242187h33.777344v102.398437zm-38.988281-153.597656c-4.710937 0-8.53125 3.820312-8.53125 8.53125v25.601562h-34.136719v-51.199219h187.734376v51.199219h-34.132813v-25.601562c0-4.710938-3.820313-8.53125-8.53125-8.53125-4.714844 0-8.535156 3.820312-8.535156 8.53125v25.601562h-34.132813v-25.601562c0-4.710938-3.820312-8.53125-8.535156-8.53125-4.710938 0-8.53125 3.820312-8.53125 8.53125v25.601562h-34.132812v-25.601562c0-4.710938-3.820313-8.53125-8.535157-8.53125zm59.734375 51.199219h33.800782l-3.933594 102.398437h-29.867188zm-87.894531-104.652344c1.734375-1.222656 2.953125-3.046875 3.414063-5.121094 3.503906-15.582031 17.308593-26.679688 33.28125-26.761719 3.863281.050781 7.691406.761719 11.3125 2.101563 2.945312 1.03125 6.214843.378906 8.535156-1.707032 13.003906-11.519531 32.5625-11.519531 45.566406 0 2.320312 2.085938 5.59375 2.738282 8.535156 1.707032 3.644532-1.347656 7.496094-2.058594 11.382813-2.101563 15.972656.082031 29.773437 11.179688 33.28125 26.761719.460937 2.074219 1.675781 3.898438 3.410156 5.121094 6.601563 4.667968 11.34375 11.503906 13.40625 19.320312h-185.554687c2.042968-7.828125 6.804687-14.675781 13.429687-19.320312zm-7.3125 156.84375-6.125-52.191406h33.390625l2.125 55.152343c-3.171875-1.378906-6.476562-2.417969-9.867188-3.097656-2.96875-.527344-5.976562-.792969-8.992187-.804687-.4375 0-.855469 0-1.308594 0-2.921875.039062-5.835937.324218-8.710937.855468-.171875.066406-.339844.050782-.503906.085938zm-24.261719 118.476562c-.003906-4.195312.777344-8.351562 2.304688-12.253906 2.714844-6.933594 4.054687-14.328125 3.941406-21.769531.132812-7.515625-1.203125-14.984375-3.933594-21.992188-1.535156-3.902343-2.320312-8.058593-2.3125-12.253906.023438-15.144531 10.035156-28.457031 24.578125-32.679687.511719-.15625 1.03125-.292969 1.542969-.410157 1.160156-.285156 2.335938-.511719 3.515625-.675781.742187-.09375 1.503906-.144531 2.261719-.1875.972656-.066406 1.953125-.128906 2.945312-.117188 1.964844.03125 3.925782.210938 5.863282.542969 13.351562 2.640625 23.871093 12.945313 26.785156 26.242188 3.414062 14.433593 16.398437 24.558593 31.230468 24.351562h56.054688c-.101562.746094-.136719 1.503907-.230469 2.246094-.160156 1.375-.304687 2.746094-.417969 4.128906-.261718 3.132813-.433593 6.273438-.46875 9.386719 0 .429688-.058593.855469-.058593 1.28125s.058593.851562.058593 1.28125c0 3.140625.207032 6.277344.46875 9.386719.113282 1.382812.257813 2.753906.417969 4.128906.09375.742187.128907 1.5.230469 2.246094h-56.054688c-14.960937-.175781-28.011718 10.132812-31.308593 24.726562-3.859375 16.945313-19.839844 28.285157-37.109375 26.335938-17.269532-1.953125-30.316406-16.566407-30.304688-33.945313zm174.269532 79.792969c-1.519532 12.890625-12.441407 22.605469-25.421876 22.605469h-75.828124c-12.976563 0-23.902344-9.714844-25.417969-22.605469l-3.484375-29.542969c1.445312-.28125 2.824218-.75 4.269531-1.152344.910156-.261718 1.859375-.433593 2.753906-.75 1.417969-.492187 2.75-1.167968 4.113281-1.78125.855469-.402343 1.800782-.726562 2.65625-1.179687 1.3125-.691406 2.558594-1.542969 3.789063-2.355469.808594-.527344 1.703125-.972656 2.449219-1.542968 1.226562-.894532 2.335937-1.9375 3.480468-2.9375.707032-.621094 1.46875-1.167969 2.140626-1.824219 1.125-1.101563 2.125-2.328125 3.148437-3.53125.574219-.675781 1.222656-1.289063 1.765625-2 .984375-1.277344 1.820312-2.679688 2.679688-4.050781.460937-.734376 1.007812-1.410157 1.433593-2.175782.851563-1.585937 1.621094-3.214844 2.304688-4.882812.28125-.65625.648437-1.261719.90625-1.929688.917969-2.382812 1.65625-4.828125 2.210937-7.320312 1.707032-6.558594 7.730469-11.054688 14.503906-10.835938h3.679688v68.265625c0 4.710938 3.820312 8.53125 8.53125 8.53125 4.714844 0 8.535156-3.820312 8.535156-8.53125v-68.265625h38.9375c3.128906 10.996094 7.808594 21.492188 13.890625 31.171875l.136719.222657c1.851562 2.933593 3.839844 5.777343 5.972656 8.53125.179688.238281.324219.496093.503906.734374zm138.734374 16.957031c-41.097656-7.039062-79.253906-25.90625-109.796874-54.289062-3.132813-3.027344-6.074219-6.246094-8.808594-9.632813-10.496094-12.9375-17.78125-28.175781-21.265625-44.46875-.660157-3.09375-1.183594-6.222656-1.570313-9.386719-.050781-.453124-.152344-.894531-.203125-1.355468-.84375-7.796875-.84375-15.65625 0-23.449219.050781-.460937.152344-.90625.203125-1.359375.386719-3.144531.910156-6.273438 1.570313-9.386719 1.066406-5.027343 2.492187-9.972656 4.269531-14.796875l.253906-.707031c.867188-2.277344 1.796875-4.507813 2.800782-6.699219.179687-.382812.367187-.757812.554687-1.132812 1.636719-3.441406 3.464844-6.789063 5.476563-10.027344.648437-1.050781 1.261718-2.125 1.945312-3.148438.855469-1.222656 1.707031-2.398437 2.5625-3.578124 1.117188-1.527344 2.269531-3.035157 3.472656-4.503907.734375-.898437 1.464844-1.800781 2.234375-2.679687 2.066407-2.355469 4.207031-4.667969 6.503907-6.828125 30.539062-28.402344 68.691406-47.285157 109.796874-54.339844-1.050781.855469-2.046874 1.707031-3.070312 2.5625-.640625.542969-1.289062 1.074219-1.929688 1.636719-2.746093 2.433594-5.425781 4.992187-8.003906 7.679687-.496094.519531-.972656 1.074219-1.460937 1.605469-2.234375 2.433594-4.398438 4.964844-6.492188 7.59375-.496093.621094-1.007812 1.21875-1.492187 1.851562-2.351563 3.054688-4.59375 6.230469-6.734375 9.53125-.453125.691407-.851563 1.410157-1.324219 2.109376-1.859375 2.960937-3.632812 6.011718-5.316406 9.148437-.339844.621094-.691406 1.226563-1.023438 1.867187-1.863281 3.582032-3.613281 7.28125-5.246094 11.09375-.367187.851563-.710937 1.707032-1.066406 2.558594-1.425781 3.464844-2.765625 7.007813-3.984375 10.617188-.191406.554687-.394531 1.089844-.582031 1.644531-1.3125 4.046875-2.476562 8.183594-3.53125 12.390625-.242188.984375-.472656 1.980469-.703125 2.980469-.929687 3.984375-1.757813 8.019531-2.429687 12.132812-.070313.375-.144532.742188-.214844 1.125-.691406 4.40625-1.195313 8.886719-1.59375 13.417969-.09375 1.089844-.171875 2.183594-.257813 3.285156-.324219 4.667969-.546875 9.335938-.546875 14.054688s.222656 9.386718.546875 13.96875c.085938 1.097656.164063 2.191406.257813 3.285156.398437 4.53125.902344 9.011719 1.59375 13.414062.070312.382813.144531.75.214844 1.125.671874 4.113282 1.5 8.148438 2.429687 12.136719.230469.996094.460937 1.996094.703125 2.976563 1.054688 4.207031 2.21875 8.34375 3.53125 12.390625.1875.554687.390625 1.089843.582031 1.644531 1.21875 3.613281 2.558594 7.152344 3.984375 10.617188.355469.855468.699219 1.707031 1.066406 2.558593 1.636719 3.796875 3.386719 7.492188 5.246094 11.09375.332032.640625.683594 1.246094 1.023438 1.871094 1.707031 3.140625 3.480468 6.1875 5.316406 9.148437.445312.699219.855469 1.414063 1.324219 2.105469 2.144531 3.300781 4.390625 6.476563 6.734375 9.53125.484375.632813.996094 1.230469 1.492187 1.851563 2.09375 2.636718 4.257813 5.167968 6.492188 7.597656.488281.527344.964843 1.082031 1.460937 1.601562 2.558594 2.714844 5.257813 5.273438 8.003906 7.679688.640626.5625 1.289063 1.09375 1.929688 1.640625 1.023438.910156 2.019531 1.816406 3.070312 2.644531zm62.464844 5.648438c-56.464844 0-102.402344-61.25-102.402344-136.53125s45.9375-136.535156 102.402344-136.535156 102.398438 61.253906 102.398438 136.535156-45.933594 136.53125-102.398438 136.53125zm0 0"/><path d="m392.535156 315.734375c-18.824218 0-34.132812 19.140625-34.132812 42.667969 0 23.523437 15.308594 42.664062 34.132812 42.664062 18.824219 0 34.132813-19.140625 34.132813-42.664062 0-23.527344-15.308594-42.667969-34.132813-42.667969zm0 68.265625c-9.25 0-17.066406-11.722656-17.066406-25.597656s7.816406-25.601563 17.066406-25.601563 17.066406 11.726563 17.066406 25.601563-7.816406 25.597656-17.066406 25.597656zm0 0"/><path d="m256 358.402344c-.039062-19.304688 2.691406-38.515625 8.097656-57.046875 1.488282-4.476563-.933594-9.3125-5.414062-10.800781-4.476563-1.484376-9.3125.9375-10.796875 5.417968-11.957031 40.757813-11.957031 84.097656 0 124.859375 1.488281 4.476563 6.324219 6.898438 10.800781 5.410157 4.480469-1.492188 6.902344-6.328126 5.410156-10.804688-5.429687-18.523438-8.15625-37.734375-8.097656-57.035156zm0 0"/><path d="m220.203125 324.769531c-4.425781-1.59375-9.308594.695313-10.914063 5.121094-5.984374 18.511719-5.984374 38.4375 0 56.953125 1.597657 4.421875 6.472657 6.71875 10.902344 5.132812 4.425782-1.585937 6.738282-6.453124 5.167969-10.886718-4.65625-14.792969-4.65625-30.65625 0-45.449219 1.5625-4.421875-.742187-9.28125-5.15625-10.871094zm0 0"/></svg>