<?xml version="1.0" encoding="utf-8"?>
<!-- Generator: Adobe Illustrator 22.1.0, SVG Export Plug-In . SVG Version: 6.00 Build 0)  -->
<svg version="1.1" id="Layer_1" xmlns="http://www.w3.org/2000/svg" xmlns:xlink="http://www.w3.org/1999/xlink" x="0px" y="0px"
	 viewBox="0 0 231.7 200"  style="enable-background:new 0 0 341 341; fill:#2f1959;" xml:space="preserve">
<g transform="translate(0.000000,256.000000) scale(0.100000,-0.100000)">
	<path d="M238.4,2466.7c-49-117.8-49-144.6,0-34.1c18.1,42.4,39,85.8,46.3,98.2c8.2,14.5,9.1,24.8,3.6,28.9
		C283.7,2563.9,261,2521.5,238.4,2466.7z"/>
	<path d="M349,2433.7c-16.3-16.5-49-44.4-72.6-64.1c-24.5-18.6-41.7-36.2-39.9-39.3c6.3-6.2,150.6,111.6,150.6,122.9
		C387.1,2467.8,380.8,2464.7,349,2433.7z"/>
	<path d="M71.5,2271.5c-20.9-48.6-38.1-94-38.1-101.3c0-6.2,17.2-20.7,39-31c36.3-17.6,38.1-17.6,49.9,0
		c18.1,27.9,62.6,129.1,68.9,158.1c2.7,14.5,2.7,19.6,0,13.4c-7.3-18.6-24.5-16.5-18.1,2.1c4.5,14.5-34.5,46.5-55.3,46.5
		C113.2,2359.3,92.3,2320,71.5,2271.5z M147.6,2322.1c16.3-14.5,16.3-14.5-5.4-3.1c-28.1,14.5-32.7,19.6-21.8,19.6
		C125.9,2338.6,137.7,2331.4,147.6,2322.1z"/>
	<path d="M418.8,2307.6c-2.7-5.2-0.9-10.3,3.6-10.3c5.4,0,10,5.2,10,10.3c0,6.2-1.8,10.3-3.6,10.3
		C426.1,2318,421.6,2313.8,418.8,2307.6z"/>
	<path d="M296.4,2300.4c-22.7-3.1-43.5-8.3-47.2-12.4c-10-10.3,113.4-1,124.3,10.3C381.7,2307.6,376.2,2307.6,296.4,2300.4z"/>
	<path d="M698.3,1052.1c-4.8,16.8-20.8,50.6-47.2,99.4c-54.4,102.3-59,113.6-77.1,228.3l-19,121.9H525c-39,0-79.8,44.4-88.9,98.2
		c-4.5,31-0.9,50.6,18.1,94l23.6,55.8H437c-18.3,0-29.2-1.5-35-5.3c-9-0.3-18.1-0.3-27.1-0.1c-0.7,0-1.3,0-2,0
		c-3.7,5-11.1,10.3-20.2,13.7c-49.9,21.7-151.5,152.9-222.2,287.2c-25.4,47.5-41.7,67.2-70.7,81.6c-20.9,11.4-40.8,28.9-44.4,40.3
		c-7.3,20.7-7.3,20.7-13.6,3.1c-17.2-47.5,106.1-271.7,225.8-415.3c112.5-133.3,127-199.4,78-339.9c-13.2-39.4-22.6-77-22.2-89.8
		c-4.4-9.1-7-18.9-7.8-29c-12.4-19.5-5.3-87.8,16.3-145.7c21.8-59.9,22.7-68.2,22.7-303.8c0-238.7,0-243.8,20.9-264.5
		c14.5-16.5,27.2-20.7,47.2-16.5c49,11.4,49.9,14.5,49.9,353.3c0,312,0,312,19,306.9c17.2-5.2,75.3-98.2,112.5-177.7l14.5-34.1
		l-62.6-125l-63.5-126l-3.6-93c-2.7-92-2.7-93,21.8-102.3c36.3-14.5,70.7,14.5,70.7,59.9c0,33.1,28.1,95.1,129.7,292.4
		c9,17,15.9,30.8,21.1,42.1c4.6,5.7,8,12.6,10,20.5c2.4,9.5,3.7,19.8,3.9,29.6C706.4,1025.6,704.5,1040.5,698.3,1052.1z"/>
	<path d="M1971.7,2120.6c-13.6-9.3-11.8-13.4,16.3-41.3c17.2-17.6,33.6-40.3,36.3-51.7c8.2-26.9,24.5-19.6,32.7,13.4
		c8.2,35.1-10,75.4-33.6,76.5c-10.9,1-22.7,4.1-27.2,7.2S1980.7,2125.8,1971.7,2120.6z"/>
	<path d="M1595.2,2039c-28.1,59.9-108.8,97.1-161.4,72.3c-10-4.1-31.7-22.7-47.2-40.3c-93.4-106.4,5.4-284.1,132.4-240.7
		C1591.6,1855.1,1630.6,1963.6,1595.2,2039z M1507.3,1896.4c-48.1-25.8-82.5-13.4-108.8,38.2c-5.4,11.4-2.7,13.4,14.5,7.2
		c11.8-5.2,43.5-13.4,69.8-20.7C1530.8,1908.8,1530.8,1908.8,1507.3,1896.4z"/>
	<path d="M958.5,2090.7c-18.1-5.2-44.4-24.8-60.8-45.5c-25.4-31-29.9-44.4-29.9-85.8c0-92,51.7-147.7,135.1-147.7
		c46.3,0,92.5,43.4,109.7,102.3C1141.7,2016.3,1053.8,2116.5,958.5,2090.7z M1014.8,1871.6c-8.2-9.3-33.6-18.6-56.2-20.7
		c-36.3-2.1-40.8,0-41.7,18.6c-0.9,19.6,3.6,21.7,56.2,20.7C1026.5,1889.2,1029.3,1888.2,1014.8,1871.6z"/>
	<path d="M1834.7,2079.3l-35.4-21.7l26.3-24.8c28.1-25.8,44.4-31,52.6-15.5c11.8,21.7,50.8,18.6,74.4-5.2
		c24.5-26.9,67.1-33.1,67.1-10.3s-33.6,64.1-67.1,82.7C1911.8,2106.2,1878.2,2105.1,1834.7,2079.3z"/>
	<path d="M619.3,1966.1c0.7,6.6,0.6,12.6-1.2,20.4c-1.4,5.9-3.6,11.5-6.6,16.5c-2,3.4-4.2,6.3-6.4,9c-5,12.9-13.7,23.2-25.3,28.4
		c-18.7,16.4-50.1,33.1-72.9,35.8c-22.7,3.1-45.4-3.1-67.1-16.5c-13.1-7.8-24.4-17.6-30.2-25.3c-18.1-12.9-31.4-34.7-36.2-58.5
		c-4.5-11.3-4.8-26.9-2.5-56.8c4.5-59.9,25.4-96.1,72.6-124c52.6-31,133.3-3.1,164.2,57.9C621.8,1880.2,625.9,1932.6,619.3,1966.1z
		 M515.9,1848.9c-39.9-23.8-58-20.7-88,14.5c-28.1,33.1-25.4,36.2,19,21.7c15.4-5.2,33.6-5.2,40.8-1c7.3,4.1,22.7,1,34.5-6.2
		l21.8-12.4L515.9,1848.9z"/>
	<path d="M1769.4,2001.8c-7.3-32,5.4-48.6,32.7-43.4c48.1,7.2,42.6,70.3-5.4,70.3C1781.2,2028.7,1773.9,2021.4,1769.4,2001.8z"/>
	<path d="M1932.7,2012.1c-15.4,6.5-25.1,7.7-27.2,4c-0.1,0-0.1,0-0.2,0c-0.8-0.3-1.4-0.7-2.2-1.1c0,0,0,0,0,0
		c-0.1-0.1-0.2-0.1-0.3-0.2c-1.4-0.7-2.7-1.4-3.9-2.4c-3.5-1.8-7.3-3.4-9.8-7.6c-0.7-1.2-1.1-2.5-1.5-3.8c-1.5,1.2-2.5-3.9-3.1-15.9
		c-0.9-33.1,22.7-52.7,46.3-38.2C1950.8,1959.4,1952.6,2003.9,1932.7,2012.1z"/>
	<path d="M1831.1,1959.4c-15.4-18.6-26.3-23.8-43.5-19.6c-24.5,7.2-27.2-3.1-11.8-37.2c49.9-106.4,146-130.2,212.2-52.7
		c30.8,36.2,49,94,36.3,115.7c-10.9,21.7-53.5,12.4-73.5-16.5c-17.2-24.8-22.7-26.9-45.4-18.6c-14.5,6.2-29.9,20.7-35.4,34.1
		C1859.2,1992.5,1857.4,1991.5,1831.1,1959.4z M1924.5,1873.7c-20.9-25.8-59.9-26.9-87.1,0l-21.8,19.6l31.7-5.2
		c17.2-3.1,44.4-1,59,4.1C1940.8,1903.7,1945.4,1899.5,1924.5,1873.7z"/>
	<path d="M2281.9,1908.8l-27.2-30l9.1,28.9c11.8,35.1,12.7,58.9,1.8,58.9c-3.6,0-12.7-19.6-18.1-43.4c-9.1-35.1-27.2-62-86.2-124
		l-74.4-78.5l-94.3,31c-61.7,19.6-103.4,28.9-122.4,24.8c-31.7-7.2-62.6-39.3-72.6-77.5l-6.3-24.8l24.5,21.7
		c16.5,15,31.6,20.6,54.6,19.2c1.5-0.3,3-0.6,4.6-1c13.2-9.3,22.4-23.5,26.2-40.4c0.7-4.8,1.2-9.4,1.5-13.6
		c-0.4-3.1-0.7-6.3-0.7-9.6c0-15.5-14.5-43.4-36.3-70.3c-31.7-39.3-36.3-50.6-36.3-95.1c0-26.3,4.3-51.8,12.4-71.6
		c4-25-3.6-46.7-17.3-68.2c-12.2-19-24.8-33.1-33.9-50c-1-1.5-2.1-3-3.1-4.6l0.6-0.2c-5.6-11.6-9.5-24.6-10.6-41.5
		c-2.2-35.8,24.1-70.6,53.3-79.7c5-1.6,9.9-2.4,14.7-2.7c3.1-1.5,6.2-2.9,9.2-3.9c40.8-15.5,78.9-61,107-129.1
		c5.2-11.8,10.6-21.3,15.6-27.3c8.4-15.7,15.6-32.1,21.6-49.3c-1-16.3,3.7-45.6,15.4-96.9c12.7-53.7,24.5-122.9,28.1-153.9
		c9.1-90.9,20-120.9,50.8-134.3c24.5-11.4,30.8-10.3,51.7,7.2c29.9,25.8,34.5,63,20,168.4c-21.8,157-61.7,298.6-110.7,391.6
		c-51.7,96.1-54.4,105.4-63.5,186c-1.7,16.3-2.8,34.4-3.4,53.2c1.4,16.4,1.3,32.9-0.4,49.2c0.5,43.3,3.5,85.3,8.2,113.3
		c42.6,6.1,48.7,71.7,18.2,94.8c3.2,14.8,17.3,11.1,72.7-4.7c19-6.2,36.3,7.2,114.3,87.8c50.8,52.7,91.6,100.2,91.6,107.5
		c0,7.2-4.5,17.6-10.9,24.8c-8.2,9.3-4.5,19.6,15.4,43.4C2330.8,1934.6,2318.1,1948.1,2281.9,1908.8z"/>
	<path d="M1620.6,1932.6c0-13.4-6.3-33.1-13.6-44.4c-21.8-32-16.3-51.7,18.1-63l31.7-11.4v37.2c0,40.3-18.1,105.4-29,105.4
		C1624.3,1956.3,1620.6,1946,1620.6,1932.6z"/>
	<path d="M1304.1,1531.7c-45.4,8.3-82.5,18.6-82.5,22.7c0,5.2,3.6,9.3,7.3,9.3c3.6,0,20.9,12.4,37.2,28.9l29.9,27.9h-58
		c-49.9,0-63.5,4.1-90.7,27.9c-17.2,15.5-43.5,52.7-58,84.7c-35.4,77.5-75.3,86.8-107,24.8c-12.7-23.8-18.1-27.9-24.5-17.6
		c-4.5,8.3-8.2,25.8-8.2,39.3c0,23.8-1.8,23.8-51.7,16.5c-28.1-4.1-61.7-11.4-73.5-16.5c-20-9.3-19-6.2,10.9,41.3
		c29.9,45.5,31.7,52.7,22.7,82.7c-11.8,39.3-25.4,40.3-55.3,4.1c-49-62-134.2-199.4-134.2-218c0-41.3,22.7-47.5,80.7-23.8
		c68,27.9,75.3,27.9,63.5-2.1c-20-49.6,30.8-119.8,78-106.4c10.1,3.3,17.8,9.2,19.7,15.1c7.7,1.5,15.3,3.4,22.9,5.6
		c0.1-5.8-13.7-19.2-31.7-30c-28.1-17.6-33.6-25.8-33.6-53.7c0-17.6-21.8-100.2-49-182.9c-35.4-110.5-45.4-150.8-37.2-155
		c5.6-2.4,11.2,0.2,14.8,5.3c5.7-11.6,15.5-20.5,29.2-23.2c28.8-32.5,172.6-43.4,269-15.2c67.1,19.6,146.9,62,169.6,90.9
		c13.6,17.6,13.6,20.7,0.9,32c-142.4,127.1-197.7,199.4-197.7,256.2c0,13.4-6.3,19.6-21.8,19.6c-11.8,0-29,8.3-39,18.6
		c-9.1,9.3-12.7,14.5-8.2,10.3c29.9-26.9,105.2,6.2,105.2,44.4c0,11.4,3.6,18.6,9.1,14.5c4.5-3.1,5.4-13.4,2.7-23.8
		c-5.4-15.5-4.5-15.5,9.1-3.1c0.2,0.1,0.3,0.3,0.5,0.4c9-31.9,17.7-65.2,34.3-92.7c3.2-5.4,7.4-8.4,11.8-10c2.7-1.9,6.1-3,9.9-3.3
		c2.1-1.2,4.6-2,7.3-2.4c14.2-6.1,37.4-11,79.5-19.1c50.8-9.3,96.1-13.4,99.8-9.3c4.5,5.2,10,22.7,13.6,40.3l5.4,31L1304.1,1531.7z"
		/>
	<path d="M1121.8,1886.1c0-4.1-10.9-20.7-23.6-36.2c-20.9-25.8-21.8-31-12.7-67.2c27.2-96.1,104.3-166.3,168.7-152.9
		c36.3,8.3,61.7,37.2,31.7,37.2c-37.2,0-56.2,21.7-89.8,101.3c-19,44.4-39.9,79.6-47.2,79.6c-8.2,0-12.7,9.3-11.8,23.8
		c1.8,12.4-1.8,22.7-6.3,22.7C1125.4,1894.4,1121.8,1891.3,1121.8,1886.1z"/>
	<path d="M1718.6,1712.5c-33.6,61-43.5,70.3-88,89.9c-44.4,18.6-57.1,20.7-102.5,11.4c-29-6.2-63.5-7.2-78-3.1
		c-18.1,6.2-37.2,2.1-69.8-14.5c-25.4-12.4-63.5-42.4-86.2-65.1l-40.8-42.4l35.4-1c31.7,0,34.5-2.1,30.8-25.8l-4.5-24.8l22.7,19.6
		c29.9,26.9,32.7,26.9,45.4-12.4c23.6-77.5,22.7-133.3-2.7-209.7c-12.7-39.3-25.4-93-27.2-118.8c-1.8-25.8-10-99.2-19-163.2
		c-8.2-63-13.6-118.8-10.9-121.9c10.9-12.4,165.1-21.7,270.3-16.5c105.2,5.2,108.8,5.2,108.8,27.9c0,32.3-6.6,67.5-13.4,78.6
		c1.7,16.2,0.1,32.2-2.6,48.3c-0.5,3.2-1.7,6.5-3.1,9.7c0.3,15.7-1.7,40.4-5.4,82.5c-6.3,64.1-19,127.1-34.5,171.5
		c-23.6,67.2-24.5,74.4-14.5,143.6c5.4,40.3,12.7,77.5,16.3,83.7c2.7,5.2,17.2-12.4,31.7-39.3l26.3-48.6l27.2,28.9
		c14.5,15.5,26.3,32,26.3,36.2C1756.7,1641.2,1739.5,1675.3,1718.6,1712.5z"/>
	<path d="M514.9,1594.5c0,0.3,0,0.6,0,1c2,13,4.7,25.9,6.8,38.9c0.8,1.6,1.6,3.1,2.4,4.8c10.9,23.8,25.4,54.8,31.7,69.2
		c13.6,27.9,17.2,73.4,6.3,71.3c-4.5,0-20.9-5.2-37.2-10.3c-24.5-8.3-34.5-20.7-52.6-64.1c-11.8-30-21.8-67.2-21.8-82.7
		c0-46.1,27.4-94.3,58-107.2c2.8-4.8,8.1-5.4,12-3.1c1.1-0.1,2.3-0.3,3.4-0.3c5.9,0,5.7,4.1,0.7,12.3c0.2,1.5,0.3,3.1-0.3,4.9
		c-1.3,4.3-2.6,8.5-4,12.8c-0.6,2.9-1.2,5.8-1.8,8.7c-0.1,0.4-0.1,0.8-0.2,1.3c-1.5,8.4-2.7,16.9-3.5,25.6c-0.1,1.5-0.6,2.9-1.2,4.1
		l0.1,1.9C514.3,1587.8,514.8,1591.8,514.9,1594.5z"/>
	<path d="M552.2,1657.8c-34.5-78.5-36.3-94-10.9-119.8c18.1-18.6,18.1-17.6,18.1,39.3c0,33.1,3.6,58.9,7.3,58.9s20-30,35.4-66.1
		c32.7-74.4,29.9-72.3,157.8-98.2l89.8-18.6v44.4c0,48.6-1.8,50.6-77.1,61c-84.4,11.4-84.4,11.4-117,86.8
		C611.1,1745.6,592.1,1747.6,552.2,1657.8z"/>
	<path d="M1884.6,1673.3c-17.2,43.4-45.4,31-109.7-44.4c-92.5-109.5-88.9-90.9-39.9-209.7c23.6-56.8,45.4-103.3,49-103.3
		c2.7,0,17.2,13.4,30.8,30c28.1,33.1,27.2,49.6-7.3,106.4c-32.7,54.8-33.6,75.4-6.3,88.9c13.6,6.2,39.9,33.1,59,59.9
		C1890.9,1642.3,1893.7,1651.6,1884.6,1673.3z"/>
	<path d="M2001.6,1470.8c0-44.4,11.8-51.7,30.8-17.6c7.3,12.4,7.3,22.7,0,35.1C2013.4,1522.4,2001.6,1515.2,2001.6,1470.8z"/>
	<path d="M2244.7,1090.5c-10.9,15.5-209.5,163.2-220.4,163.2c-2.7,0-4.5-5.2-4.5-12.4c0-6.2,17.2-41.3,38.1-78.5
		c20.9-36.2,52.6-115.7,71.7-178.7l33.6-113.6l46.3,80.6C2256.5,1032.7,2263.7,1061.6,2244.7,1090.5z"/>
	<path d="M1179.8,722.7c-18.1,44.4-49,119.8-67.1,166.3l-34.5,84.7l20.9,68.2c22.7,70.3,20.9,73.4-22.7,56.8
		c-12.7-4.1-38.1-8.3-57.1-9.3c-28.1-1-35.4-6.2-43.5-28.9C952.2,992.4,954.9,953.1,993,856c107-273.8,118.8-294.5,163.3-294.5
		c9.1,0,23.6,8.3,30.8,18.6C1215.2,615.3,1214.3,639,1179.8,722.7z"/>
	<path d="M1040.2,670c-0.9,17.6-23.6,85.8-50.8,152.9c-50.4,125.6-54.1,138.4-40.7,197.4c1.4,4,2.3,8.2,2.9,12.4
		c6.1,24.4,8.8,46.5,6.1,48.5c-1.4,2.3-14.8,5.2-32,8.2c-5.1,2.3-10.8,3.6-17.3,3.6c-1.2,0-2.3-0.1-3.5-0.2
		c-37.2,4.8-46.1,3.6-46.1-8.5c0-28.9,44.4-316.2,50.8-327.5c3.6-7.2,7.3-40.3,8.2-73.4c2.7-76.5,25.4-116.7,64.4-116.7
		c9.8,0,16.9,1.7,21.2,5.1c14.8,2.3,25.2,11.8,31.1,24.2C1042,601.7,1042.9,621.8,1040.2,670z"/>
	<path d="M1380.3,993.4c-33.6-1-59-7.2-59-13.4c0-5.2-6.3-68.2-13.6-139.5c-24.5-231.4-17.2-279,42.6-279c48.1,0,54.4,22.7,78.9,281
		C1445.6,1007.9,1449.2,996.5,1380.3,993.4z"/>
	<path d="M1715.9,844.6c-7.3,74.4-13.6,138.4-13.6,143.6c0,4.1-27.2,7.2-59.9,7.2h-60.8l6.3-93c10.5-152.2,28.8-289.8,40.6-313.2
		c6.1-16.5,19.4-29.3,39.9-29.3c5,0,9.6,0.8,13.8,2.2c8.3-1.7,22.3,5.8,33.6,20C1734.9,607,1734.9,645.2,1715.9,844.6z"/>
	<path d="M2020.6,752.7c-6.3,48.6-15.4,87.8-19,87.8c-4.5,0-22.7-26.9-39.9-61c-18.1-33.1-32.7-69.2-32.7-80.6
		c0-25.8,36.3-65.1,60.8-65.1C2027,633.9,2032.4,657.6,2020.6,752.7z"/>
</g>
</svg>
