<?xml version="1.0" standalone="no"?>
<!DOCTYPE svg PUBLIC "-//W3C//DTD SVG 20010904//EN"
 "http://www.w3.org/TR/2001/REC-SVG-20010904/DTD/svg10.dtd">
<svg version="1.0" xmlns="http://www.w3.org/2000/svg"
 width="240.000000pt" height="240.000000pt" viewBox="0 0 240.000000 240.000000"
 preserveAspectRatio="xMidYMid meet">

<g transform="translate(0.000000,240.000000) scale(0.100000,-0.100000)"
fill="#000000" stroke="15">
<path d="M480 1826 c-18 -10 -68 -96 -173 -299 -81 -156 -147 -294 -147 -306
0 -12 5 -31 10 -42 11 -20 218 -129 246 -129 9 0 29 8 46 18 29 17 30 17 48
-8 11 -14 28 -37 39 -51 15 -20 18 -35 14 -67 -5 -38 -2 -45 30 -77 19 -19 44
-35 56 -35 17 0 21 -6 21 -30 0 -37 37 -78 79 -86 20 -4 33 -15 42 -36 14 -33
62 -68 94 -68 14 0 24 -10 32 -30 16 -42 73 -68 115 -52 26 10 36 9 52 -3 88
-65 91 -67 125 -61 35 5 91 50 91 72 0 9 15 11 53 7 47 -5 56 -2 84 21 17 14
33 36 37 49 5 20 10 22 46 19 35 -4 44 0 75 31 19 19 35 45 35 57 0 19 4 22
27 17 55 -10 118 33 129 89 4 23 0 46 -13 73 l-19 38 73 68 74 67 23 -21 c30
-29 55 -27 177 14 106 36 139 59 139 99 0 12 -45 156 -100 321 -102 308 -116
335 -164 335 -33 0 -226 -67 -247 -86 -10 -9 -19 -30 -21 -48 -3 -27 -9 -33
-45 -46 -39 -13 -54 -12 -199 14 -173 32 -276 37 -314 16 -14 -7 -43 -28 -66
-47 -40 -32 -44 -33 -132 -33 -74 0 -100 4 -137 22 -36 18 -45 27 -45 48 0 42
-25 66 -123 119 -108 58 -134 65 -167 47z m140 -86 c65 -33 100 -56 100 -66 0
-27 -281 -565 -298 -571 -20 -8 -206 90 -210 111 -3 14 254 530 281 564 14 18
18 17 127 -38z m1472 -260 c53 -157 96 -296 95 -310 -2 -22 -13 -29 -92 -57
-152 -54 -127 -81 -244 269 -82 245 -98 305 -88 315 18 19 178 72 207 70 24
-2 31 -19 122 -287z m-747 146 c50 -8 132 -22 183 -31 84 -15 98 -15 145 -1
28 8 52 14 53 13 1 -1 38 -112 83 -247 48 -147 77 -246 70 -249 -5 -1 -35 -28
-66 -57 -104 -102 -71 -114 -363 137 -212 182 -260 219 -286 219 -44 0 -81
-43 -94 -109 -19 -101 -65 -165 -114 -159 l-27 3 0 125 c-1 69 -1 133 0 142 1
20 201 195 245 214 40 17 61 17 171 0z m-426 -86 l66 -1 -41 -37 c-23 -20 -47
-47 -53 -59 -7 -13 -11 -81 -11 -172 0 -144 1 -151 22 -165 49 -34 129 -7 168
56 19 30 39 89 54 160 4 15 15 32 26 38 16 9 57 -22 300 -232 312 -270 326
-287 255 -334 -36 -23 -46 -17 -205 120 -129 112 -166 133 -177 99 -2 -6 53
-62 124 -123 70 -61 131 -121 135 -132 8 -20 -6 -57 -26 -70 -32 -22 -64 -4
-186 102 -123 108 -152 125 -164 95 -6 -17 3 -26 127 -132 108 -93 120 -129
55 -164 -24 -13 -43 -2 -141 84 -45 39 -90 77 -100 86 -16 13 -19 13 -35 -3
-16 -16 -13 -21 66 -94 45 -43 82 -85 82 -95 0 -23 -35 -57 -59 -57 -23 0 -97
58 -94 74 1 6 5 23 9 39 9 38 -13 85 -48 103 -22 12 -28 20 -22 32 5 9 8 34 8
56 0 30 -6 44 -28 62 -15 13 -36 24 -47 24 -15 0 -19 7 -19 36 0 69 -80 116
-141 83 -16 -8 -26 -5 -55 20 -44 39 -90 41 -133 6 l-30 -26 -18 27 c-25 37
-57 70 -72 75 -8 3 30 85 110 240 l122 236 55 -28 c43 -23 67 -29 121 -29z
m-185 -536 c23 -23 20 -40 -16 -85 -34 -42 -65 -50 -92 -23 -23 23 -20 45 15
87 33 40 67 48 93 21z m164 -36 c25 -25 12 -60 -49 -134 -67 -82 -96 -93 -124
-50 -20 30 -14 42 60 134 51 63 85 78 113 50z m94 -125 c28 -25 22 -51 -29
-114 -55 -68 -85 -82 -115 -51 -28 28 -19 55 43 125 53 60 71 67 101 40z m66
-165 c18 -18 14 -52 -9 -82 -27 -34 -67 -32 -88 5 -13 23 -12 28 9 57 25 34
65 43 88 20z"/>
</g>
</svg>
