<?xml version="1.0" encoding="utf-8"?>
<!-- Generator: Adobe Illustrator 24.1.2, SVG Export Plug-In . SVG Version: 6.00 Build 0)  -->
<svg version="1.1" id="Layer_1" xmlns="http://www.w3.org/2000/svg" xmlns:xlink="http://www.w3.org/1999/xlink" x="0px" y="0px"
	 viewBox="0 0 48 48" style="enable-background:new 0 0 48 48;" xml:space="preserve">
<style type="text/css">
	.st0{fill:#FFFFFF;}
</style>
<path class="st0" d="M7,48h16V31h-6v-6h6v-7c0-3.9,3.1-7,7-7h7v6h-5.2c-1.6,0-2.8,1.3-2.8,2.8V25h8.7l-1,6H28v17h13c3.9,0,7-3.1,7-7
	V7c0-3.9-3.1-7-7-7H7C3.1,0,0,3.1,0,7v34C0,44.9,3.1,48,7,48z M3,7.2C3,4.9,4.9,3,7.2,3h33.6C43.1,3,45,4.9,45,7.2v33.6
	c0,2.3-1.9,4.2-4.2,4.2H31V34h7.5l1.8-11H31v-3h9V9H29.8c-5.4,0-9.8,4.4-9.8,9.8V23h-6v11h6v11H7.2C4.9,45,3,43.1,3,40.8V7.2z"/>
</svg>
