<?xml version="1.0" encoding="utf-8"?>
<!-- Generator: Adobe Illustrator 24.1.2, SVG Export Plug-In . SVG Version: 6.00 Build 0)  -->
<svg version="1.1" id="Layer_1" xmlns="http://www.w3.org/2000/svg" xmlns:xlink="http://www.w3.org/1999/xlink" x="0px" y="0px"
	 viewBox="0 0 48 48" style="enable-background:new 0 0 48 48;" xml:space="preserve">
<style type="text/css">
	.st0{fill:#FFFFFF;}
</style>
<g>
	<g>
		<path class="st0" d="M7,48H41c3.9,0,7-3.2,7-7V7c0-3.9-3.2-7-7-7H7C3.2,0,0,3.2,0,7V41C0,44.8,3.2,48,7,48z M7.2,3h33.6
			C43.1,3,45,4.9,45,7.2v33.6c0,2.3-1.9,4.2-4.2,4.2H7.2C4.9,45,3,43.1,3,40.8V7.2C3,4.9,4.9,3,7.2,3z"/>
		<path class="st0" d="M24,36.7c7,0,12.7-5.7,12.7-12.7S31,11.3,24,11.3S11.3,17,11.3,24S17,36.7,24,36.7z M24,14.2
			c5.4,0,9.8,4.4,9.8,9.8s-4.4,9.8-9.8,9.8s-9.8-4.4-9.8-9.8S18.6,14.2,24,14.2z"/>
		<path class="st0" d="M38.1,14.2c2.3,0,4.2-1.9,4.2-4.2s-1.9-4.2-4.2-4.2c-2.3,0-4.2,1.9-4.2,4.2S35.7,14.2,38.1,14.2z M38.1,8.5
			c0.8,0,1.4,0.6,1.4,1.4s-0.6,1.4-1.4,1.4c-0.8,0-1.4-0.6-1.4-1.4S37.3,8.5,38.1,8.5z"/>
	</g>
</g>
</svg>
