<?xml version="1.0" encoding="utf-8"?>
<!-- Generator: Adobe Illustrator 24.1.2, SVG Export Plug-In . SVG Version: 6.00 Build 0)  -->
<svg version="1.1" id="Layer_1" xmlns="http://www.w3.org/2000/svg" xmlns:xlink="http://www.w3.org/1999/xlink" x="0px" y="0px"
	 viewBox="0 0 48 48" style="enable-background:new 0 0 48 48;" xml:space="preserve">
<style type="text/css">
	.st0{fill:#FFFFFF;}
</style>
<path class="st0" d="M48,9.6c-3,0.1-3,0.1-3.3,0.2l1.8-5.1c0,0-5.6,2.1-7,2.4C35.8,3.7,30.3,3.6,26.3,6c-3.2,2-5,5.4-4.4,9.4
	c-6.3-0.9-11.6-3.9-15.8-8.9L4.8,4.9l-1,1.8C2.6,9,2.2,11.7,2.6,14.1c0.2,1,0.5,2,1,2.9l-1.1-0.4l-0.1,1.9c-0.1,1.9,0.5,4.2,1.7,6
	c0.3,0.5,0.8,1.1,1.3,1.6l-0.6-0.1l0.7,2.2c0.9,2.9,2.9,5.1,5.4,6.3c-2.5,1.1-4.6,1.8-7.9,2.9l-3.1,1L2.8,40
	c1.1,0.6,4.9,2.6,8.7,3.2c8.4,1.3,17.9,0.2,24.3-5.5c5.4-4.8,7.1-11.7,6.8-18.9c-0.1-1.1,0.2-2.1,0.8-2.9C44.6,14.2,48,9.6,48,9.6z
	 M41.2,14.2c-1,1.3-1.5,3-1.4,4.7c0.4,7.2-1.6,12.8-5.8,16.7c-5,4.5-13,6.2-22,4.8c-1.6-0.3-3.3-0.8-4.7-1.4c2.8-1,5-1.8,8.5-3.5
	l4.9-2.3l-5.4-0.3c-2.6-0.2-4.8-1.4-6.1-3.5c0.7,0,1.4-0.2,2.1-0.3l5.2-1.4l-5.2-1.3c-2.5-0.6-4-2.1-4.7-3.3c-0.5-0.8-0.8-1.5-1-2.3
	C6,20.8,6.6,20.9,7.6,21l4.8,0.5l-3.8-3c-2.8-2.1-3.9-5.4-3.1-8.5c8.6,8.9,18.7,8.3,19.7,8.5c-0.2-2.2-0.2-2.2-0.3-2.4
	c-1.3-4.6,1.6-6.9,2.8-7.7c2.7-1.7,7-1.9,9.9,0.8c0.6,0.6,1.5,0.8,2.3,0.6c0.7-0.2,1.3-0.4,1.9-0.6l-1.2,3.5l1.5,0
	C41.9,13.1,41.6,13.6,41.2,14.2z"/>
</svg>
