<?xml version="1.0" encoding="utf-8"?>
<!-- Generator: Adobe Illustrator 24.1.2, SVG Export Plug-In . SVG Version: 6.00 Build 0)  -->
<svg version="1.1" id="Layer_1" xmlns="http://www.w3.org/2000/svg" xmlns:xlink="http://www.w3.org/1999/xlink" x="0px" y="0px"
	 viewBox="0 0 1920 1907.3" style="enable-background:new 0 0 1920 1907.3;" xml:space="preserve">
<style type="text/css">
	.st0{fill:#2F1959;}
</style>
<path class="st0" d="M332.7,1821.7c38.9-48.9,42.1-101.1,23.9-157.7c-7.3-22.6-13-45.8-22.1-67.6
	c-47.1-112.7-95.3-224.8-141.9-337.6c-4.3-10.5-5.2-29.8,1.2-36.4c59.1-61.2,120.5-120.2,180.7-180.2
	c43.2-43.1,80.8-88.8,90.4-153.3c5.8-38.9,18.6-77.5,33.6-114.1c37.3-45.5,34.1-93,21.5-120.3c-2.1-4.4-4-11.2-11.1-12.9
	c-28.4-7-84.9-35.3-97.8-45c-52.2-39.2-76-68.7-64.6-137.7c17.8-107.3,3.1-233.8-24.2-338.9c-7.7-29.6-20.2-63.5-41.7-83.2
	c-13.8-12.5-27.6-24.8-41.5-37H4.2C81.8,78.1,125,171.6,175.3,260c-25.1,43-68.2,23.9-102.6,31.7c-23.3,5.4-47.9,5.3-72.7,7.1v373.5
	c21.4,39.7-9.8,88,19.7,147.1c1.9-36.6,26-43.2,27.9-42.3c13.7,6.9-12.2,88.3,85.5,164.4c-9.4-110.9,41.3-123.1,55.5-149.4
	c31.7,91.1-16.3,183.2-102.7,205.7c-28.1,7.3-56.1,15-85.9,23.2v431.1c9.1,20.9,24,53.8,44.1,99.2
	c90.2,150.3,145.6,172.1,144.6,190.8c-42.4-18.4-127.7,19-188.7,60.1v105.1C129.6,1884.2,307.3,1853.7,332.7,1821.7z"/>
</svg>
