<?xml version="1.0" encoding="utf-8"?>
<!-- Generator: Adobe Illustrator 22.1.0, SVG Export Plug-In . SVG Version: 6.00 Build 0)  -->
<svg version="1.1" id="Layer_1" xmlns="http://www.w3.org/2000/svg" xmlns:xlink="http://www.w3.org/1999/xlink" x="0px" y="0px"
	 viewBox="0 0 113.7 29" style="enable-background:new 0 0 113.7 29;" xml:space="preserve">
<style type="text/css">
	.st0{fill:#FFFFFF;}
</style>
<path class="st0" d="M12.2,0.6h5v1.7h-3.1v1h2.2v1.6h-2.2v1.3h3.3v1.7h-5.2V0.6z"/>
<path class="st0" d="M18.6,0.6h1.9v7.3h-1.9V0.6z"/>
<path class="st0" d="M28.4,0.6V8h-0.6l-3.9-3.8v3.7H22V0.5h0.6l3.9,3.8V0.6H28.4z"/>
<path class="st0" d="M29.9,0.6h5v1.7h-3.1v1H34v1.6h-2.2v1.3h3.3v1.7h-5.2V0.6z"/>
<path class="st0" d="M3,11.4h1.9v4.3c0,0.8,0.5,1.3,1.3,1.3s1.3-0.5,1.3-1.3v-4.3h1.9v4.2c0,1.9-1.4,3.2-3.2,3.2
	c-1.9,0-3.2-1.3-3.2-3.2V11.4z"/>
<path class="st0" d="M18.4,11.4v7.4h-0.6L13.8,15v3.7h-1.9v-7.4h0.6l3.9,3.8v-3.6H18.4z"/>
<path class="st0" d="M27.4,11.4l-3.3,7.4h-0.6l-3.3-7.4h2.1l1.5,3.6l1.5-3.6H27.4z"/>
<path class="st0" d="M29.3,11.4h5v1.7h-3.1v1h2.2v1.6h-2.2V17h3.3v1.7h-5.2V11.4z"/>
<path class="st0" d="M41,18.7l-1.6-2.3h-0.8v2.3h-1.9v-7.3h2.8c1.6,0,2.8,1,2.8,2.5c0,0.9-0.4,1.6-1.1,2.1l1.9,2.7H41z M38.6,14.8h1
	c0.5,0,0.9-0.3,0.9-0.9c0-0.5-0.3-0.8-0.9-0.8h-1V14.8z"/>
<path class="st0" d="M48.4,11.3c1.3,0,2.4,0.6,3.1,1.6L50.2,14c-0.5-0.7-1-1-1.8-1c-1.2,0-2,0.8-2,2c0,1.2,0.8,2.1,2.1,2.1
	c0.7,0,1.2-0.2,1.6-0.6v-0.3h-1.7v-1.6H52v2.3c-0.3,0.6-0.8,1.1-1.5,1.5c-0.6,0.4-1.3,0.5-2.1,0.5c-2.2,0-4-1.7-4-3.8
	C44.4,12.9,46.2,11.2,48.4,11.3z"/>
<path class="st0" d="M54.1,11.4h5v1.7H56v1h2.2v1.6H56V17h3.3v1.7h-5.2V11.4z"/>
<path class="st0" d="M62.4,16.2c0.4,0.6,0.9,0.9,1.6,0.9c0.5,0,0.7-0.2,0.7-0.5c0-0.3-0.2-0.4-0.7-0.7l-0.7-0.3
	c-1.2-0.5-1.8-1.2-1.8-2.2c0-1.3,1.1-2.1,2.5-2.1c1.2,0,2,0.6,2.5,1.5l-1.3,1c-0.4-0.5-0.7-0.8-1.2-0.8c-0.4,0-0.6,0.2-0.6,0.5
	c0,0.3,0.2,0.4,0.6,0.6l0.8,0.4c1.3,0.5,1.9,1.2,1.9,2.2c0,1.4-1.2,2.3-2.7,2.3c-1.3,0-2.4-0.6-2.9-1.6L62.4,16.2z"/>
<path class="st0" d="M69.6,16.2c0.4,0.6,0.9,0.9,1.6,0.9c0.5,0,0.7-0.2,0.7-0.5c0-0.3-0.2-0.4-0.7-0.7l-0.7-0.3
	c-1.2-0.5-1.8-1.2-1.8-2.2c0-1.3,1.1-2.1,2.5-2.1c1.2,0,2,0.6,2.5,1.5l-1.3,1c-0.4-0.5-0.7-0.8-1.2-0.8c-0.4,0-0.6,0.2-0.6,0.5
	c0,0.3,0.2,0.4,0.6,0.6l0.8,0.4c1.3,0.5,1.9,1.2,1.9,2.2c0,1.4-1.2,2.3-2.7,2.3c-1.3,0-2.4-0.6-2.9-1.6L69.6,16.2z"/>
<path class="st0" d="M76.1,11.4h1.9V17h3v1.7h-4.9V11.4z"/>
<path class="st0" d="M83,11.4h1.9v7.3H83V11.4z"/>
<path class="st0" d="M91,11.3c1.5,0,2.7,0.7,3.3,1.9l-1.4,1C92.4,13.4,91.8,13,91,13c-1.2,0-2,0.8-2,2c0,0.6,0.2,1.1,0.6,1.5
	c0.4,0.4,0.8,0.5,1.4,0.5c0.8,0,1.4-0.4,1.9-1.2l1.4,1c-0.7,1.2-1.9,1.9-3.3,1.9c-2.1,0-4-1.7-3.9-3.8C87.1,13,88.9,11.2,91,11.3z"
	/>
<path class="st0" d="M96.5,11.4h1.9v2.7h2.7v-2.7h1.9v7.3h-1.9v-2.9h-2.7v2.9h-1.9V11.4z"/>
<path class="st0" d="M105.5,11.4h5v1.7h-3.1v1h2.2v1.6h-2.2V17h3.3v1.7h-5.2V11.4z"/>
<path class="st0" d="M16,28.4l-1.6-2.3h-0.8v2.3h-1.9v-7.3h2.8c1.6,0,2.8,1,2.8,2.5c0,0.9-0.4,1.6-1.1,2.1l1.9,2.7H16z M13.6,24.5h1
	c0.5,0,0.9-0.3,0.9-0.9c0-0.5-0.3-0.8-0.9-0.8h-1V24.5z"/>
<path class="st0" d="M18.9,21.1h5v1.7h-3.1v1h2.2v1.6h-2.2v1.3h3.3v1.7h-5.2V21.1z"/>
<path class="st0" d="M25.3,21.1h1.9v7.3h-1.9V21.1z"/>
<path class="st0" d="M29.5,25.9c0.4,0.6,0.9,0.9,1.6,0.9c0.5,0,0.7-0.2,0.7-0.5c0-0.3-0.2-0.4-0.7-0.7l-0.7-0.3
	c-1.2-0.5-1.8-1.2-1.8-2.2c0-1.3,1.1-2.1,2.5-2.1c1.2,0,2,0.6,2.5,1.5l-1.3,1c-0.4-0.5-0.7-0.8-1.2-0.8c-0.4,0-0.6,0.2-0.6,0.5
	c0,0.3,0.2,0.4,0.6,0.6l0.8,0.4c1.3,0.5,1.9,1.2,1.9,2.2c0,1.4-1.2,2.3-2.7,2.3c-1.3,0-2.4-0.6-2.9-1.6L29.5,25.9z"/>
<path class="st0" d="M34.9,21.1h5v1.7h-3.1v1H39v1.6h-2.2v1.3h3.3v1.7h-5.2V21.1z"/>
</svg>
