<?xml version="1.0" encoding="utf-8"?>
<!-- Generator: Adobe Illustrator 22.1.0, SVG Export Plug-In . SVG Version: 6.00 Build 0)  -->
<svg version="1.1" id="Layer_1" xmlns="http://www.w3.org/2000/svg" xmlns:xlink="http://www.w3.org/1999/xlink" x="0px" y="0px"
	 viewBox="0 0 113.7 30" style="enable-background:new 0 0 113.7 30;" xml:space="preserve">
<style type="text/css">
	.st0{fill:#FFFAFA;}
</style>
<path class="st0" d="M11.9,1.1h5v1.7h-3.1v1h2.2v1.6h-2.2v1.3h3.3v1.7h-5.2V1.1z"/>
<path class="st0" d="M18.3,1.1h1.9v7.3h-1.9V1.1z"/>
<path class="st0" d="M28.1,1.1v7.4h-0.6l-3.9-3.8v3.7h-1.9V1h0.6l3.9,3.8V1.1H28.1z"/>
<path class="st0" d="M29.6,1.1h5v1.7h-3.1v1h2.2v1.6h-2.2v1.3h3.3v1.7h-5.2V1.1z"/>
<path class="st0" d="M3,11.9h1.9v4.3c0,0.8,0.5,1.3,1.3,1.3s1.3-0.5,1.3-1.3v-4.3h1.9v4.2c0,1.9-1.4,3.2-3.2,3.2
	C4.4,19.3,3,18,3,16.1V11.9z"/>
<path class="st0" d="M18.4,11.9v7.4h-0.6l-3.9-3.8v3.7h-1.9v-7.4h0.6l3.9,3.8v-3.6H18.4z"/>
<path class="st0" d="M27.4,11.9l-3.3,7.4h-0.6l-3.3-7.4h2.1l1.5,3.6l1.5-3.6H27.4z"/>
<path class="st0" d="M29.3,11.9h5v1.7h-3.1v1h2.2v1.6h-2.2v1.3h3.3v1.7h-5.2V11.9z"/>
<path class="st0" d="M41,19.2l-1.6-2.3h-0.8v2.3h-1.9v-7.3h2.8c1.6,0,2.8,1,2.8,2.5c0,0.9-0.4,1.6-1.1,2.1l1.9,2.7H41z M38.6,15.3h1
	c0.5,0,0.9-0.3,0.9-0.9c0-0.5-0.3-0.8-0.9-0.8h-1V15.3z"/>
<path class="st0" d="M48.4,11.8c1.3,0,2.4,0.6,3.1,1.6l-1.3,1.1c-0.5-0.7-1-1-1.8-1c-1.2,0-2,0.8-2,2c0,1.2,0.8,2.1,2.1,2.1
	c0.7,0,1.2-0.2,1.6-0.6v-0.3h-1.7V15H52v2.3c-0.3,0.6-0.8,1.1-1.5,1.5c-0.6,0.4-1.3,0.5-2.1,0.5c-2.2,0-4-1.7-4-3.8
	C44.4,13.4,46.2,11.7,48.4,11.8z"/>
<path class="st0" d="M54.1,11.9h5v1.7H56v1h2.2v1.6H56v1.3h3.3v1.7h-5.2V11.9z"/>
<path class="st0" d="M62.4,16.7c0.4,0.6,0.9,0.9,1.6,0.9c0.5,0,0.7-0.2,0.7-0.5c0-0.3-0.2-0.4-0.7-0.7l-0.7-0.3
	c-1.2-0.5-1.8-1.2-1.8-2.2c0-1.3,1.1-2.1,2.5-2.1c1.2,0,2,0.6,2.5,1.5l-1.3,1c-0.4-0.5-0.7-0.8-1.2-0.8c-0.4,0-0.6,0.2-0.6,0.5
	c0,0.3,0.2,0.4,0.6,0.6l0.8,0.4c1.3,0.5,1.9,1.2,1.9,2.2c0,1.4-1.2,2.3-2.7,2.3c-1.3,0-2.4-0.6-2.9-1.6L62.4,16.7z"/>
<path class="st0" d="M69.6,16.7c0.4,0.6,0.9,0.9,1.6,0.9c0.5,0,0.7-0.2,0.7-0.5c0-0.3-0.2-0.4-0.7-0.7l-0.7-0.3
	c-1.2-0.5-1.8-1.2-1.8-2.2c0-1.3,1.1-2.1,2.5-2.1c1.2,0,2,0.6,2.5,1.5l-1.3,1c-0.4-0.5-0.7-0.8-1.2-0.8c-0.4,0-0.6,0.2-0.6,0.5
	c0,0.3,0.2,0.4,0.6,0.6l0.8,0.4c1.3,0.5,1.9,1.2,1.9,2.2c0,1.4-1.2,2.3-2.7,2.3c-1.3,0-2.4-0.6-2.9-1.6L69.6,16.7z"/>
<path class="st0" d="M76.1,11.9h1.9v5.6h3v1.7h-4.9V11.9z"/>
<path class="st0" d="M83,11.9h1.9v7.3H83V11.9z"/>
<path class="st0" d="M91,11.8c1.5,0,2.7,0.7,3.3,1.9l-1.4,1c-0.5-0.8-1.1-1.2-1.9-1.2c-1.2,0-2,0.8-2,2c0,0.6,0.2,1.1,0.6,1.5
	c0.4,0.4,0.8,0.5,1.4,0.5c0.8,0,1.4-0.4,1.9-1.2l1.4,1c-0.7,1.2-1.9,1.9-3.3,1.9c-2.1,0-4-1.7-3.9-3.8C87.1,13.5,88.9,11.7,91,11.8z
	"/>
<path class="st0" d="M96.5,11.9h1.9v2.7h2.7v-2.7h1.9v7.3h-1.9v-2.9h-2.7v2.9h-1.9V11.9z"/>
<path class="st0" d="M105.5,11.9h5v1.7h-3.1v1h2.2v1.6h-2.2v1.3h3.3v1.7h-5.2V11.9z"/>
<path class="st0" d="M16.2,29.8l-1.6-2.3h-0.8v2.3h-1.9v-7.3h2.8c1.6,0,2.8,1,2.8,2.5c0,0.9-0.4,1.6-1.1,2.1l1.9,2.7H16.2z
	 M13.8,25.9h1c0.5,0,0.9-0.3,0.9-0.9c0-0.5-0.3-0.8-0.9-0.8h-1V25.9z"/>
<path class="st0" d="M19.1,22.5h5v1.7H21v1h2.2v1.6H21v1.3h3.3v1.7h-5.2V22.5z"/>
<path class="st0" d="M25.5,22.5h1.9v7.3h-1.9V22.5z"/>
<path class="st0" d="M29.7,27.3c0.4,0.6,0.9,0.9,1.6,0.9c0.5,0,0.7-0.2,0.7-0.5c0-0.3-0.2-0.4-0.7-0.7l-0.7-0.3
	c-1.2-0.5-1.8-1.2-1.8-2.2c0-1.3,1.1-2.1,2.5-2.1c1.2,0,2,0.6,2.5,1.5l-1.3,1c-0.4-0.5-0.7-0.8-1.2-0.8c-0.4,0-0.6,0.2-0.6,0.5
	c0,0.3,0.2,0.4,0.6,0.6l0.8,0.4c1.3,0.5,1.9,1.2,1.9,2.2c0,1.4-1.2,2.3-2.7,2.3c-1.3,0-2.4-0.6-2.9-1.6L29.7,27.3z"/>
<path class="st0" d="M35.1,22.5h5v1.7H37v1h2.2v1.6H37v1.3h3.3v1.7h-5.2V22.5z"/>
</svg>
