<?xml version="1.0" encoding="utf-8"?>
<!-- Generator: Adobe Illustrator 24.1.2, SVG Export Plug-In . SVG Version: 6.00 Build 0)  -->
<svg version="1.1" id="Layer_1" xmlns="http://www.w3.org/2000/svg" xmlns:xlink="http://www.w3.org/1999/xlink" x="0px" y="0px"
	 viewBox="0 0 803.3 2066.6" style="enable-background:new 0 0 803.3 2066.6;" xml:space="preserve">
<style type="text/css">
	.st0{fill:#150A28;}
</style>
<path class="st0" d="M665.9,1656.7c111.7-97.5,129-215.9,114.9-324.2c-3.8-29.2-18.1-71.7-17.3-101.9c26.6-36.2,46-77.6,38-116.5
	c-9.2-44.6-51.2-86.6-102.9-125.7C618.8,927.9,583,854.6,586.7,748.6c5-141.4-11.5-283.6-22-425.3c-4.8-64.6-39.2-111.4-99.1-141.9
	c-106-54-212-108.6-314.1-169.4c-6.8-4-13.7-8-20.8-12H0v86.5c119.4,14.7,197.4,92.9,288,162.2c-122.7,53.3-167.5,148-186,269.2
	c-18.6,121.9-23.7,239.8,10.9,358.9c3.9,13.3-3.9,35.7-14.2,46.3c-29.3,30.3-62.2,57-98.7,89.2v301.2c9-21.4,22.1-41.2,39.4-57.5
	c86.3-81.8,91.6-86.9,175.6,0.8c51.7,54,94.4,122.3,122.9,191.6c38.9,94.6-0.9,171.6-102.2,238.7
	c-67.9-58.6-132.6-111.6-194.1-168.1c-18.5-16.9-32.3-37.4-41.6-59.7v175.4c43,24.9,80.9,44.9,115.8,69.1
	c10.2,7.1,13.2,27.7,15,42.6c1.3,10.8-3.7,22.9-8,33.6c-38,95.1-44.7,188.6-25.1,286.6C225.3,1825,429.1,1863.4,665.9,1656.7z"/>
</svg>
