<?xml version="1.0" encoding="utf-8"?>
<!-- Generator: Adobe Illustrator 24.1.2, SVG Export Plug-In . SVG Version: 6.00 Build 0)  -->
<svg version="1.1" id="Layer_1" xmlns="http://www.w3.org/2000/svg" xmlns:xlink="http://www.w3.org/1999/xlink" x="0px" y="0px"
	 viewBox="0 0 567.2 1768.2" style="enable-background:new 0 0 567.2 1768.2;" xml:space="preserve">
<style type="text/css">
	.st0{fill:#2F1959;}
</style>
<path class="st0" d="M567.2,1631c-21.2-32.4-39-67.2-56.4-102.2c-7.1-14.3-7.3-32-13-59.2c20.4,22.6,16.4,42.6,46.4,58.6
	c-15.4-13.3-4-38-16-60c12.5,4.2,25.6,8.8,39,13.5v-264.4c-34.5-22.3-73.9-34.4-115.4-35.6c-44.1-1.2-57.2-16-63.9-50.5
	c-5.1-26-11.1-52.5-11.1-78.8c-0.4-136.8,12.9-152.4,146.5-182c14.6-3.2,29.4-6.1,44.1-9.2V0C519,52.3,470,104,421.6,156
	c-9.4,10.1-20.9,19-32.9,26c-54.3,31.8-64.5,47.1-52.6,109.8c13.6,71.8,28.9,143.7,50.1,213.5c20.7,68,9.4,131.3-15,193.7
	c-4.8,12.3-24.4,20.8-38.9,26.9c-41.3,17.4-85.6,28.6-124.7,49.6c-59.6,32-82.7,92.5-106.5,152c-9.5,23.8-19.3,53.9-42,65.8
	c-65,34-68,107.4-49,145c23,12,72.2,16.9,96,38c84.1,74.5,91.5,142.4,133.5,245.8c25.2,62.1,63.7,118.8,96.6,177.8
	c36.2,64.8,95.6,99.9,161,129.8c24.1,11,47.1,24.6,69.8,38.7V1631z M563.7,225.4c-16.4,38.5-28.4,66.5-42.1,98.8
	c-15.3-17.7-26.9-30.9-40.1-46.2C507.6,261.3,530.8,246.5,563.7,225.4z"/>
</svg>
