<?xml version="1.0" standalone="no"?>
<!DOCTYPE svg PUBLIC "-//W3C//DTD SVG 20010904//EN"
 "http://www.w3.org/TR/2001/REC-SVG-20010904/DTD/svg10.dtd">
<svg version="1.0" xmlns="http://www.w3.org/2000/svg"
 width="300.000000pt" height="300.000000pt" viewBox="0 0 240.000000 240.000000"
 preserveAspectRatio="xMidYMid meet">

<g transform="translate(0.000000,240.000000) scale(0.100000,-0.100000)"
fill="#000000" stroke="30">
<path d="M1135 2079 c-16 -5 -68 -10 -114 -11 l-83 -2 24 -21 25 -22 -33 -35
c-40 -44 -56 -100 -53 -179 2 -35 -2 -64 -9 -71 -24 -24 -4 -156 31 -196 8
-10 22 -42 31 -72 79 -253 318 -307 443 -100 18 29 40 76 49 104 9 28 23 58
31 68 34 38 56 171 32 195 -5 5 -11 49 -12 96 -2 80 -4 88 -31 116 -16 16 -34
40 -40 53 -14 28 -68 65 -115 78 -44 12 -135 12 -176 -1z m108 -189 c20 -11
53 -20 73 -20 19 0 44 -5 56 -11 24 -13 57 -83 58 -122 0 -25 2 -27 21 -17 26
15 49 -3 49 -38 0 -41 -22 -102 -44 -120 -13 -10 -28 -45 -39 -87 -33 -129
-110 -200 -217 -200 -108 0 -194 81 -220 207 -9 42 -21 69 -35 80 -24 19 -49
92 -43 129 2 20 9 24 35 24 31 0 33 2 39 43 18 122 157 191 267 132z"/>
<path d="M945 1223 c-22 -8 -80 -27 -130 -42 -202 -62 -224 -95 -207 -311 l7
-94 59 -48 c118 -94 276 -160 433 -180 210 -27 448 43 619 180 l59 48 7 89 c8
104 2 178 -19 218 -9 19 -35 38 -76 58 -34 16 -67 29 -73 29 -6 0 -59 16 -118
36 -59 20 -109 34 -111 32 -1 -1 -14 -46 -29 -98 -14 -52 -41 -140 -59 -195
l-34 -99 -16 67 c-17 64 -16 69 3 139 24 86 23 73 4 92 -21 21 -107 21 -128 0
-19 -19 -20 -6 4 -92 19 -69 19 -75 4 -138 -17 -65 -17 -66 -29 -38 -14 34
-79 249 -96 317 -12 51 -15 53 -74 30z"/>
</g>
</svg>
