<?xml version="1.0" encoding="utf-8"?>
<!-- Generator: Adobe Illustrator 24.1.2, SVG Export Plug-In . SVG Version: 6.00 Build 0)  -->
<svg version="1.1" id="Layer_1" xmlns="http://www.w3.org/2000/svg" xmlns:xlink="http://www.w3.org/1999/xlink" x="0px" y="0px"
	 viewBox="0 0 23 36" style="enable-background:new 0 0 23 36;" xml:space="preserve">
<style type="text/css">
	.st0{fill:#0E33C9;}
</style>
<g>
	<path class="st0" d="M16.8,0H6.3C2.8,0,0,2.8,0,6.3v18.3C0,30.8,5.2,36,11.5,36S23,30.8,23,24.5V6.3C23,2.8,20.2,0,16.8,0z
		 M21,24.5c0,5.2-4.3,9.5-9.5,9.5S2,29.7,2,24.5V6.3C2,3.9,3.9,2,6.3,2h10.5C19.1,2,21,3.9,21,6.3V24.5z"/>
	<path class="st0" d="M11.5,6c-0.6,0-1,0.4-1,1v8c0,0.6,0.4,1,1,1s1-0.4,1-1V7C12.5,6.4,12.1,6,11.5,6z"/>
</g>
</svg>
