<?xml version="1.0" encoding="utf-8"?>
<!-- Generator: Adobe Illustrator 24.1.2, SVG Export Plug-In . SVG Version: 6.00 Build 0)  -->
<svg version="1.1" id="Layer_1" xmlns="http://www.w3.org/2000/svg" xmlns:xlink="http://www.w3.org/1999/xlink" x="0px" y="0px"
	 viewBox="0 0 111.8 133.9" style="enable-background:new 0 0 111.8 133.9;" xml:space="preserve">
<style type="text/css">
	.st0{fill:#FFFFFF;}
</style>
<g>
	<path class="st0" d="M18.3,80.9h-5.1c-0.2,0-0.4,0-0.6,0.1c-0.2,0-0.4,0.1-0.6,0.3L1.2,89.6c-0.3,0.2-0.5,0.4-0.5,0.8
		c0,0.3,0,0.6,0.2,0.9l2.4,3.2c0.2,0.3,0.5,0.5,0.8,0.5c0.3,0,0.6,0,0.9-0.2l6.9-5.4v23.8c0,0.4,0.1,0.6,0.4,0.9
		c0.2,0.2,0.5,0.3,0.8,0.3h5.3c0.4,0,0.6-0.1,0.9-0.3c0.2-0.2,0.3-0.5,0.3-0.9V82.1c0-0.4-0.1-0.6-0.3-0.9
		C18.9,81,18.7,80.9,18.3,80.9z"/>
	<path class="st0" d="M47,80.9H25.3c-0.3,0-0.6,0.1-0.8,0.3c-0.2,0.2-0.4,0.5-0.4,0.9v4.1c0,0.4,0.1,0.6,0.4,0.9
		c0.2,0.2,0.5,0.3,0.8,0.3H40l-11.3,25.5c-0.1,0.2-0.1,0.3-0.1,0.4c0,0.3,0.1,0.5,0.3,0.7c0.2,0.2,0.4,0.3,0.7,0.3h5.3
		c0.5,0,0.8-0.1,1.1-0.4c0.2-0.3,0.4-0.5,0.6-0.7l11.2-25.4c0.1-0.3,0.2-0.6,0.3-1c0.1-0.3,0.1-0.7,0.1-1.2v-3.6
		c0-0.4-0.1-0.6-0.3-0.9C47.6,81,47.4,80.9,47,80.9z"/>
	<path class="st0" d="M77.7,88.1c-0.6-1.5-1.4-2.9-2.5-4c-1.1-1.1-2.4-2-4.1-2.7c-1.6-0.7-3.6-1-5.8-1c-2.2,0-4.2,0.3-5.8,1
		c-1.6,0.7-3,1.6-4.1,2.7c-1.1,1.1-1.9,2.5-2.5,4c-0.6,1.5-0.9,3.2-0.9,4.9c0,0.9-0.1,1.9-0.1,3c0,1.1,0,2.2,0,3.2
		c0,1.1,0,2,0.1,2.9c0.1,1.8,0.4,3.4,0.9,5c0.5,1.5,1.3,2.9,2.4,4.1c1.1,1.2,2.4,2.1,4.1,2.7c1.6,0.7,3.6,1,5.9,1
		c2.3,0,4.2-0.3,5.9-1c1.6-0.7,3-1.6,4.1-2.7c1.1-1.2,1.9-2.5,2.4-4.1c0.5-1.5,0.9-3.2,1-5c0-0.9,0.1-1.8,0.1-2.9c0-1.1,0-2.1,0-3.2
		c0-1.1,0-2.1-0.1-3C78.6,91.3,78.3,89.6,77.7,88.1z M70.9,99c0,1,0,1.9-0.1,2.9c0,2.1-0.5,3.7-1.3,4.9c-0.9,1.2-2.2,1.8-4.1,1.8
		c-1.8,0-3.2-0.6-4-1.8c-0.9-1.2-1.3-2.9-1.4-4.9c0-0.9,0-1.9,0-2.9c0-1,0-2,0-3c0-1,0-1.9,0-2.8c0.1-2,0.5-3.6,1.4-4.8
		s2.2-1.9,4.1-1.9s3.2,0.6,4.1,1.9c0.9,1.2,1.3,2.9,1.3,4.8c0.1,0.9,0.1,1.8,0.1,2.8C70.9,97,70.9,98,70.9,99z"/>
	<path class="st0" d="M111.1,106.8h-1.9c-0.2,0-0.4,0.1-0.5,0.2c-0.1,0.1-0.3,0.3-0.4,0.6c-0.4,1.5-1.1,2.6-2.2,3.2
		c-1.1,0.6-2.5,0.9-4.1,0.9c-1.9,0-3.4-0.5-4.5-1.7c-0.9-0.9-1.4-2.3-1.6-4.1h6.9c0.2,0,0.4-0.1,0.6-0.2s0.2-0.3,0.2-0.6V104
		c0-0.2-0.1-0.4-0.2-0.6c-0.2-0.2-0.3-0.2-0.6-0.2h-7V101h7c0.2,0,0.4-0.1,0.6-0.2c0.2-0.2,0.2-0.3,0.2-0.6V99
		c0-0.2-0.1-0.4-0.2-0.6s-0.3-0.2-0.6-0.2h-6.9c0.2-1.8,0.7-3.2,1.6-4.1c1.1-1.1,2.6-1.6,4.5-1.6c1.6,0,3,0.3,4.1,0.9
		c1.1,0.6,1.8,1.7,2.2,3.2c0.1,0.3,0.2,0.5,0.4,0.6c0.1,0.1,0.3,0.2,0.5,0.2h1.9c0.2,0,0.4-0.1,0.5-0.2s0.2-0.3,0.2-0.5
		c0-0.9-0.2-1.7-0.7-2.6c-0.4-0.9-1-1.6-1.8-2.3c-0.8-0.7-1.8-1.2-3.1-1.7c-1.2-0.4-2.7-0.6-4.3-0.6c-2.2,0-4,0.4-5.4,1.2
		c-1.4,0.8-2.5,2-3.2,3.4c-0.6,1.2-0.9,2.6-1.1,4.1H90c-0.2,0-0.4,0.1-0.6,0.2s-0.2,0.3-0.2,0.6v1.2c0,0.2,0.1,0.4,0.2,0.6
		c0.2,0.2,0.3,0.2,0.6,0.2h2.2v2.1H90c-0.2,0-0.4,0.1-0.6,0.2c-0.2,0.2-0.2,0.3-0.2,0.6v1.2c0,0.2,0.1,0.4,0.2,0.6s0.3,0.2,0.6,0.2
		h2.3c0.1,1.5,0.5,2.8,1,4c0.7,1.5,1.8,2.6,3.2,3.4c1.4,0.8,3.2,1.2,5.4,1.2c1.6,0,3.1-0.2,4.3-0.6c1.2-0.4,2.2-1,3.1-1.7
		c0.8-0.7,1.4-1.5,1.8-2.3c0.4-0.9,0.6-1.7,0.7-2.6c0-0.2,0-0.4-0.2-0.5S111.3,106.8,111.1,106.8z"/>
	<path class="st0" d="M6.5,126.6c-0.1-0.4-0.3-0.7-0.5-1s-0.5-0.5-0.8-0.7c-0.3-0.2-0.7-0.2-1.2-0.2c-0.5,0-0.9,0.1-1.3,0.3
		s-0.6,0.4-0.8,0.7v-0.6c0-0.1,0-0.2-0.1-0.2c-0.1-0.1-0.1-0.1-0.2-0.1H1c-0.1,0-0.2,0-0.2,0.1c-0.1,0.1-0.1,0.1-0.1,0.2v8.4
		c0,0.1,0,0.2,0.1,0.2c0.1,0.1,0.1,0.1,0.2,0.1h0.6c0.1,0,0.2,0,0.2-0.1c0.1-0.1,0.1-0.1,0.1-0.2v-2.9c0.2,0.3,0.5,0.5,0.8,0.7
		c0.3,0.2,0.7,0.3,1.2,0.3c0.5,0,0.9-0.1,1.2-0.2c0.3-0.2,0.6-0.4,0.8-0.7s0.4-0.6,0.5-1c0.1-0.4,0.2-0.7,0.2-1.1c0-0.1,0-0.3,0-0.4
		c0-0.2,0-0.3,0-0.4C6.7,127.3,6.6,126.9,6.5,126.6z M5.5,128.5c0,0.4-0.1,0.7-0.2,1c-0.1,0.3-0.3,0.6-0.5,0.7
		c-0.2,0.2-0.6,0.3-1,0.3c-0.4,0-0.7-0.1-1-0.3c-0.3-0.2-0.5-0.4-0.6-0.7c-0.1-0.3-0.2-0.6-0.2-0.9c0-0.1,0-0.3,0-0.5s0-0.3,0-0.5
		c0-0.3,0.1-0.6,0.2-0.9c0.1-0.3,0.3-0.5,0.6-0.7c0.3-0.2,0.6-0.3,1-0.3c0.4,0,0.8,0.1,1,0.3c0.2,0.2,0.4,0.4,0.5,0.7
		c0.1,0.3,0.2,0.6,0.2,1C5.5,128,5.5,128.3,5.5,128.5z"/>
	<path class="st0" d="M12.5,125.1c-0.4-0.3-1-0.4-1.6-0.4c-0.6,0-1.1,0.1-1.5,0.4c-0.4,0.2-0.8,0.6-1,1c-0.2,0.5-0.4,1-0.4,1.6
		c0,0.1,0,0.3,0,0.4c0,0.2,0,0.3,0,0.4c0.1,0.9,0.3,1.7,0.8,2.2c0.5,0.5,1.2,0.8,2.1,0.8c0.4,0,0.8-0.1,1.2-0.2
		c0.3-0.1,0.6-0.3,0.9-0.4s0.4-0.4,0.5-0.5c0.1-0.2,0.2-0.3,0.2-0.5c0-0.1,0-0.1-0.1-0.2c-0.1,0-0.1-0.1-0.2-0.1h-0.6
		c-0.1,0-0.2,0-0.2,0c0,0-0.1,0.1-0.2,0.2c0,0.1-0.1,0.2-0.3,0.3c-0.1,0.1-0.3,0.2-0.5,0.3c-0.2,0.1-0.5,0.1-0.8,0.1
		c-0.3,0-0.6-0.1-0.9-0.3s-0.5-0.4-0.6-0.7c-0.1-0.3-0.2-0.6-0.2-1c0,0,0,0,0-0.1s0,0,0-0.1h4.4c0.1,0,0.2,0,0.2-0.1
		c0.1,0,0.1-0.1,0.1-0.2v-0.2c0-0.7-0.1-1.3-0.3-1.7C13.3,125.8,13,125.4,12.5,125.1z M12.7,127.7H9.2v0c0-0.4,0.1-0.7,0.2-1
		c0.1-0.3,0.3-0.5,0.6-0.7c0.3-0.2,0.6-0.3,0.9-0.3s0.7,0.1,0.9,0.3c0.3,0.2,0.5,0.4,0.6,0.7C12.6,126.9,12.7,127.3,12.7,127.7
		L12.7,127.7z"/>
	<path class="st0" d="M18.8,124.9h-0.5c-0.4,0-0.8,0.1-1.1,0.2s-0.5,0.4-0.7,0.6v-0.6c0-0.1,0-0.2-0.1-0.2c-0.1-0.1-0.1-0.1-0.2-0.1
		h-0.6c-0.1,0-0.2,0-0.2,0.1c-0.1,0.1-0.1,0.1-0.1,0.2v6c0,0.1,0,0.2,0.1,0.2c0.1,0.1,0.1,0.1,0.2,0.1h0.6c0.1,0,0.2,0,0.2-0.1
		c0.1-0.1,0.1-0.1,0.1-0.2v-3.7c0-0.5,0.1-0.8,0.4-1.1c0.3-0.3,0.6-0.4,1.1-0.4h0.8c0.1,0,0.2,0,0.2-0.1c0.1-0.1,0.1-0.1,0.1-0.2
		v-0.5c0-0.1,0-0.2-0.1-0.2C19,124.9,18.9,124.9,18.8,124.9z"/>
	<path class="st0" d="M28.8,126.6c-0.1-0.4-0.3-0.7-0.5-1c-0.2-0.3-0.5-0.5-0.8-0.7c-0.3-0.2-0.7-0.2-1.2-0.2
		c-0.5,0-0.9,0.1-1.3,0.3s-0.6,0.4-0.8,0.7v-0.6c0-0.1,0-0.2-0.1-0.2c-0.1-0.1-0.1-0.1-0.2-0.1h-0.6c-0.1,0-0.2,0-0.2,0.1
		c-0.1,0.1-0.1,0.1-0.1,0.2v8.4c0,0.1,0,0.2,0.1,0.2s0.1,0.1,0.2,0.1h0.6c0.1,0,0.2,0,0.2-0.1s0.1-0.1,0.1-0.2v-2.9
		c0.2,0.3,0.5,0.5,0.8,0.7c0.3,0.2,0.7,0.3,1.2,0.3c0.5,0,0.9-0.1,1.2-0.2c0.3-0.2,0.6-0.4,0.8-0.7c0.2-0.3,0.4-0.6,0.5-1
		c0.1-0.4,0.2-0.7,0.2-1.1c0-0.1,0-0.3,0-0.4c0-0.2,0-0.3,0-0.4C29,127.3,28.9,126.9,28.8,126.6z M27.8,128.5c0,0.4-0.1,0.7-0.2,1
		c-0.1,0.3-0.3,0.6-0.5,0.7c-0.2,0.2-0.6,0.3-1,0.3c-0.4,0-0.7-0.1-1-0.3c-0.3-0.2-0.5-0.4-0.6-0.7c-0.1-0.3-0.2-0.6-0.2-0.9
		c0-0.1,0-0.3,0-0.5s0-0.3,0-0.5c0-0.3,0.1-0.6,0.2-0.9c0.1-0.3,0.3-0.5,0.6-0.7c0.3-0.2,0.6-0.3,1-0.3c0.4,0,0.8,0.1,1,0.3
		s0.4,0.4,0.5,0.7c0.1,0.3,0.2,0.6,0.2,1C27.8,128,27.8,128.3,27.8,128.5z"/>
	<path class="st0" d="M34.8,125.1c-0.4-0.3-1-0.4-1.6-0.4c-0.6,0-1.1,0.1-1.5,0.4s-0.8,0.6-1,1s-0.4,1-0.4,1.6c0,0.1,0,0.3,0,0.4
		c0,0.2,0,0.3,0,0.4c0.1,0.9,0.3,1.7,0.8,2.2c0.5,0.5,1.2,0.8,2.1,0.8c0.4,0,0.8-0.1,1.2-0.2c0.3-0.1,0.6-0.3,0.9-0.4
		c0.2-0.2,0.4-0.4,0.5-0.5c0.1-0.2,0.2-0.3,0.2-0.5c0-0.1,0-0.1-0.1-0.2c-0.1,0-0.1-0.1-0.2-0.1h-0.6c-0.1,0-0.2,0-0.2,0
		c0,0-0.1,0.1-0.2,0.2c0,0.1-0.1,0.2-0.3,0.3c-0.1,0.1-0.3,0.2-0.5,0.3c-0.2,0.1-0.5,0.1-0.8,0.1c-0.3,0-0.6-0.1-0.9-0.3
		s-0.5-0.4-0.6-0.7c-0.1-0.3-0.2-0.6-0.2-1c0,0,0,0,0-0.1s0,0,0-0.1h4.4c0.1,0,0.2,0,0.2-0.1c0.1,0,0.1-0.1,0.1-0.2v-0.2
		c0-0.7-0.1-1.3-0.3-1.7C35.6,125.8,35.2,125.4,34.8,125.1z M34.9,127.7h-3.5v0c0-0.4,0.1-0.7,0.2-1c0.1-0.3,0.3-0.5,0.6-0.7
		c0.3-0.2,0.6-0.3,0.9-0.3c0.4,0,0.7,0.1,0.9,0.3c0.3,0.2,0.5,0.4,0.6,0.7C34.9,126.9,34.9,127.3,34.9,127.7L34.9,127.7z"/>
	<path class="st0" d="M41.1,124.9h-0.5c-0.4,0-0.8,0.1-1.1,0.2c-0.3,0.1-0.5,0.4-0.7,0.6v-0.6c0-0.1,0-0.2-0.1-0.2
		c-0.1-0.1-0.1-0.1-0.2-0.1H38c-0.1,0-0.2,0-0.2,0.1c-0.1,0.1-0.1,0.1-0.1,0.2v6c0,0.1,0,0.2,0.1,0.2c0.1,0.1,0.1,0.1,0.2,0.1h0.6
		c0.1,0,0.2,0,0.2-0.1c0.1-0.1,0.1-0.1,0.1-0.2v-3.7c0-0.5,0.1-0.8,0.4-1.1c0.3-0.3,0.6-0.4,1.1-0.4h0.8c0.1,0,0.2,0,0.2-0.1
		c0.1-0.1,0.1-0.1,0.1-0.2v-0.5c0-0.1,0-0.2-0.1-0.2C41.3,124.9,41.2,124.9,41.1,124.9z"/>
	<path class="st0" d="M46.6,128.2c-0.3-0.2-0.8-0.3-1.3-0.4c-0.5-0.1-0.9-0.2-1.2-0.3c-0.3-0.1-0.4-0.2-0.5-0.3
		c-0.1-0.1-0.1-0.3-0.1-0.4c0-0.3,0.1-0.5,0.3-0.7c0.2-0.2,0.5-0.3,1-0.3c0.3,0,0.5,0,0.7,0.1c0.2,0.1,0.3,0.2,0.4,0.3
		c0.1,0.1,0.2,0.2,0.3,0.3c0,0,0.1,0.1,0.1,0.1s0.1,0,0.1,0h0.5c0.1,0,0.1,0,0.2-0.1s0.1-0.1,0.1-0.2c0-0.1-0.1-0.2-0.2-0.4
		c-0.1-0.2-0.3-0.3-0.5-0.5c-0.2-0.2-0.5-0.3-0.8-0.4c-0.3-0.1-0.7-0.2-1.1-0.2c-0.5,0-1,0.1-1.4,0.3c-0.4,0.2-0.6,0.4-0.8,0.7
		c-0.2,0.3-0.3,0.6-0.3,0.9c0,0.3,0.1,0.6,0.2,0.8c0.1,0.2,0.3,0.4,0.6,0.6c0.3,0.2,0.7,0.3,1.2,0.4c0.5,0.1,0.9,0.2,1.2,0.3
		c0.3,0.1,0.5,0.2,0.6,0.3s0.2,0.3,0.2,0.5c0,0.3-0.1,0.6-0.4,0.7c-0.3,0.2-0.6,0.2-1.1,0.2c-0.3,0-0.5,0-0.7-0.1s-0.4-0.2-0.5-0.3
		c-0.1-0.1-0.3-0.2-0.4-0.4c-0.1-0.1-0.1-0.1-0.1-0.1c0,0-0.1,0-0.1,0h-0.6c-0.1,0-0.1,0-0.2,0.1c-0.1,0-0.1,0.1-0.1,0.2
		c0,0.1,0.1,0.2,0.2,0.4c0.1,0.2,0.3,0.3,0.5,0.5c0.2,0.2,0.5,0.3,0.8,0.4c0.3,0.1,0.7,0.2,1.2,0.2c0.6,0,1.1-0.1,1.5-0.3
		c0.4-0.2,0.7-0.4,0.9-0.7c0.2-0.3,0.3-0.6,0.3-1c0-0.3-0.1-0.6-0.2-0.8C47.1,128.6,46.9,128.3,46.6,128.2z"/>
	<path class="st0" d="M54.2,126.1c-0.2-0.4-0.6-0.8-1-1c-0.4-0.2-1-0.4-1.6-0.4s-1.2,0.1-1.6,0.4s-0.8,0.6-1,1
		c-0.2,0.4-0.4,0.9-0.4,1.5c0,0.1,0,0.3,0,0.5c0,0.2,0,0.4,0,0.6c0,0.6,0.2,1.1,0.4,1.5c0.2,0.4,0.6,0.8,1,1c0.4,0.2,1,0.4,1.6,0.4
		s1.2-0.1,1.6-0.4c0.4-0.2,0.8-0.6,1-1s0.4-0.9,0.4-1.5c0-0.1,0-0.3,0-0.6c0-0.2,0-0.4,0-0.5C54.6,127.1,54.5,126.6,54.2,126.1z
		 M53.4,128.6c0,0.6-0.2,1.1-0.5,1.5s-0.7,0.5-1.3,0.5s-0.9-0.2-1.3-0.5c-0.3-0.3-0.5-0.8-0.5-1.5c0-0.1,0-0.3,0-0.5s0-0.4,0-0.5
		c0-0.6,0.2-1.1,0.5-1.5c0.3-0.3,0.7-0.5,1.3-0.5s0.9,0.2,1.3,0.5c0.3,0.3,0.5,0.8,0.5,1.5c0,0.1,0,0.3,0,0.5S53.4,128.5,53.4,128.6
		z"/>
	<path class="st0" d="M60.9,125.1c-0.4-0.2-0.9-0.4-1.4-0.4c-0.5,0-1,0.1-1.3,0.3c-0.3,0.2-0.6,0.4-0.8,0.7v-0.6
		c0-0.1,0-0.2-0.1-0.2c-0.1-0.1-0.1-0.1-0.2-0.1h-0.6c-0.1,0-0.2,0-0.2,0.1c-0.1,0.1-0.1,0.1-0.1,0.2v6c0,0.1,0,0.2,0.1,0.2
		c0.1,0.1,0.1,0.1,0.2,0.1h0.6c0.1,0,0.2,0,0.2-0.1c0.1-0.1,0.1-0.1,0.1-0.2v-3.5c0-0.6,0.2-1.1,0.5-1.4c0.3-0.3,0.7-0.5,1.3-0.5
		c0.6,0,1,0.2,1.3,0.5c0.3,0.3,0.4,0.8,0.4,1.4v3.5c0,0.1,0,0.2,0.1,0.2c0.1,0.1,0.1,0.1,0.2,0.1h0.6c0.1,0,0.2,0,0.2-0.1
		c0.1-0.1,0.1-0.1,0.1-0.2v-3.6c0-0.6-0.1-1.1-0.3-1.5S61.3,125.3,60.9,125.1z"/>
	<path class="st0" d="M2.5,11.9c0.1-0.1,0.1-0.2,0.2-0.2l0.7-1.9h4.8l0.7,1.9c0,0.1,0.1,0.1,0.2,0.2C9.1,12,9.2,12,9.4,12h1.8
		c0.1,0,0.2,0,0.3-0.1c0.1-0.1,0.1-0.2,0.1-0.2c0-0.1,0-0.1,0-0.2l-4-10.9c0-0.1-0.1-0.2-0.2-0.3C7.2,0.2,7,0.2,6.8,0.2H4.7
		c-0.2,0-0.3,0-0.4,0.1S4.1,0.5,4,0.6L0,11.5c0,0,0,0.1,0,0.2c0,0.1,0,0.2,0.1,0.2C0.2,12,0.3,12,0.4,12h1.8C2.3,12,2.4,12,2.5,11.9
		z M5.8,2.7l1.7,4.9H4L5.8,2.7z"/>
	<path class="st0" d="M20.8,0.6c-0.7-0.3-1.5-0.4-2.4-0.4h-4.6c-0.1,0-0.2,0-0.3,0.1c-0.1,0.1-0.1,0.2-0.1,0.3v11
		c0,0.1,0,0.2,0.1,0.3c0.1,0.1,0.2,0.1,0.3,0.1h1.9c0.1,0,0.2,0,0.3-0.1c0.1-0.1,0.1-0.2,0.1-0.3V7.8h2.3c0.9,0,1.7-0.1,2.4-0.4
		c0.7-0.3,1.2-0.7,1.6-1.2c0.4-0.6,0.6-1.3,0.6-2.1c0-0.9-0.2-1.6-0.6-2.1C22,1.3,21.5,0.9,20.8,0.6z M19.7,5.2
		c-0.3,0.3-0.8,0.4-1.3,0.4h-2.2V2.3h2.2c0.6,0,1.1,0.2,1.4,0.5C20,3.1,20.1,3.5,20.1,4C20.1,4.5,20,5,19.7,5.2z"/>
	<path class="st0" d="M25.5,12h1.9c0.1,0,0.2,0,0.3-0.1c0.1-0.1,0.1-0.2,0.1-0.3V7.7h2l2.1,3.9c0,0.1,0.1,0.2,0.2,0.3
		c0.1,0.1,0.3,0.2,0.5,0.2h1.9c0.1,0,0.2,0,0.2-0.1s0.1-0.2,0.1-0.2c0-0.1,0-0.1-0.1-0.2l-2.4-4.2C33,7,33.6,6.6,34,6
		c0.4-0.6,0.6-1.2,0.6-2.1c0-1.2-0.4-2.2-1.2-2.8c-0.8-0.6-1.9-1-3.3-1h-4.5c-0.1,0-0.2,0-0.3,0.1c-0.1,0.1-0.1,0.2-0.1,0.3v11
		c0,0.1,0,0.2,0.1,0.3C25.3,12,25.4,12,25.5,12z M27.8,2.3H30c0.6,0,1.1,0.1,1.4,0.4c0.3,0.3,0.4,0.7,0.4,1.2s-0.1,0.9-0.4,1.2
		C31,5.4,30.6,5.5,30,5.5h-2.2V2.3z"/>
	<path class="st0" d="M37.3,10.1c0.4,0.7,1,1.2,1.7,1.5c0.7,0.3,1.6,0.5,2.7,0.5c1,0,1.9-0.2,2.6-0.5s1.3-0.8,1.8-1.5
		c0.4-0.7,0.7-1.5,0.7-2.6c0-0.5,0-1,0-1.4s0-1,0-1.5c0-1-0.3-1.9-0.7-2.6c-0.4-0.7-1-1.2-1.8-1.6C43.6,0.2,42.7,0,41.7,0
		c-1,0-1.9,0.2-2.6,0.5s-1.3,0.9-1.8,1.6c-0.4,0.7-0.7,1.5-0.7,2.6c0,0.5,0,1,0,1.5s0,1,0,1.4C36.7,8.6,36.9,9.5,37.3,10.1z
		 M39.4,4.7c0-0.6,0.1-1.1,0.3-1.4c0.2-0.4,0.5-0.6,0.8-0.8c0.3-0.2,0.7-0.3,1.2-0.3c0.4,0,0.8,0.1,1.2,0.3c0.3,0.2,0.6,0.4,0.8,0.8
		C43.9,3.6,44,4.1,44,4.7c0,0.5,0,0.9,0,1.4c0,0.4,0,0.9,0,1.4c0,0.9-0.2,1.5-0.7,1.9c-0.4,0.4-1,0.6-1.6,0.6
		c-0.7,0-1.2-0.2-1.6-0.6c-0.4-0.4-0.6-1-0.7-1.9c0-0.5,0-1,0-1.4C39.4,5.6,39.4,5.2,39.4,4.7z"/>
	<path class="st0" d="M48.2,12h2.1c0.1,0,0.3,0,0.3-0.1c0.1-0.1,0.1-0.1,0.2-0.2l2.4-3.5l2.5,3.5c0,0.1,0.1,0.1,0.2,0.2
		C56,12,56.1,12,56.3,12h2.2c0.1,0,0.2,0,0.2-0.1c0.1-0.1,0.1-0.2,0.1-0.2c0,0,0-0.1,0-0.1c0,0,0-0.1,0-0.1L55,6l3.5-5.2
		c0-0.1,0.1-0.1,0.1-0.2c0-0.1,0-0.2-0.1-0.2c-0.1-0.1-0.2-0.1-0.3-0.1h-2c-0.1,0-0.3,0-0.4,0.1c-0.1,0.1-0.2,0.2-0.2,0.2l-2.3,3.4
		l-2.3-3.4c0-0.1-0.1-0.1-0.2-0.2c-0.1-0.1-0.2-0.1-0.4-0.1h-2.1c-0.1,0-0.2,0-0.3,0.1c-0.1,0.1-0.1,0.2-0.1,0.2
		c0,0.1,0,0.1,0.1,0.2L51.6,6l-3.7,5.5c0,0,0,0.1,0,0.1c0,0,0,0.1,0,0.1c0,0.1,0,0.2,0.1,0.2S48.1,12,48.2,12z"/>
	<path class="st0" d="M61.1,12h1.9c0.1,0,0.2,0,0.3-0.1c0.1-0.1,0.1-0.2,0.1-0.3v-11c0-0.1,0-0.2-0.1-0.3c-0.1-0.1-0.2-0.1-0.3-0.1
		h-1.9c-0.1,0-0.2,0-0.3,0.1c-0.1,0.1-0.1,0.2-0.1,0.3v11c0,0.1,0,0.2,0.1,0.3C60.9,12,61,12,61.1,12z"/>
	<path class="st0" d="M66.8,12h1.7c0.1,0,0.2,0,0.3-0.1c0.1-0.1,0.1-0.2,0.1-0.3V4.8l2.1,4c0.1,0.1,0.1,0.2,0.2,0.3
		c0.1,0.1,0.2,0.1,0.4,0.1h0.8c0.2,0,0.3,0,0.4-0.1C72.9,9,73,8.9,73,8.8l2.1-4v6.8c0,0.1,0,0.2,0.1,0.3c0.1,0.1,0.2,0.1,0.3,0.1
		h1.7c0.1,0,0.2,0,0.3-0.1c0.1-0.1,0.1-0.2,0.1-0.3v-11c0-0.1,0-0.2-0.1-0.3c-0.1-0.1-0.2-0.1-0.3-0.1h-1.6c-0.2,0-0.3,0-0.4,0.1
		c-0.1,0.1-0.1,0.2-0.2,0.2l-3.1,5.7l-3.1-5.7c0,0-0.1-0.1-0.2-0.2s-0.2-0.1-0.4-0.1h-1.6c-0.1,0-0.2,0-0.3,0.1
		c-0.1,0.1-0.1,0.2-0.1,0.3v11c0,0.1,0,0.2,0.1,0.3C66.6,12,66.7,12,66.8,12z"/>
	<path class="st0" d="M91,11.9c0.1-0.1,0.1-0.2,0.1-0.2c0-0.1,0-0.1,0-0.2l-4-10.9c0-0.1-0.1-0.2-0.2-0.3c-0.1-0.1-0.2-0.1-0.4-0.1
		h-2.2c-0.2,0-0.3,0-0.4,0.1s-0.2,0.2-0.2,0.3l-4,10.9c0,0,0,0.1,0,0.2c0,0.1,0,0.2,0.1,0.2S79.9,12,80,12h1.8c0.2,0,0.3,0,0.4-0.1
		c0.1-0.1,0.1-0.2,0.2-0.2L83,9.8h4.8l0.7,1.9c0,0.1,0.1,0.1,0.2,0.2C88.7,12,88.8,12,89,12h1.8C90.9,12,90.9,12,91,11.9z M83.6,7.6
		l1.7-4.9l1.7,4.9H83.6z"/>
	<path class="st0" d="M91.3,2.5h3.1v9.1c0,0.1,0,0.2,0.1,0.3c0.1,0.1,0.2,0.1,0.3,0.1h1.9c0.1,0,0.2,0,0.3-0.1
		c0.1-0.1,0.1-0.2,0.1-0.3V2.5h3.1c0.1,0,0.2,0,0.3-0.1c0.1-0.1,0.1-0.2,0.1-0.3V0.6c0-0.1,0-0.2-0.1-0.3c-0.1-0.1-0.2-0.1-0.3-0.1
		h-8.9c-0.1,0-0.2,0-0.3,0.1c-0.1,0.1-0.1,0.2-0.1,0.3v1.5c0,0.1,0,0.2,0.1,0.3C91.1,2.5,91.2,2.5,91.3,2.5z"/>
	<path class="st0" d="M103,12h7.8c0.1,0,0.2,0,0.3-0.1c0.1-0.1,0.1-0.2,0.1-0.3v-1.4c0-0.1,0-0.2-0.1-0.3c-0.1-0.1-0.2-0.1-0.3-0.1
		h-5.6V7.1h5.1c0.1,0,0.2,0,0.3-0.1c0.1-0.1,0.1-0.2,0.1-0.3V5.4c0-0.1,0-0.2-0.1-0.3C110.6,5,110.5,5,110.4,5h-5.1V2.4h5.5
		c0.1,0,0.2,0,0.3-0.1c0.1-0.1,0.1-0.2,0.1-0.3V0.6c0-0.1,0-0.2-0.1-0.3c-0.1-0.1-0.2-0.1-0.3-0.1H103c-0.1,0-0.2,0-0.3,0.1
		c-0.1,0.1-0.1,0.2-0.1,0.3v11c0,0.1,0,0.2,0.1,0.3C102.8,12,102.9,12,103,12z"/>
	<path class="st0" d="M8.5,20.9c-0.7-0.3-1.5-0.4-2.4-0.4H1.5c-0.1,0-0.2,0-0.3,0.1C1.1,20.7,1,20.8,1,20.9v11c0,0.1,0,0.2,0.1,0.3
		s0.2,0.1,0.3,0.1h1.9c0.1,0,0.2,0,0.3-0.1c0.1-0.1,0.1-0.2,0.1-0.3v-3.8h2.3c0.9,0,1.7-0.1,2.4-0.4c0.7-0.3,1.2-0.7,1.6-1.2
		c0.4-0.6,0.6-1.3,0.6-2.1c0-0.9-0.2-1.6-0.6-2.1C9.7,21.6,9.2,21.2,8.5,20.9z M7.3,25.5C7,25.8,6.6,26,6,26H3.8v-3.4H6
		c0.6,0,1.1,0.2,1.4,0.5c0.3,0.3,0.4,0.7,0.4,1.2C7.8,24.8,7.7,25.3,7.3,25.5z"/>
	<path class="st0" d="M20,27.5c0.7-0.3,1.2-0.7,1.6-1.2c0.4-0.6,0.6-1.2,0.6-2.1c0-1.2-0.4-2.2-1.2-2.8s-1.9-1-3.3-1h-4.5
		c-0.1,0-0.2,0-0.3,0.1c-0.1,0.1-0.1,0.2-0.1,0.3v11c0,0.1,0,0.2,0.1,0.3s0.2,0.1,0.3,0.1H15c0.1,0,0.2,0,0.3-0.1s0.1-0.2,0.1-0.3
		V28h2l2.1,3.9c0,0.1,0.1,0.2,0.2,0.3s0.3,0.2,0.5,0.2h1.9c0.1,0,0.2,0,0.2-0.1s0.1-0.2,0.1-0.2c0-0.1,0-0.1-0.1-0.2L20,27.5z
		 M19,25.4c-0.3,0.3-0.8,0.4-1.4,0.4h-2.2v-3.2h2.2c0.6,0,1.1,0.1,1.4,0.4c0.3,0.3,0.4,0.7,0.4,1.2S19.3,25.1,19,25.4z"/>
	<path class="st0" d="M25.1,32.3h1.9c0.1,0,0.2,0,0.3-0.1c0.1-0.1,0.1-0.2,0.1-0.3v-11c0-0.1,0-0.2-0.1-0.3
		c-0.1-0.1-0.2-0.1-0.3-0.1h-1.9c-0.1,0-0.2,0-0.3,0.1c-0.1,0.1-0.1,0.2-0.1,0.3v11c0,0.1,0,0.2,0.1,0.3
		C24.9,32.3,25,32.3,25.1,32.3z"/>
	<path class="st0" d="M30.7,22.4c-0.4,0.7-0.6,1.5-0.7,2.5c0,0.5,0,1,0,1.5c0,0.5,0,1,0,1.5c0,1,0.3,1.8,0.7,2.5s1,1.2,1.7,1.6
		s1.6,0.5,2.7,0.5c0.8,0,1.5-0.1,2.1-0.3c0.6-0.2,1.1-0.5,1.6-0.8c0.5-0.4,0.8-0.8,1.1-1.3c0.3-0.5,0.4-1,0.4-1.6
		c0-0.1,0-0.2-0.1-0.3c-0.1-0.1-0.2-0.1-0.3-0.1h-1.9c-0.1,0-0.2,0-0.3,0.1c-0.1,0.1-0.1,0.2-0.2,0.3c-0.2,0.7-0.4,1.1-0.8,1.4
		c-0.4,0.2-0.9,0.4-1.5,0.4c-0.7,0-1.2-0.2-1.6-0.6c-0.4-0.4-0.6-1-0.7-1.9c0-1,0-1.9,0-2.8c0-0.9,0.3-1.5,0.7-1.9s1-0.6,1.6-0.6
		c0.6,0,1.1,0.1,1.5,0.4c0.4,0.2,0.7,0.7,0.8,1.4c0,0.2,0.1,0.3,0.2,0.3c0.1,0.1,0.2,0.1,0.3,0.1h1.9c0.1,0,0.2,0,0.3-0.1
		c0.1-0.1,0.1-0.2,0.1-0.3c0-0.6-0.1-1.1-0.4-1.6c-0.3-0.5-0.6-0.9-1.1-1.3s-1-0.6-1.6-0.8c-0.6-0.2-1.3-0.3-2.1-0.3
		c-1,0-1.9,0.2-2.7,0.5C31.7,21.2,31.1,21.7,30.7,22.4z"/>
	<path class="st0" d="M50.7,22.7c0.1,0,0.2,0,0.3-0.1c0.1-0.1,0.1-0.2,0.1-0.3v-1.4c0-0.1,0-0.2-0.1-0.3c-0.1-0.1-0.2-0.1-0.3-0.1
		H43c-0.1,0-0.2,0-0.3,0.1c-0.1,0.1-0.1,0.2-0.1,0.3v11c0,0.1,0,0.2,0.1,0.3s0.2,0.1,0.3,0.1h7.8c0.1,0,0.2,0,0.3-0.1
		c0.1-0.1,0.1-0.2,0.1-0.3v-1.4c0-0.1,0-0.2-0.1-0.3c-0.1-0.1-0.2-0.1-0.3-0.1h-5.6v-2.7h5.1c0.1,0,0.2,0,0.3-0.1
		c0.1-0.1,0.1-0.2,0.1-0.3v-1.3c0-0.1,0-0.2-0.1-0.3s-0.2-0.1-0.3-0.1h-5.1v-2.6H50.7z"/>
</g>
</svg>
