<?xml version="1.0" encoding="utf-8"?>
<!-- Generator: Adobe Illustrator 24.1.2, SVG Export Plug-In . SVG Version: 6.00 Build 0)  -->
<svg version="1.1" id="Layer_1" xmlns="http://www.w3.org/2000/svg" xmlns:xlink="http://www.w3.org/1999/xlink" x="0px" y="0px"
	 viewBox="0 0 1920.2 2971" style="enable-background:new 0 0 1920.2 2971;" xml:space="preserve">
<style type="text/css">
	.st0{opacity:0.9;fill:#04064F;}
</style>
<path class="st0" d="M1988.7,398.6L1793.1,164l-0.3-1.3v1.3c-36-31.9-68.3-58-97-87.6c-9.7-10-17-31.1-13.4-43.7
	c3.2-10.9,6-21.8,8.5-32.7h-464.4c-14.4,55.3-46.4,99.3-97.1,138.1C996.1,240,1012.1,311,1066.1,369c11.3,12.1,2.7,34-4.9,62.2
	c-36.9,136.2-36.1,192.8,46.9,398.8c51.1,194.3,31.6,189.1-124.8,318.3c-115.2,95.1-223.8,198.4-333,300.4
	c-38,35.5-62.6,78.4-39,136.2c24.6,60.3,70.7,90.8,130.5,97.5c63.3,7,127.6,4.9,191.5,6.6c118.9,3.2,237.9,6.1,356.8,9.3
	c47.8,1.3,66,25.1,82.6,72.6c69.1,197.5,63,401.5,45.1,601.9c-11.9,133.2-66.4,262.8-105.2,393c-5,16.9-30.8,27.3-46.4,41.4
	c-16.9,15.3-49.4,35.3-46.7,46.5c8.3,35.5,22,78.8,48.7,98.5c26.7,19.6,72.2,20.6,108.3,17.3c16.2-1.5,36.8-31.1,43-51.7
	c17.8-58.4,21.6-122.8,95.4-157.4c6.6,50.9,13.1,100.1,19.5,149.1c22.8-74.7,47.2-149,65.1-224.9c6.8-28.6,1.5-66.7-13-92.2
	c-32.2-56.7-37.7-114.3-16.1-171.8c71.5-189.9,102.2-382.6,54.8-583.3c-2.1-9.1,0.8-19.3,12.8-31.8c9.4,22.5,18.8,45.1,31.9,76.3
	c41.7-19.3,82.1-38,124.8-57.6l0.4-1.3l0.1-139.8c-33.1-13.3-66.4-23.1-95.9-39.6c-23.2-12.9-41.7-34-62.3-51.5
	c23.2-12.8,45.4-28.4,69.9-37.6c18.2-6.9,39.4-5.6,59.4-8c-0.4-10.6-0.2-6.7-0.6-17.3c-37.4-2-74.8-4.1-131.2-7.1
	c16.1-108.5,20.1-213,49-310.2c33.6-113.2,33.2-218.6-9.9-326.3c-4-10.1-8.8-21.6-7.6-31.7c1.7-14.1,4.6-33.5,14.2-40.2
	c34.4-23.9,71.9-43.4,114.8-68.4h0l0.1-0.3l186.8-125.6C2086.1,542.9,2084,516.4,1988.7,398.6z M1329.8,1549
	c-83.1-21.6-161.2-41.8-251-65.1c86.6-53.8,162.3-100.9,251-156V1549z M1749.8,639.2c-58.1,53.3-119.1,103.4-183.3,158.7
	c-95.6-63.4-133.2-136.1-96.5-225.4c27-65.5,67.2-129.9,116.1-180.9c79.3-82.8,84.3-78,165.8-0.7c32.8,31.1,122.2,94.2,122.2,122.2
	C1874.1,544,1786.2,605.7,1749.8,639.2z"/>
</svg>
