<?xml version="1.0" encoding="utf-8"?>
<!-- Generator: Adobe Illustrator 21.0.0, SVG Export Plug-In . SVG Version: 6.00 Build 0)  -->
<svg version="1.1" id="Layer_1" xmlns="http://www.w3.org/2000/svg" xmlns:xlink="http://www.w3.org/1999/xlink" x="0px" y="0px"
	 viewBox="0 0 652 211" style="enable-background:new 0 0 652 211;" xml:space="preserve">
<style type="text/css">
	.st0{fill:#EC4622;}
	.st1{fill:#FFFFFF;}
</style>
<g>
	<path class="st0" d="M634.9,115.8c-2.5-4-6.5-6.8-11.1-7.8c-1.9-0.4-3.7-0.5-5.6-0.4c-0.4-9.6,0.5-24.8,7.8-35.3
		c3.1-4.5,7.9-7.7,12.5-10.8c7.1-4.8,16.8-11.5,12.6-23c-2.4-6.5-7.7-11.4-15-13.9c-10.1-3.5-22.5-1.6-33.1,5.1
		c-9.7,6.1-16.1,11.1-20.7,16.6l-6.3-10c0,0,0,0,0,0c0,0,0,0,0,0L566.4,21c-5.5-8.7-15-19.6-29-21.8c-10.3-1.6-20.7,1.9-31,10.4
		c-17.3,14.3-31.2,28.2-36.9,34.1c-0.8,0.6-1.4,1.2-1.9,2c-0.3,0.3-0.5,0.6-0.7,0.7c-7.4,6.8-17.9,24.5-6.4,44.9
		c11.7,20.8,26.5,43.4,65.1,72.1l-1,0.7c-8.3,5.2-10.8,16.1-5.6,24.3l9.4,14.9c2.5,4,6.5,6.8,11.1,7.8c1.3,0.3,2.6,0.4,4,0.4
		c3.3,0,6.6-0.9,9.4-2.7l85.9-53.8c8.3-5.2,10.8-16.1,5.6-24.3L634.9,115.8z M532.5,13.6c0.8,0,1.7,0.1,2.5,0.2
		c8.9,1.4,15.6,10.1,18.8,15.1l9.7,15.2c1.6,2.8,2.6,6.7-2.1,9.7c-3.3,2.1-6.2,2.7-7.2,1.5c-0.2-0.3-0.4-0.5-0.6-0.7L528,14.2
		C529.6,13.8,531.1,13.6,532.5,13.6z M554.3,55.5c0-0.1-0.1-0.2-0.2-0.2C554.3,55.4,554.3,55.5,554.3,55.5
		C554.3,55.5,554.3,55.5,554.3,55.5z M515.2,21.5l26.6,42c0.1,0.2,0.3,0.4,0.5,0.6c1.1,2.1,2,6-2.7,8.9c-4.8,3-7.9,0.4-9.6-2.2
		c0,0,0,0,0,0c0,0,0,0,0,0c0,0,0,0,0,0c0,0,0,0,0,0c0,0,0,0,0,0c0,0,0,0,0,0l-25.4-40.1C507.8,27.7,511.4,24.6,515.2,21.5z
		 M493.4,40.8l24,37.8c1.6,2.8,2.6,6.7-2.2,9.6c-4.8,3-7.9,0.4-9.6-2.2c0,0,0,0,0,0l-22.4-35.3C485.8,48.1,489.3,44.7,493.4,40.8z
		 M488.3,99.5c-3.5,2.2-6.7-2.1-7.6-3.4c-0.4-0.6-0.9-1.2-1.4-1.6c-2.1-3.4-4.1-6.8-6-10.2c-5.3-9.5-3.1-17.2-0.3-22l20.1,31.6
		c0,0,0,0,0,0C493.1,93.9,493.4,96.3,488.3,99.5z M492.9,113.5c1.1-0.4,2.2-1,3.3-1.7c4.2-2.6,7.1-5.6,8.9-8.6
		c5.2,1.7,11.4,1.5,18-2.7c5.3-3.3,8.2-7.5,9.5-11.8c4.5,0.7,9.5-0.1,14.8-3.4c6.6-4.1,9.5-9.6,10.2-15c3.7-0.4,7.6-1.8,11.6-4.3
		c2.1-1.3,3.9-2.8,5.4-4.5l1.6,2.5c1.5,2.3,4.1,3.6,6.8,3.4c2.7-0.2,5.1-1.9,6.2-4.4c2.6-5.8,5.8-11.1,21.7-21
		c6.9-4.3,14.5-5.6,20.5-3.6c1.7,0.6,4.8,2,6,5c-0.5,1.3-4.5,4-7.2,5.8c-5.2,3.5-11.6,7.9-16.2,14.6c-11.7,16.7-11,40.3-10.1,50.4
		L539,155C517.2,139.4,503.1,126,492.9,113.5z M630.9,142.6L545,196.3c-0.9,0.6-1.8,0.5-2.2,0.4c-0.4-0.1-1.3-0.4-1.8-1.3l-9.4-14.9
		c-0.9-1.4-0.5-3.2,0.9-4.1l85.9-53.8c0.6-0.4,1.1-0.5,1.6-0.5c0.3,0,0.5,0,0.7,0.1c0.4,0.1,1.3,0.4,1.8,1.3l9.4,14.9
		C632.7,139.9,632.3,141.7,630.9,142.6z"/>
	<g>
		<path class="st1" d="M0.2,183.9v-82.3h32c9.1,0,16.7,2.6,22.6,7.7c5.9,5.1,8.9,11.8,8.9,20.2c0,8.2-3,14.9-9,20.1
			c-6,5.2-13.5,7.9-22.5,7.9H20.9v26.4H0.2z M20.9,139.8h11.8c3.2,0,5.8-0.9,7.7-2.9c1.9-1.9,2.9-4.4,2.9-7.5c0-3.1-1-5.6-2.9-7.4
			c-1.9-1.9-4.5-2.8-7.7-2.8H20.9V139.8z"/>
		<path class="st1" d="M147.4,183.9h-21L107,157.5h-9.2v26.4H77.1V98.7h31.2c8.9,0,16.2,2.7,22,8.1c5.8,5.4,8.7,12.5,8.7,21.2
			c0,10.7-4.2,18.8-12.5,24.3L147.4,183.9z M97.8,119.3v20.6h11.8c3.2,0,5.8-0.9,7.7-2.9c1.9-1.9,2.9-4.4,2.9-7.5
			c0-3.1-1-5.6-2.9-7.4c-1.9-1.9-4.5-2.8-7.7-2.8H97.8z"/>
		<path class="st1" d="M209.9,183.9l-3-8.8H177l-3,8.8h-23.8l38.3-85.2h7l38.3,85.2H209.9z M199.2,157.5l-7.2-19.2l-7.3,19.2H199.2z
			"/>
		<path class="st1" d="M240.3,140.1c-0.2-11.9,4-22,12.5-30.4c8.5-8.4,18.7-12.6,30.7-12.4c14.8,0,26.2,6.1,34.2,18.4l-14.4,12.8
			c-5.2-7.6-11.9-11.4-20.1-11.4c-6.7,0-11.9,2.1-15.8,6.3c-3.9,4.2-5.8,9.8-5.8,16.8c0,7.1,2.1,12.8,6.2,17.2
			c4.1,4.3,9.7,6.5,16.7,6.5c7.5,0,13.4-2.5,17.4-7.4v-4.8h-20.7v-17.6h41.4V160c-3.7,6.8-9,12.4-15.9,16.7
			c-6.9,4.2-14.6,6.3-23.1,6.3c-12,0.2-22.2-3.9-30.7-12.3C244.3,162.2,240.1,152,240.3,140.1z"/>
		<path class="st1" d="M329.7,141c-0.3-11.8,4.1-21.9,13-30.4s19.5-12.7,31.7-12.4c12.2-0.2,22.8,3.9,31.8,12.4
			c9,8.5,13.4,18.7,13.2,30.4c0.3,11.9-4.1,22-13.2,30.4c-9,8.4-19.6,12.6-31.8,12.4c-12.3,0.2-22.9-4-31.8-12.4
			C333.8,163,329.5,152.8,329.7,141z M397.3,141c0-6.8-2.2-12.3-6.5-16.6c-4.3-4.3-9.7-6.5-16.2-6.5c-6.7,0-12.2,2.1-16.4,6.4
			c-4.2,4.3-6.3,9.8-6.3,16.7c0,6.8,2.1,12.4,6.3,16.8c4.2,4.2,9.7,6.3,16.4,6.3c6.6,0,12-2.1,16.3-6.4
			C395.2,153.4,397.3,147.8,397.3,141z"/>
		<path class="st1" d="M431.9,146.3V98.7h20.7v49.2c0,4.7,1.4,8.4,4.1,11.1c2.7,2.7,6.3,4.1,10.7,4.1c4.4,0,8-1.4,10.7-4.1
			c2.7-2.7,4.1-6.4,4.1-11.1V98.7h23.7v47.6c0,10.8-3.5,19.6-10.5,26.4c-7,6.8-15.8,10.2-26.5,10.2c-10.8,0-19.7-3.4-26.6-10.1
			C435.3,166.1,431.9,157.2,431.9,146.3z"/>
		<path class="st1" d="M538.3,183.9v-64.6h-23.7V98.7h71v20.6H559v64.6H538.3z"/>
	</g>
</g>
</svg>
