<?xml version="1.0" encoding="utf-8"?>
<!-- Generator: Adobe Illustrator 24.1.2, SVG Export Plug-In . SVG Version: 6.00 Build 0)  -->
<svg version="1.1" id="Layer_1" xmlns="http://www.w3.org/2000/svg" xmlns:xlink="http://www.w3.org/1999/xlink" x="0px" y="0px"
	 viewBox="0 0 671 211" style="enable-background:new 0 0 671 211;" xml:space="preserve">
<style type="text/css">
	.st0{fill:#EB4622;}
	.st1{fill:#FFFFFF;}
</style>
<g>
	<path class="st0" d="M548.8,205.6c1.6,2.6,4.2,4.4,7.2,5.1c3,0.7,6.1,0.2,8.7-1.5l95.1-59.7c5.4-3.4,7-10.5,3.6-15.9l-10.4-16.5
		c-1.6-2.6-4.2-4.4-7.2-5.1c-1.2-0.3-2.4-0.4-3.7-0.2l-8.5,0.8l-0.3-8.5c-0.5-12.8,0.9-30.9,10.2-44.2c4.3-6.2,10.5-10.4,15.9-14.1
		c9.5-6.5,13.1-10.2,10.9-16.1c-1.7-4.9-5.9-8.6-11.6-10.6c-8.9-3.1-20-1.3-29.7,4.8c-10.4,6.5-16.6,11.5-20.9,16.7l-7.1,8.6
		l-14.3-25.4c-5.2-8.3-14-21.5-26.4-23.5C559,0.1,557.6,0,556.2,0c-6.3,0-12.8,5.2-19.4,9.7c-1.4,1-7.5-4.7-19.1,6.1
		c-18.3,17-24.3,25.9-32.3,34.7c-0.7,0.8-18,17.5-5.2,40.4c12.4,22.2,21.9,37.2,63.5,68.4l0,0c4.5,3.4,0.8,11.5-1.7,14
		c-4.4,4.6-7,10.5-3.6,15.9L548.8,205.6z"/>
	<g>
		<path class="st1" d="M147.8,145.3h-20.7l-19-26.2H99v26.2H78.6V60.9H111c8.8,0,16,2.7,21.7,8c5.7,5.3,8.5,12.3,8.5,21
			c0,10.6-4.1,18.6-12.3,24L147.8,145.3z M99,79.8v20.4h11.8c3.2,0,5.7-0.9,7.6-2.8c1.9-1.9,2.8-4.4,2.8-7.4c0-3.1-0.9-5.5-2.8-7.4
			c-1.9-1.8-4.4-2.8-7.6-2.8H99z"/>
		<path class="st1" d="M0,145.3V60.9h31.5c9,0,16.4,2.5,22.2,7.6c5.8,5.1,8.8,13.2,8.8,21.5c0,8.1-3,16.1-8.9,21.3
			c-5.9,5.2-13.3,7.8-22.1,7.8H20.4v26.2H0z M20.4,100.2h11.6c3.2,0,5.7-0.9,7.6-2.8c1.9-1.9,2.8-4.4,2.8-7.4c0-3.1-0.9-5.5-2.8-7.4
			c-1.9-1.8-4.4-2.8-7.6-2.8H20.4V100.2z"/>
		<path class="st1" d="M344.8,103.1c-0.2-11.7,4-21.7,12.8-30.2c8.8-8.4,19.2-12.5,31.2-12.3c12-0.2,22.4,3.8,31.3,12.3
			c8.9,8.4,13.2,18.5,13,30.2c0.2,11.7-4.1,21.8-13,30.2c-8.9,8.4-19.3,12.5-31.3,12.3c-12.1,0.2-22.5-3.9-31.3-12.3
			C348.8,124.9,344.5,114.8,344.8,103.1z M411.3,103.1c0-6.7-2.1-12.2-6.4-16.4c-4.3-4.3-9.6-6.4-15.9-6.4c-6.6,0-12,2.1-16.1,6.3
			c-4.1,4.2-6.2,9.7-6.2,16.5c0,6.8,2.1,12.3,6.2,16.6c4.1,4.1,9.5,6.2,16.1,6.2c6.5,0,11.8-2.1,16-6.3
			C409.2,115.4,411.3,109.9,411.3,103.1z"/>
		<path class="st1" d="M557.3,145.3v-64h-24.7V60.9h69.8v20.4h-24.7v64H557.3z"/>
		<path class="st1" d="M221.1,145.3h20.4l-30.9-79.5l-1.9-4.9h-16.6l-1.9,4.9l-31,79.5h20.4l3.4-8.7h34.7L221.1,145.3z M189.8,119.1
			l10.6-27.2l10.6,27.2H189.8z"/>
		<path class="st1" d="M496.2,60.9v48c0,8.8-5.7,16-14.5,16h0c-8.8,0-14.5-7.2-14.5-16v-48h-21.9v50.9c0,20.1,16.3,33.5,36.4,33.5h0
			c20.1,0,36.4-13.4,36.4-33.5V60.9H496.2z"/>
		<path class="st1" d="M330.9,94.3h-17.4h-22.1v17.5h22.1c-3.6,8.4-12.1,14.2-22.1,14.2c-13.2,0-23.9-10.3-23.9-23
			c0-12.7,10.7-23,23.9-23c5.9,0,11.3,2,15.4,5.4l13.8-14.3c-7.8-6.6-18-10.6-29.2-10.6c-24.4,0-44.2,19-44.2,42.4
			c0,23.5,19.8,42.5,44.2,42.5c17.4,0,32.3-9.7,39.5-23.7V94.3z"/>
	</g>
</g>
</svg>
