<?xml version="1.0" encoding="utf-8"?>
<!-- Generator: Adobe Illustrator 22.1.0, SVG Export Plug-In . SVG Version: 6.00 Build 0)  -->
<svg version="1.1" id="Layer_1" xmlns="http://www.w3.org/2000/svg" xmlns:xlink="http://www.w3.org/1999/xlink" x="0px" y="0px"
	 viewBox="0 0 320 320" style="enable-background:new 0 0 320 320;" xml:space="preserve">
<style type="text/css">
	.st0{fill:#2f1959;";stroke-width:15;stroke-miterlimit:15;}
</style>
<g transform="translate(0.000000,240.000000) scale(0.100000,-0.100000)">
	<path class="st0" d="M520,1816.6c-27-15-102-144-259.5-448.5C139,1134.1,40,927.1,40,909.1s7.5-46.5,15-63
		c16.5-30,327-193.5,369-193.5c13.5,0,43.5,12,69,27c43.5,25.5,45,25.5,72-12c16.5-21,42-55.5,58.5-76.5c22.5-30,27-52.5,21-100.5
		c-7.5-57-3-67.5,45-115.5c28.5-28.5,66-52.5,84-52.5c25.5,0,31.5-9,31.5-45c0-55.5,55.5-117,118.5-129c30-6,49.5-22.5,63-54
		c21-49.5,93-102,141-102c21,0,36-15,48-45c24-63,109.5-102,172.5-78c39,15,54,13.5,78-4.5c132-97.5,136.5-100.5,187.5-91.5
		c52.5,7.5,136.5,75,136.5,108c0,13.5,22.5,16.5,79.5,10.5c70.5-7.5,84-3,126,31.5c25.5,21,49.5,54,55.5,73.5c7.5,30,15,33,69,28.5
		c52.5-6,66,0,112.5,46.5c28.5,28.5,52.5,67.5,52.5,85.5c0,28.5,6,33,40.5,25.5c82.5-15,177,49.5,193.5,133.5
		c6,34.5,0,69-19.5,109.5l-28.5,57l109.5,102l111,100.5l34.5-31.5c45-43.5,82.5-40.5,265.5,21c159,54,208.5,88.5,208.5,148.5
		c0,18-67.5,234-150,481.5c-153,462-174,502.5-246,502.5c-49.5,0-339-100.5-370.5-129c-15-13.5-28.5-45-31.5-72
		c-4.5-40.5-13.5-49.5-67.5-69c-58.5-19.5-81-18-298.5,21c-259.5,48-414,55.5-471,24c-21-10.5-64.5-42-99-70.5
		c-60-48-66-49.5-198-49.5c-111,0-150,6-205.5,33c-54,27-67.5,40.5-67.5,72c0,63-37.5,99-184.5,178.5
		C608.5,1833.1,569.5,1843.6,520,1816.6z M730,1687.6c97.5-49.5,150-84,150-99c0-40.5-421.5-847.5-447-856.5
		c-30-12-309,135-315,166.5c-4.5,21,381,795,421.5,846C560.5,1771.6,566.5,1770.1,730,1687.6z M2938,1297.6
		c79.5-235.5,144-444,142.5-465c-3-33-19.5-43.5-138-85.5c-228-81-190.5-121.5-366,403.5c-123,367.5-147,457.5-132,472.5
		c27,28.5,267,108,310.5,105C2791,1725.1,2801.5,1699.6,2938,1297.6z M1817.5,1516.6c75-12,198-33,274.5-46.5
		c126-22.5,147-22.5,217.5-1.5c42,12,78,21,79.5,19.5s57-168,124.5-370.5c72-220.5,115.5-369,105-373.5c-7.5-1.5-52.5-42-99-85.5
		c-156-153-106.5-171-544.5,205.5c-318,273-390,328.5-429,328.5c-66,0-121.5-64.5-141-163.5c-28.5-151.5-97.5-247.5-171-238.5
		l-40.5,4.5v187.5c-1.5,103.5-1.5,199.5,0,213c1.5,30,301.5,292.5,367.5,321C1621,1542.1,1652.5,1542.1,1817.5,1516.6z
		 M1178.5,1387.6l99-1.5l-61.5-55.5c-34.5-30-70.5-70.5-79.5-88.5c-10.5-19.5-16.5-121.5-16.5-258c0-216,1.5-226.5,33-247.5
		c73.5-51,193.5-10.5,252,84c28.5,45,58.5,133.5,81,240c6,22.5,22.5,48,39,57c24,13.5,85.5-33,450-348c468-405,489-430.5,382.5-501
		c-54-34.5-69-25.5-307.5,180c-193.5,168-249,199.5-265.5,148.5c-3-9,79.5-93,186-184.5c105-91.5,196.5-181.5,202.5-198
		c12-30-9-85.5-39-105c-48-33-96-6-279,153c-184.5,162-228,187.5-246,142.5c-9-25.5,4.5-39,190.5-198c162-139.5,180-193.5,82.5-246
		c-36-19.5-64.5-3-211.5,126c-67.5,58.5-135,115.5-150,129c-24,19.5-28.5,19.5-52.5-4.5s-19.5-31.5,99-141
		c67.5-64.5,123-127.5,123-142.5c0-34.5-52.5-85.5-88.5-85.5c-34.5,0-145.5,87-141,111c1.5,9,7.5,34.5,13.5,58.5
		c13.5,57-19.5,127.5-72,154.5c-33,18-42,30-33,48c7.5,13.5,12,51,12,84c0,45-9,66-42,93c-22.5,19.5-54,36-70.5,36
		c-22.5,0-28.5,10.5-28.5,54c0,103.5-120,174-211.5,124.5c-24-12-39-7.5-82.5,30c-66,58.5-135,61.5-199.5,9l-45-39l-27,40.5
		c-37.5,55.5-85.5,105-108,112.5c-12,4.5,45,127.5,165,360l183,354l82.5-42C1061.5,1396.6,1097.5,1387.6,1178.5,1387.6z M901,583.6
		c34.5-34.5,30-60-24-127.5c-51-63-97.5-75-138-34.5c-34.5,34.5-30,67.5,22.5,130.5C811,612.1,862,624.1,901,583.6z M1147,529.6
		c37.5-37.5,18-90-73.5-201c-100.5-123-144-139.5-186-75c-30,45-21,63,90,201C1054,549.1,1105,571.6,1147,529.6z M1288,342.1
		c42-37.5,33-76.5-43.5-171C1162,69.1,1117,48.1,1072,94.6c-42,42-28.5,82.5,64.5,187.5C1216,372.1,1243,382.6,1288,342.1z
		 M1387,94.6c27-27,21-78-13.5-123c-40.5-51-100.5-48-132,7.5c-19.5,34.5-18,42,13.5,85.5C1292.5,115.6,1352.5,129.1,1387,94.6z"/>
</g>
</svg>
