<svg xmlns="http://www.w3.org/2000/svg" viewBox="0 0 111.8 133.8"><defs><style>.cls-1{fill:#fff;}</style></defs><title>Asset 1</title><g id="Layer_2" data-name="Layer 2"><g id="Layer_1-2" data-name="Layer 1"><path class="cls-1" d="M111.1,106.8h-1.9a.76.76,0,0,0-.5.2,1.54,1.54,0,0,0-.4.6,4.81,4.81,0,0,1-2.2,3.2,8.57,8.57,0,0,1-4.1.9,5.74,5.74,0,0,1-4.5-1.7,6.72,6.72,0,0,1-1.6-4.1h6.9a1.42,1.42,0,0,0,.6-.2c.2-.1.2-.3.2-.6V104a1.42,1.42,0,0,0-.2-.6c-.2-.2-.3-.2-.6-.2h-7V101h7a1.42,1.42,0,0,0,.6-.2c.2-.1.2-.3.2-.6V99a1.42,1.42,0,0,0-.2-.6c-.2-.2-.3-.2-.6-.2H95.9a6.72,6.72,0,0,1,1.6-4.1,6.11,6.11,0,0,1,4.5-1.7,8.57,8.57,0,0,1,4.1.9,4.81,4.81,0,0,1,2.2,3.2.92.92,0,0,0,.4.6.76.76,0,0,0,.5.2h1.9a.68.68,0,0,0,.7-.7,5.09,5.09,0,0,0-.7-2.6,8,8,0,0,0-1.8-2.3,10,10,0,0,0-3.1-1.7,14,14,0,0,0-4.3-.6,10.8,10.8,0,0,0-5.4,1.2A8.06,8.06,0,0,0,93.3,94a13,13,0,0,0-1.1,4.1H90a1.42,1.42,0,0,0-.6.2c-.2.2-.2.3-.2.6v1.2a1.42,1.42,0,0,0,.2.6c.1.2.3.2.6.2h2.2V103H90a1.42,1.42,0,0,0-.6.2c-.2.2-.2.3-.2.6V105a1.42,1.42,0,0,0,.2.6c.1.2.3.2.6.2h2.3a12.37,12.37,0,0,0,1,4,7.53,7.53,0,0,0,3.2,3.4,10.8,10.8,0,0,0,5.4,1.2,14,14,0,0,0,4.3-.6,10.3,10.3,0,0,0,3.1-1.7,7.61,7.61,0,0,0,1.8-2.3,8.39,8.39,0,0,0,.7-2.6c0-.2,0-.4-.2-.5S111.3,106.8,111.1,106.8Z"/><path class="cls-1" d="M6.5,126.6a3.13,3.13,0,0,0-.5-1,2.7,2.7,0,0,0-.8-.7,2.17,2.17,0,0,0-1.2-.2,2.77,2.77,0,0,0-1.3.3,2.7,2.7,0,0,0-.8.7v-.6c0-.1,0-.2-.1-.2s-.1-.1-.2-.1H1c-.1,0-.2,0-.2.1s-.1.1-.1.2v8.4c0,.1,0,.2.1.2s.1.1.2.1h.6c.1,0,.2,0,.2-.1s.1-.1.1-.2v-2.9a2.7,2.7,0,0,0,.8.7,2.13,2.13,0,0,0,1.2.3,3.73,3.73,0,0,0,1.2-.2,2.7,2.7,0,0,0,.8-.7,3.13,3.13,0,0,0,.5-1,4.25,4.25,0,0,0,.2-1.1v-.8A2.25,2.25,0,0,0,6.5,126.6Zm-1,1.9a3,3,0,0,1-.2,1,1.28,1.28,0,0,1-.5.7,1.49,1.49,0,0,1-1,.3,1.69,1.69,0,0,1-1-.3,1.34,1.34,0,0,1-.6-.7,2.92,2.92,0,0,1-.2-.9v-1a2.92,2.92,0,0,1,.2-.9,1.34,1.34,0,0,1,.6-.7,1.69,1.69,0,0,1,1-.3,1.49,1.49,0,0,1,1,.3,1.79,1.79,0,0,1,.5.7,3,3,0,0,1,.2,1Z"/><path class="cls-1" d="M12.5,125.1a2.73,2.73,0,0,0-1.6-.4,2.41,2.41,0,0,0-1.5.4,2.41,2.41,0,0,0-1,1,4.19,4.19,0,0,0-.4,1.6v.8a3.64,3.64,0,0,0,.8,2.2,2.86,2.86,0,0,0,2.1.8,5,5,0,0,0,1.2-.2,7.93,7.93,0,0,0,.9-.4c.3-.1.4-.4.5-.5a.76.76,0,0,0,.2-.5c0-.1,0-.2-.1-.2s-.1-.1-.2-.1h-.8l-.2.2q0,.15-.3.3a2.19,2.19,0,0,1-.5.3,2,2,0,0,1-.8.1,1.61,1.61,0,0,1-.9-.3,1.34,1.34,0,0,1-.6-.7,3,3,0,0,1-.2-1v-.2h4.4c.1,0,.2,0,.2-.1s.1-.1.1-.2v-.2a4,4,0,0,0-.3-1.7A3.14,3.14,0,0,0,12.5,125.1Zm.2,2.6H9.2a3,3,0,0,1,.2-1,1.34,1.34,0,0,1,.6-.7,1.61,1.61,0,0,1,.9-.3,1.4,1.4,0,0,1,.9.3,1.34,1.34,0,0,1,.6.7,1.49,1.49,0,0,1,.3,1Z"/><path class="cls-1" d="M18.8,124.9h-.5a3.59,3.59,0,0,0-1.1.2c-.3.1-.5.4-.7.6v-.6c0-.1,0-.2-.1-.2s-.1-.1-.2-.1h-.6c-.1,0-.2,0-.2.1s-.1.1-.1.2v6c0,.1,0,.2.1.2s.1.1.2.1h.6c.1,0,.2,0,.2-.1s.1-.1.1-.2v-3.7a1.38,1.38,0,0,1,1.5-1.5h.8c.1,0,.2,0,.2-.1s.1-.1.1-.2v-.5c0-.1,0-.2-.1-.2Z"/><path class="cls-1" d="M28.8,126.6a3.13,3.13,0,0,0-.5-1,2.7,2.7,0,0,0-.8-.7,2.17,2.17,0,0,0-1.2-.2,2.77,2.77,0,0,0-1.3.3,2.7,2.7,0,0,0-.8.7v-.6c0-.1,0-.2-.1-.2s-.1-.1-.2-.1h-.6c-.1,0-.2,0-.2.1s-.1.1-.1.2v8.4c0,.1,0,.2.1.2s.1.1.2.1h.6c.1,0,.2,0,.2-.1s.1-.1.1-.2v-2.9a2.7,2.7,0,0,0,.8.7,2.13,2.13,0,0,0,1.2.3,3.73,3.73,0,0,0,1.2-.2,1.78,1.78,0,0,0,.8-.7,3.13,3.13,0,0,0,.5-1,4.25,4.25,0,0,0,.2-1.1v-.8A2.25,2.25,0,0,0,28.8,126.6Zm-1,1.9a3,3,0,0,1-.2,1,1.28,1.28,0,0,1-.5.7,2.37,2.37,0,0,1-1,.3,1.69,1.69,0,0,1-1-.3,1.34,1.34,0,0,1-.6-.7,2.92,2.92,0,0,1-.2-.9v-1a2.92,2.92,0,0,1,.2-.9,1.34,1.34,0,0,1,.6-.7,1.69,1.69,0,0,1,1-.3,1.49,1.49,0,0,1,1,.3,1.79,1.79,0,0,1,.5.7,3,3,0,0,1,.2,1Z"/><path class="cls-1" d="M34.8,125.1a2.73,2.73,0,0,0-1.6-.4,2.86,2.86,0,0,0-2.5,1.4,3.77,3.77,0,0,0-.4,1.6v.8a3.64,3.64,0,0,0,.8,2.2,2.86,2.86,0,0,0,2.1.8,5,5,0,0,0,1.2-.2c.3-.1.6-.3.9-.4l.5-.5a.76.76,0,0,0,.2-.5c0-.1,0-.2-.1-.2s-.1-.1-.2-.1h-.8l-.2.2q0,.15-.3.3a2.19,2.19,0,0,1-.5.3,2,2,0,0,1-.8.1,1.61,1.61,0,0,1-.9-.3,1.34,1.34,0,0,1-.6-.7,3,3,0,0,1-.2-1v-.2h4.4c.1,0,.2,0,.2-.1s.1-.1.1-.2v-.2a4,4,0,0,0-.3-1.7A4.71,4.71,0,0,0,34.8,125.1Zm.1,2.6H31.4a3,3,0,0,1,.2-1,1.34,1.34,0,0,1,.6-.7,1.61,1.61,0,0,1,.9-.3,1.22,1.22,0,0,1,.9.3,1.34,1.34,0,0,1,.6.7c.3.2.3.6.3,1Z"/><path class="cls-1" d="M41.1,124.9h-.5a3.59,3.59,0,0,0-1.1.2c-.3.1-.5.4-.7.6v-.6c0-.1,0-.2-.1-.2s-.1-.1-.2-.1H38c-.1,0-.2,0-.2.1s-.1.1-.1.2v6c0,.1,0,.2.1.2s.1.1.2.1h.6c.1,0,.2,0,.2-.1s.1-.1.1-.2v-3.7a1.38,1.38,0,0,1,1.5-1.5h.8c.1,0,.2,0,.2-.1s.1-.1.1-.2v-.5c0-.1,0-.2-.1-.2Z"/><path class="cls-1" d="M46.6,128.2a4,4,0,0,0-1.3-.4,10.38,10.38,0,0,1-1.2-.3,1.07,1.07,0,0,1-.5-.3.6.6,0,0,1-.1-.4.91.91,0,0,1,.3-.7,1.33,1.33,0,0,1,1-.3,1.48,1.48,0,0,1,.7.1,1.38,1.38,0,0,1,.4.3l.3.3.1.1h.6c.1,0,.1,0,.2-.1s.1-.1.1-.2-.1-.2-.2-.4-.3-.3-.5-.5a2,2,0,0,0-.8-.4,3.59,3.59,0,0,0-1.1-.2,2.5,2.5,0,0,0-1.3.3,1.85,1.85,0,0,0-.8.7,1.61,1.61,0,0,0-.3.9,1.88,1.88,0,0,0,.2.8,1.7,1.7,0,0,0,.6.6,3.37,3.37,0,0,0,1.2.4,10.38,10.38,0,0,1,1.2.3,1.63,1.63,0,0,1,.6.3.76.76,0,0,1,.2.5.67.67,0,0,1-.4.7,1.82,1.82,0,0,1-1.1.2,1.48,1.48,0,0,1-.7-.1,2.19,2.19,0,0,1-.5-.3c-.1-.1-.3-.2-.4-.4l-.1-.1h-.7c-.1,0-.1,0-.2.1s-.1.1-.1.2.1.2.2.4.3.3.5.5a2,2,0,0,0,.8.4,3.73,3.73,0,0,0,1.2.2,3.34,3.34,0,0,0,1.5-.3,2.18,2.18,0,0,0,.9-.7,1.69,1.69,0,0,0,.3-1,1.88,1.88,0,0,0-.2-.8C47.1,128.6,46.9,128.3,46.6,128.2Z"/><path class="cls-1" d="M54.2,126.1a2.41,2.41,0,0,0-1-1,3.77,3.77,0,0,0-1.6-.4,2.73,2.73,0,0,0-1.6.4,2.41,2.41,0,0,0-1,1,3.31,3.31,0,0,0-.4,1.5v1.1a3.31,3.31,0,0,0,.4,1.5,2.41,2.41,0,0,0,1,1,3.77,3.77,0,0,0,1.6.4,2.73,2.73,0,0,0,1.6-.4,3.18,3.18,0,0,0,1-1,3.31,3.31,0,0,0,.4-1.5v-1.1A2.82,2.82,0,0,0,54.2,126.1Zm-.8,2.5a2.46,2.46,0,0,1-.5,1.5,1.73,1.73,0,0,1-1.3.5,2.11,2.11,0,0,1-1.3-.5,1.72,1.72,0,0,1-.5-1.5v-1a2.46,2.46,0,0,1,.5-1.5,1.43,1.43,0,0,1,1.3-.5,2.11,2.11,0,0,1,1.3.5,2.07,2.07,0,0,1,.5,1.5v1Z"/><path class="cls-1" d="M60.9,125.1a3.26,3.26,0,0,0-1.4-.4,2.5,2.5,0,0,0-1.3.3,2.7,2.7,0,0,0-.8.7v-.6c0-.1,0-.2-.1-.2s-.1-.1-.2-.1h-.6c-.1,0-.2,0-.2.1s-.1.1-.1.2v6c0,.1,0,.2.1.2s.1.1.2.1h.6c.1,0,.2,0,.2-.1s.1-.1.1-.2v-3.5a2,2,0,0,1,.5-1.4,1.94,1.94,0,0,1,2.6,0,2,2,0,0,1,.4,1.4v3.5c0,.1,0,.2.1.2s.1.1.2.1h.6c.1,0,.2,0,.2-.1s.1-.1.1-.2v-3.6a3.34,3.34,0,0,0-.3-1.5A2,2,0,0,0,60.9,125.1Z"/><path class="cls-1" d="M2.5,11.9c.1-.1.1-.2.2-.2l.7-1.9H8.2l.7,1.9c0,.1.1.1.2.2s.1.1.3.1h1.8a.37.37,0,0,0,.3-.1.31.31,0,0,0,.1-.2v-.2L7.6.6c0-.1-.1-.2-.2-.3S7,.2,6.8.2H4.7c-.2,0-.3,0-.4.1L4,.6,0,11.5v.2c0,.1,0,.2.1.2a.37.37,0,0,0,.3.1H2.2A.37.37,0,0,0,2.5,11.9ZM5.8,2.7,7.5,7.6H4Z"/><path class="cls-1" d="M20.8.6A6.05,6.05,0,0,0,18.4.2H13.8a.37.37,0,0,0-.3.1.37.37,0,0,0-.1.3v11a.35.35,0,0,0,.4.4h1.9a.35.35,0,0,0,.4-.4V7.8h2.3a6.05,6.05,0,0,0,2.4-.4,4,4,0,0,0,1.6-1.2A3.7,3.7,0,0,0,23,4.1,3.28,3.28,0,0,0,22.4,2,3.11,3.11,0,0,0,20.8.6ZM19.7,5.2a1.84,1.84,0,0,1-1.3.4H16.2V2.3h2.2a2,2,0,0,1,1.4.5A2.13,2.13,0,0,1,20.1,4,1.46,1.46,0,0,1,19.7,5.2Z"/><path class="cls-1" d="M25.5,12h1.9a.35.35,0,0,0,.4-.4V7.7h2l2.1,3.9c0,.1.1.2.2.3a.76.76,0,0,0,.5.2h1.9c.1,0,.2,0,.2-.1a.31.31,0,0,0,.1-.2c0-.1,0-.1-.1-.2L32.3,7.4A4.74,4.74,0,0,0,34,6a3.48,3.48,0,0,0,.6-2.1,3.36,3.36,0,0,0-1.2-2.8,5.4,5.4,0,0,0-3.3-1H25.6a.37.37,0,0,0-.3.1.37.37,0,0,0-.1.3v11a.37.37,0,0,0,.1.3C25.3,12,25.4,12,25.5,12Zm2.3-9.7H30a2,2,0,0,1,1.4.4,1.59,1.59,0,0,1,.4,1.2,1.59,1.59,0,0,1-.4,1.2,2.12,2.12,0,0,1-1.4.4H27.8Z"/><path class="cls-1" d="M37.3,10.1A3.53,3.53,0,0,0,39,11.6a6.84,6.84,0,0,0,2.7.5,6.69,6.69,0,0,0,2.6-.5,4.28,4.28,0,0,0,1.8-1.5,5,5,0,0,0,.7-2.6V4.6A5.28,5.28,0,0,0,46.1,2,4,4,0,0,0,44.3.4,5.49,5.49,0,0,0,41.7,0a6.69,6.69,0,0,0-2.6.5,4,4,0,0,0-1.8,1.6,5,5,0,0,0-.7,2.6V7.6A5.69,5.69,0,0,0,37.3,10.1Zm2.1-5.4a2.65,2.65,0,0,1,.3-1.4,2,2,0,0,1,.8-.8,2.13,2.13,0,0,1,1.2-.3,2.66,2.66,0,0,1,1.2.3,2,2,0,0,1,.8.8A2.65,2.65,0,0,1,44,4.7V7.5a2.23,2.23,0,0,1-.7,1.9,2.27,2.27,0,0,1-1.6.6,2.11,2.11,0,0,1-1.6-.6,3,3,0,0,1-.7-1.9V4.7Z"/><path class="cls-1" d="M58.4,12c.1,0,.2,0,.2-.1a.35.35,0,0,1,.1-.2v-.2L55,6,58.5.8c0-.1.1-.1.1-.2s0-.2-.1-.2a.37.37,0,0,0-.3-.1h-2a.6.6,0,0,0-.4.1l-.2.2L53.3,4,51,.6c0-.1-.1-.1-.2-.2s-.2-.1-.4-.1H48.3a.37.37,0,0,0-.3.1.31.31,0,0,0-.1.2c0,.1,0,.1.1.2L51.6,6l-3.7,5.5v.2c0,.1,0,.2.1.2s.2.1.3.1h2.1c.1,0,.3,0,.3-.1l.2-.2,2.4-3.5,2.5,3.5c0,.1.1.1.2.2s.1.1.3.1Z"/><path class="cls-1" d="M61.1,12H63a.35.35,0,0,0,.4-.4V.6a.37.37,0,0,0-.1-.3A.37.37,0,0,0,63,.2H61.1a.37.37,0,0,0-.3.1.37.37,0,0,0-.1.3v11a.35.35,0,0,0,.4.4Z"/><path class="cls-1" d="M66.8,12h1.7a.35.35,0,0,0,.4-.4V4.8l2.1,4c.1.1.1.2.2.3s.2.1.4.1h.8c.2,0,.3,0,.4-.1s.2-.2.2-.3l2.1-4v6.8a.35.35,0,0,0,.4.4h1.7a.35.35,0,0,0,.4-.4V.6a.37.37,0,0,0-.1-.3.37.37,0,0,0-.3-.1H75.6c-.2,0-.3,0-.4.1s-.1.2-.2.2L71.9,6.2,68.8.5,68.6.3c-.1-.1-.2-.1-.4-.1H66.6a.37.37,0,0,0-.3.1.37.37,0,0,0-.1.3v11a.37.37,0,0,0,.1.3A1.34,1.34,0,0,0,66.8,12Z"/><path class="cls-1" d="M91,11.9a.31.31,0,0,0,.1-.2v-.2L87.1.6c0-.1-.1-.2-.2-.3s-.2-.1-.4-.1H84.3c-.2,0-.3,0-.4.1s-.2.2-.2.3l-4,10.9v.2c0,.1,0,.2.1.2s.1.1.2.1h1.8c.2,0,.3,0,.4-.1s.1-.2.2-.2L83,9.8h4.8l.7,1.9c0,.1.1.1.2.2s.1.1.3.1h1.8C90.9,12,90.9,12,91,11.9ZM83.6,7.6l1.7-4.9L87,7.6Z"/><path class="cls-1" d="M91.3,2.5h3.1v9.1a.35.35,0,0,0,.4.4h1.9a.35.35,0,0,0,.4-.4V2.5h3.1a.35.35,0,0,0,.4-.4V.6a.37.37,0,0,0-.1-.3.37.37,0,0,0-.3-.1H91.3a.37.37,0,0,0-.3.1.37.37,0,0,0-.1.3V2.1a.35.35,0,0,0,.4.4Z"/><path class="cls-1" d="M103,12h7.8a.35.35,0,0,0,.4-.4V10.2a.35.35,0,0,0-.4-.4h-5.6V7.1h5.1a.35.35,0,0,0,.4-.4V5.4a.37.37,0,0,0-.1-.3c0-.1-.1-.1-.2-.1h-5.1V2.4h5.5a.35.35,0,0,0,.4-.4V.6a.37.37,0,0,0-.1-.3.37.37,0,0,0-.3-.1H103a.37.37,0,0,0-.3.1.37.37,0,0,0-.1.3v11a.35.35,0,0,0,.4.4Z"/><path class="cls-1" d="M8.5,20.9a6.05,6.05,0,0,0-2.4-.4H1.5a.37.37,0,0,0-.3.1c-.1.1-.2.2-.2.3v11a.35.35,0,0,0,.4.4H3.3a.35.35,0,0,0,.4-.4V28.1H6a6.05,6.05,0,0,0,2.4-.4A4,4,0,0,0,10,26.5a3.7,3.7,0,0,0,.6-2.1,3.28,3.28,0,0,0-.6-2.1A2.59,2.59,0,0,0,8.5,20.9ZM7.3,25.5A1.73,1.73,0,0,1,6,26H3.8V22.6H6a2,2,0,0,1,1.4.5,1.59,1.59,0,0,1,.4,1.2A1.25,1.25,0,0,1,7.3,25.5Z"/><path class="cls-1" d="M20,27.5a4,4,0,0,0,1.6-1.2,3.48,3.48,0,0,0,.6-2.1A3.36,3.36,0,0,0,21,21.4a5.4,5.4,0,0,0-3.3-1H13.2a.35.35,0,0,0-.4.4v11a.35.35,0,0,0,.4.4H15a.35.35,0,0,0,.4-.4V28h2l2.1,3.9c0,.1.1.2.2.3a.76.76,0,0,0,.5.2h1.9c.1,0,.2,0,.2-.1a.31.31,0,0,0,.1-.2c0-.1,0-.1-.1-.2Zm-1-2.1a2,2,0,0,1-1.4.4H15.4V22.6h2.2A2,2,0,0,1,19,23a1.59,1.59,0,0,1,.4,1.2A1.59,1.59,0,0,1,19,25.4Z"/><path class="cls-1" d="M25.1,32.3H27a.35.35,0,0,0,.4-.4v-11a.35.35,0,0,0-.4-.4H25.1a.35.35,0,0,0-.4.4v11a.35.35,0,0,0,.4.4Z"/><path class="cls-1" d="M30.7,22.4a6.12,6.12,0,0,0-.7,2.5v3a4.9,4.9,0,0,0,.7,2.5A4.36,4.36,0,0,0,32.4,32a5.44,5.44,0,0,0,2.7.5,6.65,6.65,0,0,0,2.1-.3,8,8,0,0,0,1.6-.8,4.49,4.49,0,0,0,1.1-1.3,2.93,2.93,0,0,0,.4-1.6.35.35,0,0,0-.4-.4H38a.37.37,0,0,0-.3.1c-.1.1-.1.2-.2.3a2.37,2.37,0,0,1-.8,1.4,3.31,3.31,0,0,1-1.5.4,2.11,2.11,0,0,1-1.6-.6,3,3,0,0,1-.7-1.9V25a2.56,2.56,0,0,1,.7-1.9,2.27,2.27,0,0,1,1.6-.6,2.41,2.41,0,0,1,1.5.4,1.77,1.77,0,0,1,.8,1.4c0,.2.1.3.2.3s.2.1.3.1h1.9a.35.35,0,0,0,.4-.4,2.93,2.93,0,0,0-.4-1.6,4.49,4.49,0,0,0-1.1-1.3,4.81,4.81,0,0,0-1.6-.8,6.65,6.65,0,0,0-2.1-.3,7.63,7.63,0,0,0-2.7.5A4.36,4.36,0,0,0,30.7,22.4Z"/><path class="cls-1" d="M50.6,22.7a.35.35,0,0,0,.4-.4V20.9a.35.35,0,0,0-.4-.4H43a.35.35,0,0,0-.4.4v11a.35.35,0,0,0,.4.4h7.8a.35.35,0,0,0,.4-.4V30.5a.35.35,0,0,0-.4-.4H45.2V27.4h5.1a.35.35,0,0,0,.4-.4V25.7a.35.35,0,0,0-.4-.4H45.2V22.7Z"/><path class="cls-1" d="M20.75,114.4a1,1,0,0,1-.78-.35,1.28,1.28,0,0,1-.31-.88V92.35l-5.25,4.54a1,1,0,0,1-.82.19,1.29,1.29,0,0,1-.74-.57L9.79,92a1.67,1.67,0,0,1-.15-1,1.11,1.11,0,0,1,.48-.8L20,81.61a1.2,1.2,0,0,1,.42-.26,1.47,1.47,0,0,1,.5-.07h6.6a1.07,1.07,0,0,1,.79.35,1.21,1.21,0,0,1,.34.88v30.66a1.21,1.21,0,0,1-.34.88,1.07,1.07,0,0,1-.79.35Z"/><path class="cls-1" d="M47.34,114.4a1,1,0,0,1-.78-.35,1.29,1.29,0,0,1-.32-.88v-4.68H33.43a1,1,0,0,1-.77-.36,1.28,1.28,0,0,1-.32-.87v-5.64a2.26,2.26,0,0,1,.15-.87,2.69,2.69,0,0,1,.32-.59l12-18.08a1.84,1.84,0,0,1,1.55-.8h7.44a1,1,0,0,1,.77.35,1.29,1.29,0,0,1,.32.88v17.65h3.69a1,1,0,0,1,.8.35,1.32,1.32,0,0,1,.3.88v5.87a1.28,1.28,0,0,1-.32.87,1,1,0,0,1-.78.36H54.94v4.68a1.29,1.29,0,0,1-.32.88,1,1,0,0,1-.77.35Zm-6.6-13.82H46.5v-9Z"/><path class="cls-1" d="M67.87,114.4a.84.84,0,0,1-.65-.31,1.06,1.06,0,0,1-.27-.73A.82.82,0,0,1,67,113a1.47,1.47,0,0,0,.13-.24l5.71-8.7a2.43,2.43,0,0,1-.8,0,10.64,10.64,0,0,1-3.46-1,12.43,12.43,0,0,1-3.3-2.2,10.6,10.6,0,0,1-2.43-3.43A11,11,0,0,1,62,92.87a13,13,0,0,1,.8-4.49,11.2,11.2,0,0,1,2.39-3.88,11.36,11.36,0,0,1,4-2.7,14.19,14.19,0,0,1,5.49-1,16.39,16.39,0,0,1,5.56.87,11.12,11.12,0,0,1,4,2.46,10.57,10.57,0,0,1,2.5,3.72,12.08,12.08,0,0,1,.86,4.63,11.62,11.62,0,0,1-.75,4.19,22.42,22.42,0,0,1-1.89,3.76l-2.31,3.65-6.14,9.36a4.51,4.51,0,0,1-.52.6,1.5,1.5,0,0,1-1.07.35Zm6.85-17.55a3.42,3.42,0,0,0,1.83-.48A3.31,3.31,0,0,0,77.79,95a4.71,4.71,0,0,0,.46-2.13,4.84,4.84,0,0,0-.46-2.18,3.41,3.41,0,0,0-1.26-1.37,3.56,3.56,0,0,0-1.81-.47,3.61,3.61,0,0,0-1.85.47,3.41,3.41,0,0,0-1.26,1.37,4.71,4.71,0,0,0-.46,2.18A4.58,4.58,0,0,0,71.61,95a3.29,3.29,0,0,0,1.26,1.37A3.52,3.52,0,0,0,74.72,96.85Z"/></g></g></svg>