<svg id="Layer_1" data-name="Layer 1" xmlns="http://www.w3.org/2000/svg" viewBox="0 0 71.72 20.32"><defs><style>.cls-1{fill:#fff;}</style></defs><title>main-phrase1</title><path class="cls-1" d="M3.7,6.83H1.29l-.38.82H0l2.35-5h.3L5,7.65H4.08ZM2.5,4.12l-.9,2H3.39Z"/><path class="cls-1" d="M10,1.86H7.63V0h6.81V1.86H12.07V7.92H10Z"/><path class="cls-1" d="M20.25,7.92,18.46,5.46h-.85V7.92H15.55V0h3.1a2.77,2.77,0,0,1,3.06,2.72A2.59,2.59,0,0,1,20.46,5l2.09,2.94ZM17.61,3.66h1.06a.88.88,0,0,0,.94-.94.87.87,0,0,0-.94-.92H17.61Z"/><path class="cls-1" d="M23.56,0h2.07V7.92H23.56Z"/><path class="cls-1" d="M27.4,0h3.11a2.78,2.78,0,0,1,3.06,2.72,2.82,2.82,0,0,1-3.06,2.74h-1V7.92H27.4Zm3.12,3.66a.88.88,0,0,0,.95-.94.87.87,0,0,0-.95-.92H29.47V3.66Z"/><path class="cls-1" d="M39.25,3.43H37.64v-.7h4v.7H40V7.57h-.77Z"/><path class="cls-1" d="M44.48,2.65A2.5,2.5,0,1,1,42,5.15,2.49,2.49,0,0,1,44.48,2.65Zm0,.71a1.71,1.71,0,0,0-1.73,1.78,1.73,1.73,0,1,0,3.45,0A1.72,1.72,0,0,0,44.49,3.36Z"/><path class="cls-1" d="M12.7,20.32l-1.79-2.46h-.85v2.46H8V12.4h3.1a2.78,2.78,0,0,1,3.06,2.72,2.59,2.59,0,0,1-1.25,2.26L15,20.32Zm-2.64-4.26h1a.88.88,0,0,0,1-.94.87.87,0,0,0-1-.92h-1Z"/><path class="cls-1" d="M16,12.4H21.5v1.86H18.07v1.09h2.45v1.73H18.07v1.38h3.58v1.86H16Z"/><path class="cls-1" d="M31.19,12.26v8.06H29.12V17l-1.64,1.92h-.66L25.19,17v3.31H23.13V12.26h.66l3.37,4.11,3.37-4.11Z"/><path class="cls-1" d="M33,12.4h5.49v1.86H35v1.09h2.45v1.73H35v1.38H38.6v1.86H33Z"/><path class="cls-1" d="M48.14,12.26v8.06H46.08V17l-1.64,1.92h-.66L42.15,17v3.31H40.08V12.26h.66l3.37,4.11,3.37-4.11Z"/><path class="cls-1" d="M53.62,20.32h-3.7V12.4h2.86a2.44,2.44,0,0,1,2.67,2.34A1.88,1.88,0,0,1,55,16.07,2,2,0,0,1,56.29,18,2.46,2.46,0,0,1,53.62,20.32ZM51.9,14.14v1.39h.74a.7.7,0,0,0,.8-.7c0-.41-.3-.69-.8-.69Zm1.58,3.05H51.9v1.39h1.58c.5,0,.8-.23.8-.7S54,17.19,53.48,17.19Z"/><path class="cls-1" d="M57.6,12.4h5.49v1.86H59.67v1.09h2.44v1.73H59.67v1.38h3.57v1.86H57.6Z"/><path class="cls-1" d="M69.42,20.32l-1.79-2.46h-.85v2.46H64.72V12.4h3.1a2.77,2.77,0,0,1,3.06,2.72,2.58,2.58,0,0,1-1.24,2.26l2.08,2.94Zm-2.64-4.26h1.06a.88.88,0,0,0,.94-.94.87.87,0,0,0-.94-.92H66.78Z"/></svg>