<?xml version="1.0" encoding="utf-8"?>
<!-- Generator: Adobe Illustrator 24.1.2, SVG Export Plug-In . SVG Version: 6.00 Build 0)  -->
<svg version="1.1" id="Layer_1" xmlns="http://www.w3.org/2000/svg" xmlns:xlink="http://www.w3.org/1999/xlink" x="0px" y="0px"
	 viewBox="0 0 589.5 167.2" style="enable-background:new 0 0 589.5 167.2;" xml:space="preserve">
<style type="text/css">
	.st0{fill:#FFFFFF;}
</style>
<g>
	<path class="st0" d="M28.4,63.2l-2.2-5H10.5l-2.2,5H0l17.1-39h2.6l17.1,39H28.4z M23.7,52.2l-5.3-13.3l-5.3,13.3H23.7z"/>
	<g>
		<path class="st0" d="M524.1,64.2v-32h-13v-7h33v7h-12v32H524.1z"/>
		<path class="st0" d="M547.2,44c-0.1-5.6,2-10.4,6.1-14.5c4.2-4.1,9.1-6,14.8-5.9c5.7-0.1,10.6,1.9,14.8,5.9
			c4.2,4.1,6.3,8.9,6.2,14.5c0.1,5.6-2,10.4-6.2,14.5c-4.2,4.1-9.1,6-14.8,5.9c-5.7,0.1-10.6-1.9-14.8-5.9
			C549.2,54.5,547.1,49.6,547.2,44z M580.8,44c0-3.7-1.2-6.8-3.6-9.3c-2.4-2.4-5.4-3.7-9-3.7c-3.7,0-6.7,1.2-9.1,3.6
			c-2.4,2.4-3.6,5.5-3.6,9.3c0,3.8,1.2,6.9,3.6,9.3c2.4,2.4,5.4,3.6,9.1,3.6c3.6,0,6.6-1.2,9-3.6C579.6,50.9,580.8,47.8,580.8,44z"
			/>
	</g>
	<g>
		<path class="st0" d="M62.5,50.1l10.8-8.2c2,2.6,4,4.6,6.1,5.9c2.1,1.3,4.6,2,7.5,2c4.2,0,6.3-1.5,6.3-4.5c0-1.3-0.4-2.3-1.2-3
			c-0.8-0.7-2.5-1.6-5-2.7l-6.3-2.8c-10.3-4.6-15.5-10.7-15.5-18.5c0-5.4,2-9.8,6-13.1s9.1-5,15.5-5c9.9,0,16.9,4.1,21,12.4L97,20.8
			c-1.5-2.3-3.1-3.9-4.6-5c-1.5-1-3.4-1.5-5.5-1.5c-3.7,0-5.5,1.3-5.5,3.9c0,1.1,0.4,2,1.2,2.7c0.8,0.7,2.2,1.5,4.1,2.3l7.1,3
			c5.4,2.3,9.4,4.9,11.9,7.8s3.8,6.5,3.8,10.7c0,5.8-2.1,10.5-6.4,13.9c-4.2,3.5-9.6,5.2-16.1,5.2c-5.4,0-10.3-1.2-14.6-3.7
			C68,57.7,64.8,54.3,62.5,50.1z"/>
		<path class="st0" d="M138.1,63.2v-47h-19v-15h53v15h-18v47H138.1z"/>
		<path class="st0" d="M218.2,62.2l-2.4-5h-23.7l-2.4,5h-16l27.7-62h5.1l27.7,62H218.2z M209.3,44.2L204,30l-5.4,14.2H209.3z"/>
		<path class="st0" d="M241.3,31.8c-0.1-8.8,3.1-16.3,9.6-22.6c6.5-6.3,14.4-9.3,23.6-9.2c11.4,0,20.2,4.6,26.3,13.7l-11.1,9.5
			c-4-5.6-9.2-8.5-15.5-8.5c-5.1,0-9.2,1.5-12.2,4.6c-3,3.1-4.5,7.2-4.5,12.4c0,5.3,1.6,9.5,4.8,12.7c3.2,3.2,7.5,4.8,12.8,4.8
			c5.8,0,14-5.5,14-5.5v-2.7h-15v-14h30v19.4c-2.5,5.1-6.5,9.2-11.9,12.4c-5.3,3.1-11.2,4.6-17.8,4.6c-9.2,0.1-17.1-2.9-23.6-9.1
			C244.4,48.2,241.2,40.6,241.3,31.8z"/>
		<path class="st0" d="M348.1,62.2v-61h21.3c9.5-0.1,17.4,2.7,23.8,8.3c6.4,5.7,9.6,13,9.4,22c0.1,8.9-3,16.3-9.5,22.1
			c-6.4,5.8-14.4,8.7-23.8,8.5H348.1z M364.1,49.2h5.4c5.2,0,9.4-1.5,12.6-4.5c3.2-3,4.9-7.1,4.9-12.2c0-5.2-1.6-9.2-4.8-12
			c-3.2-2.8-7.4-4.3-12.7-4.3h-5.4V49.2z"/>
		<path class="st0" d="M415.9,32.1c-0.2-8.7,3-16.3,9.6-22.6c6.6-6.3,14.4-9.4,23.4-9.2c9-0.2,16.8,2.9,23.4,9.2
			c6.7,6.3,9.9,13.8,9.7,22.6c0.2,8.8-3.1,16.3-9.7,22.6c-6.7,6.3-14.5,9.3-23.4,9.2c-9,0.1-16.8-2.9-23.4-9.2
			C418.9,48.4,415.7,40.9,415.9,32.1z M465.7,32.1c0-5-1.6-9.1-4.8-12.3c-3.2-3.2-7.2-4.8-11.9-4.8c-5,0-9,1.6-12.1,4.7
			c-3.1,3.2-4.6,7.3-4.6,12.4c0,5.1,1.5,9.2,4.6,12.4c3.1,3.1,7.1,4.6,12.1,4.6c4.8,0,8.8-1.6,12-4.7
			C464.1,41.3,465.7,37.1,465.7,32.1z"/>
	</g>
	<path class="st0" d="M116.5,166.2H98.5l-13.8-19h-6.6v19h-16v-61h24.1c6.9,0,12.6,1.9,17,5.8c4.5,3.9,6.7,8.9,6.7,15.2
		c0,7.6-3.2,13.4-9.7,17.4L116.5,166.2z M78.1,118.2v15h8.5c2.3,0,4.2-0.7,5.6-2.1c1.4-1.4,2.1-3.2,2.1-5.5c0-2.3-0.7-4.1-2.1-5.4
		c-1.4-1.4-3.2-2-5.6-2H78.1z"/>
	<path class="st0" d="M127.1,167.2v-63h43v15h-27v9h19v13h-19v11h28v15H127.1z"/>
	<path class="st0" d="M245.1,104.2h5.1v62h-16v-26l-12.9,15H216l-12.9-14.9v25.9h-15v-62h5.1l25.9,31.6L245.1,104.2z"/>
	<path class="st0" d="M269.1,167.2v-63h42v15h-26v9h19v13h-19v11h28v15H269.1z"/>
	<path class="st0" d="M387.1,104.2h5.1v62h-16v-26l-12.9,15H358l-12.9-14.9v25.9h-15v-62h5.1l25.9,31.6L387.1,104.2z"/>
	<path class="st0" d="M460.2,148c0,5.2-2,9.6-5.9,13c-3.9,3.4-8.8,5.1-14.7,5.1h-28.5v-61h22c5.9,0,10.8,1.7,14.7,5
		c3.9,3.4,5.9,7.7,5.9,13c0,4.1-1.2,7.5-3.7,10.3C456.8,136.2,460.2,141.1,460.2,148z M432,118.2h-5.9v11h5.9c2,0,3.5-0.5,4.6-1.5
		c1.1-1,1.7-2.3,1.7-4c0-1.6-0.6-3-1.7-4C435.5,118.7,434,118.2,432,118.2z M444.9,147.7c0-3.7-2.1-5.5-6.3-5.5h-12.5v11h12.5
		C442.8,153.2,444.9,151.3,444.9,147.7z"/>
	<path class="st0" d="M474.1,167.2v-63h43v15h-27v9h19v13h-19v11h28v15H474.1z"/>
	<path class="st0" d="M589.5,166.2h-17.9l-13.8-19h-6.6v19h-16v-61h24.1c6.9,0,12.6,1.9,17,5.8c4.5,3.9,6.7,8.9,6.7,15.2
		c0,7.6-3.2,13.4-9.7,17.4L589.5,166.2z M550.1,118.2v15h8.5c2.3,0,4.2-0.7,5.6-2.1c1.4-1.4,2.1-3.2,2.1-5.5c0-2.3-0.7-4.1-2.1-5.4
		c-1.4-1.4-3.2-2-5.6-2H550.1z"/>
</g>
</svg>
