<?xml version="1.0" encoding="utf-8"?>
<!-- Generator: Adobe Illustrator 22.1.0, SVG Export Plug-In . SVG Version: 6.00 Build 0)  -->
<svg version="1.1" id="Layer_1" xmlns="http://www.w3.org/2000/svg" xmlns:xlink="http://www.w3.org/1999/xlink" x="0px" y="0px"
	 viewBox="0 0 1280 300" style="enable-background:new 0 0 1280 300;" xml:space="preserve">
<g>
	<path d="M190.8,144.3c0,3.2-0.5,6.4-1.6,9.5c-1.1,3.1-2.8,6-5.2,8.6c-2.4,2.6-5.6,4.7-9.5,6.3c-3.9,1.6-8.8,2.4-14.6,2.4
		c-7.6,0-14-1.7-19.1-5.1c-5.1-3.4-8.4-8.4-9.8-15.2l12.8-2.3c0.8,3.7,2.6,6.7,5.3,8.8c2.7,2.2,6.3,3.3,10.9,3.3
		c3.7,0,6.7-0.6,9-1.7c2.3-1.2,4.1-2.7,5.4-4.5c1.3-1.9,2.2-4,2.7-6.5c0.5-2.4,0.8-4.9,0.8-7.5v-66h12.8V144.3z"/>
	<path d="M267.9,171c-8.3,0-15.8-1.2-22.7-3.7c-6.9-2.5-12.8-5.9-17.9-10.3c-5-4.4-9-9.6-11.8-15.7c-2.8-6.1-4.2-12.7-4.2-19.8
		c0-7.1,1.4-13.7,4.2-19.8c2.8-6.1,6.7-11.3,11.8-15.7c5-4.4,11-7.8,17.9-10.3c6.9-2.5,14.4-3.7,22.7-3.7c8.3,0,15.8,1.2,22.7,3.7
		c6.9,2.5,12.8,5.9,17.9,10.3c5,4.4,9,9.6,11.8,15.7c2.8,6.1,4.2,12.7,4.2,19.8c0,7.1-1.4,13.7-4.2,19.8
		c-2.8,6.1-6.7,11.3-11.8,15.7c-5,4.4-11,7.8-17.9,10.3C283.8,169.8,276.2,171,267.9,171z M267.9,160.6c6.3,0,12.1-1,17.3-3.1
		c5.2-2,9.8-4.8,13.5-8.4c3.8-3.5,6.7-7.7,8.8-12.4c2.1-4.7,3.1-9.8,3.1-15.2c0-5.4-1-10.5-3.1-15.2c-2.1-4.7-5-8.9-8.8-12.4
		c-3.8-3.5-8.3-6.3-13.5-8.4c-5.2-2-11-3.1-17.3-3.1c-6.3,0-12.1,1-17.3,3.1c-5.2,2-9.8,4.8-13.5,8.4c-3.8,3.5-6.7,7.7-8.8,12.4
		c-2.1,4.7-3.1,9.8-3.1,15.2c0,5.4,1,10.5,3.1,15.2c2.1,4.7,5,8.9,8.8,12.4c3.8,3.5,8.3,6.3,13.5,8.4
		C255.8,159.6,261.6,160.6,267.9,160.6z"/>
	<path d="M370.6,128l-40.3-53.6h16.4l30.4,42.6l31.3-42.6h15.4L383.5,128v40.6h-12.8V128z"/>
	<path d="M435.9,74.4H503v10.4h-54.3v31.1h50.4v10.4h-50.4v42.3h-12.8V74.4z"/>
	<path d="M602,132.7c0,5.1-0.7,10-2.2,14.6c-1.5,4.6-3.8,8.7-7,12.2c-3.2,3.5-7.4,6.3-12.6,8.4c-5.2,2.1-11.5,3.1-19,3.1
		c-7.4,0-13.8-1-19-3.1c-5.2-2.1-9.4-4.9-12.6-8.4c-3.2-3.5-5.6-7.6-7-12.2c-1.5-4.6-2.2-9.5-2.2-14.6V74.4h12.8v56.7
		c0,3.8,0.5,7.5,1.4,11c0.9,3.6,2.4,6.7,4.6,9.4c2.1,2.8,5,4.9,8.6,6.6c3.6,1.6,8,2.5,13.5,2.5c5.4,0,9.9-0.8,13.4-2.5
		c3.6-1.6,6.4-3.8,8.6-6.6c2.1-2.8,3.7-5.9,4.6-9.4c0.9-3.5,1.4-7.2,1.4-11V74.4H602V132.7z"/>
	<path d="M628.5,74.4h12.8v83.8h49.5v10.4h-62.4V74.4z"/>
	<path d="M747.4,74.4h19.1l36.7,73.9h0.3l37-73.9h18.6v94.2h-12.8v-79h-0.3l-38.8,79h-7.8l-38.8-79h-0.3v79h-12.8V74.4z"/>
	<path d="M921.1,74.4h12.1l46,94.2h-15l-11-23.2h-54.1L888,168.6h-14.5L921.1,74.4z M926.9,88.8h-0.3l-22.5,46.3h44.2L926.9,88.8z"
		/>
	<path d="M1052.1,84.8h-35.8v83.8h-12.8V84.8h-35.8V74.4h84.4V84.8z"/>
	<path d="M1067.2,74.4h68v10.4h-55.2v29.5h51.5v10.4h-51.5v33.5h57.9v10.4h-70.8V74.4z"/>
</g>
</svg>
