<?xml version="1.0" encoding="utf-8"?>
<!-- Generator: Adobe Illustrator 24.1.2, SVG Export Plug-In . SVG Version: 6.00 Build 0)  -->
<svg version="1.1" id="Layer_1" xmlns="http://www.w3.org/2000/svg" xmlns:xlink="http://www.w3.org/1999/xlink" x="0px" y="0px"
	 viewBox="0 0 1920 2014" style="enable-background:new 0 0 1920 2014;" xml:space="preserve">
<style type="text/css">
	.st0{opacity:0.5;fill:#00115B;enable-background:new    ;}
</style>
<path class="st0" d="M390.5,1850.8c2.1-25.8-2-52.4-10.9-79.9c-7.8-24-13.9-48.7-23.6-71.9c-50.1-119.9-101.5-239.2-151.1-359.2
	c-4.6-11.2-5.5-31.7,1.3-38.7c62.9-65.1,128.2-127.9,192.2-191.9c46-45.9,85.9-94.5,96.2-163.1c6.2-41.4,19.8-82.5,35.8-121.4
	c39.7-48.4,40-101.5,26.6-130.6c-2.2-4.7-1.4-4.3-5.9-8.8c-3.5-3.5-2.1-0.5-9.6-2.3c-30.2-7.4-90.4-37.6-104.1-47.9
	c-55.6-41.7-80.9-73-68.7-146.4c18.9-114.2,3.3-248.8-25.9-360.7c-8.2-31.5-21.5-67.6-44.4-88.4C283.7,26,269,13,254.2,0H4.1
	c82.5,83,128.6,182.6,182.2,276.7c-26.7,45.8-72.6,25.4-109.2,33.8c-24.7,5.7-50.8,5.6-77.2,7.6v398.7C13.3,753.2-5,810.5,43.5,854
	c-3-27,5-28,7-27c14.6,7.3-13,94,91,175c-10-118,44-131,59.1-159.1c33.7,97-17.2,195-109.2,218.9c-29.9,7.8-59.7,16.1-91.4,24.7
	v458.6c9.7,22.2,25.5,57.3,47,105.9c96,160,155,183,154,203c-45.2-19.6-136.1,20.4-201,64.2v111.7c54.4-9.7,116.9-20.7,174.2-32.5
	C240.6,1943.7,315.2,1896.6,390.5,1850.8z"/>
</svg>
