<svg height="512pt" viewBox="0 0 512.00013 512" width="512pt" fill="#fff" xmlns="http://www.w3.org/2000/svg"><path d="m378.992188.0078125c-73.34375 0-133.011719 59.6679685-133.011719 133.0117185 0 25.890625 7.386719 50.808594 21.398437 72.363281l-9.925781 37.050782c-.925781 3.453125.0625 7.132812 2.585937 9.660156 2.527344 2.527344 6.214844 3.515625 9.660157 2.589844l37.101562-9.941406c21.519531 13.941406 46.375 21.285156 72.191407 21.285156 73.339843 0 133.007812-59.667969 133.007812-133.007813 0-73.34375-59.667969-133.0117185-133.007812-133.0117185zm0 246.0195315c-23.28125 0-45.636719-7.027344-64.65625-20.320313-1.695313-1.1875-3.699219-1.804687-5.726563-1.804687-.867187 0-1.738281.113281-2.589844.34375l-24.765625 6.632812 6.625-24.722656c.765625-2.855469.226563-5.90625-1.472656-8.328125-13.363281-19.054687-20.425781-41.460937-20.425781-64.808594 0-62.316406 50.695312-113.011719 113.007812-113.011719 62.316407 0 113.007813 50.695313 113.007813 113.011719 0 62.3125-50.691406 113.007813-113.003906 113.007813zm0 0"/><path d="m417.96875 76.945312c-2.6875.621094-5.070312 1.953126-6.957031 3.78125-4.5-11.355468-13.328125-23.152343-30.121094-31.558593-4.035156-2.019531-8.808594-1.378907-12.164063 1.636719-3.363281 3.015624-4.515624 7.699218-2.9375 11.941406 3.578126 9.585937 2.203126 15.394531-5.066406 21.429687-2.765625 2.292969-5.160156 4.769531-7.234375 7.332031-1.542969-3.214843-3.414062-6.472656-5.6875-9.703124-3.59375-5.105469-9.816406-7.359376-15.851562-5.75-6.074219 1.628906-10.359375 6.722656-10.925781 12.980468-1.128907 12.503906-4.09375 18.988282-7.230469 25.855469-3.464844 7.582031-7.046875 15.421875-7.046875 28.886719 0 39.835937 32.410156 72.246094 72.246094 72.246094 39.835937 0 72.242187-32.410157 72.242187-72.246094 0-22.25-5.179687-40.226563-17.320313-60.113282-3.324218-5.449218-9.730468-8.148437-15.945312-6.71875zm-38.976562 119.078126c-28.808594 0-52.246094-23.4375-52.246094-52.246094 0-9.113282 2.199218-13.917969 5.238281-20.574219 2.007813-4.386719 4.304687-9.417969 6.136719-16.160156 2.1875 7.1875 2.328125 13.40625 2.195312 16.632812-.257812 2.117188-.300781 3.457031-.308594 3.6875-.136718 5.257813 3.824219 9.726563 9.066407 10.21875 5.230469.503907 9.960937-3.160156 10.804687-8.355469.035156-.222656.242188-1.570312.371094-3.785156.707031-5.230468 3.394531-17.695312 13.246094-25.871094 7.300781-6.0625 11.789062-13.015624 13.445312-20.800781 4.503906 5.601563 7.21875 12.296875 8.105469 20.042969 1.3125 11.4375-1.828125 21.097656-1.84375 21.148438-1.523437 4.457031.269531 9.371093 4.304687 11.800781 4.035157 2.425781 9.214844 1.714843 12.445313-1.714844.449219-.480469 8.671875-9.359375 13.457031-23.730469 5.480469 11.980469 7.824219 23.550782 7.824219 37.464844 0 28.804688-23.4375 52.242188-52.242187 52.242188zm0 0"/><path d="m319.207031 320.304688c-3.375-5.847657-8.828125-10.03125-15.351562-11.777344-6.519531-1.746094-13.332031-.851563-19.179688 2.523437l-15.730469 9.082031c-5.847656 3.378907-10.03125 8.828126-11.777343 15.351563-.542969 2.027344-.832031 4.085937-.867188 6.136719-11.039062 5.210937-23.4375 6.351562-35.363281 3.15625-13.339844-3.574219-24.484375-12.128906-31.390625-24.089844l-38.832031-67.253906c-13.523438-23.425782-6.5625-53.132813 15.273437-68.289063 3.765625 2.082031 8.007813 3.1875 12.3125 3.1875 4.285157-.003906 8.625-1.089843 12.597657-3.382812l15.730468-9.082031c12.070313-6.96875 16.21875-22.460938 9.25-34.53125l-74.296875-128.6875c-3.375-5.847657-8.828125-10.027344-15.351562-11.777344-6.515625-1.746094-13.332031-.8515628-19.179688 2.523437l-15.730469 9.085938c-5.847656 3.375-10.03125 8.824219-11.777343 15.347656-.578125 2.15625-.859375 4.34375-.863281 6.515625-65.894532 41.550781-95.074219 123.617188-69.449219 197.773438 9.0625 26.226562 19.859375 52.152343 32.09375 77.0625 2.433593 4.957031 8.425781 7 13.386719 4.566406 4.957031-2.433594 7-8.425782 4.566406-13.382813-11.871094-24.171875-22.347656-49.328125-31.140625-74.777343-22.128907-64.035157 2.097656-134.765626 57.703125-172.050782l67.144531 116.300782c-29.039063 21.339843-38.015625 61.683593-19.589844 93.597656l38.828125 67.257812c9.578125 16.585938 25.039063 28.449219 43.539063 33.40625 15.921875 4.265625 32.449219 2.976563 47.316406-3.570312l15.496094 26.835937 51.648437 89.460938c-60.089844 29.511719-133.453125 15.125-177.847656-36.050781-17.472656-20.148438-33.875-41.582032-48.753906-63.707032-3.082032-4.585937-9.296875-5.804687-13.878906-2.722656-4.582032 3.082031-5.800782 9.296875-2.71875 13.878906 15.332031 22.808594 32.234374 44.898438 50.242187 65.652344 32.949219 37.988281 79.957031 58.101562 127.621094 58.101562 26.710937 0 53.628906-6.332031 78.386719-19.367187 3.847656 2.207031 8.21875 3.375 12.652343 3.375 4.285157 0 8.625-1.089844 12.59375-3.378906l15.730469-9.082031c5.847656-3.378907 10.03125-8.828126 11.777344-15.351563 1.746094-6.519531.851562-13.332031-2.523438-19.179687zm-220.34375-287.300782c.363281-1.359375 1.238281-2.496094 2.457031-3.203125l15.730469-9.082031c.828125-.480469 1.734375-.707031 2.632813-.707031 1.824218 0 3.601562.945312 4.578125 2.636719v.003906l74.296875 128.6875c1.453125 2.519531.589844 5.75-1.933594 7.207031l-15.730469 9.082031c-2.519531 1.453125-5.75.585938-7.207031-1.933594l-3.386719-5.867187-70.910156-122.820313c-.707031-1.222656-.890625-2.640624-.527344-4.003906zm277.847657 429.992188c-.367188 1.363281-1.238282 2.5-2.460938 3.203125l-15.730469 9.082031c-2.519531 1.453125-5.75.589844-7.207031-1.929688l-74.296875-128.691406c-.707031-1.21875-.890625-2.640625-.527344-4 .363281-1.363281 1.238281-2.5 2.457031-3.203125l15.730469-9.082031c.8125-.472656 1.714844-.710938 2.628907-.710938.460937 0 .921874.0625 1.375.183594 1.363281.363282 2.5 1.234375 3.203124 2.457032l74.296876 128.6875v.003906c.707031 1.21875.894531 2.640625.53125 4zm0 0"/><path d="m71.5 334.472656c-2.632812 0-5.210938 1.070313-7.070312 2.929688-1.859376 1.859375-2.933594 4.441406-2.933594 7.070312s1.070312 5.210938 2.933594 7.070313c1.859374 1.859375 4.4375 2.929687 7.070312 2.929687 2.628906 0 5.210938-1.070312 7.070312-2.929687 1.859376-1.871094 2.929688-4.441407 2.929688-7.070313s-1.070312-5.210937-2.929688-7.070312c-1.859374-1.859375-4.441406-2.929688-7.070312-2.929688zm0 0"/></svg>