<svg id="Capa_1" enable-background="new 0 0 477.92 477.92" fill="#fff" height="512" viewBox="0 0 477.92 477.92" width="512" xmlns="http://www.w3.org/2000/svg"><g><g id="Icons_31_"><circle cx="247.475" cy="196.291" r="8.533"/><circle cx="110.942" cy="196.291" r="8.533"/><path d="m20.617 40.318 134.101 73.131c15.334 8.354 33.647 8.363 48.998 0l134.084-73.122c-10.496-9.131-24.166-14.703-39.134-14.703h-238.933c-14.967 0-28.629 5.572-39.116 14.694z"/><path d="m416.717 100.052c-7.936-7.936-21.769-7.927-29.696 0l-52.267 52.267c-4.011 4.011-6.221 9.318-6.212 14.942.009 5.598 2.21 10.854 6.187 14.805l10.445 10.445c31.053 31.053 37.743 58.001-15.676 111.428-53.427 53.419-80.375 46.72-111.42 15.667l-10.428-10.428c-3.968-3.994-9.233-6.195-14.822-6.204-.009 0-.026 0-.034 0-5.615 0-10.914 2.202-14.916 6.204l-52.267 52.267c-8.183 8.183-8.183 21.513 0 29.696l41.839 41.839c17.801 17.801 38.263 23.108 64.461 16.708 37.538-9.199 85.666-42.948 143.036-100.318 145.545-145.553 98.927-192.171 83.61-207.488z"/><path d="m59.733 315.757h87.441l18.637-18.645c7.228-7.228 16.811-11.204 26.982-11.204h.068c10.155.017 19.703 4.002 26.88 11.221l10.402 10.402c20.787 20.787 35.814 35.797 87.287-15.667 51.482-51.482 36.463-66.5 15.676-87.287l-10.428-10.419c-7.202-7.159-11.196-16.708-11.204-26.871-.017-10.197 3.959-19.797 11.204-27.034l35.721-35.721v-19.175c0-11.682-3.422-22.562-9.25-31.778l-137.267 74.854c-10.231 5.581-21.453 8.371-32.674 8.371s-22.443-2.79-32.674-8.371l-137.284-74.862c-5.828 9.216-9.25 20.096-9.25 31.786v170.667c0 32.939 26.795 59.733 59.733 59.733zm187.742-187.733c22.084 0 32.785 20.898 33.237 21.786 2.108 4.215.401 9.344-3.814 11.452-1.229.606-2.534.896-3.814.896-3.115 0-6.118-1.707-7.62-4.668-.154-.29-6.613-12.399-17.988-12.399-4.71 0-8.533-3.823-8.533-8.533s3.822-8.534 8.532-8.534zm0 42.667c14.114 0 25.6 11.486 25.6 25.6s-11.486 25.6-25.6 25.6-25.6-11.486-25.6-25.6 11.486-25.6 25.6-25.6zm-102.861 65.493c.341.956 7.509 19.84 34.594 19.84 27.665 0 34.5-19.567 34.569-19.763 1.485-4.463 6.306-6.903 10.795-5.393 4.471 1.493 6.886 6.323 5.393 10.795-.427 1.28-10.931 31.428-50.756 31.428s-50.33-30.148-50.765-31.437c-1.493-4.471.922-9.301 5.393-10.795 4.471-1.493 9.258.905 10.777 5.325zm-8.072-39.893c0 14.114-11.486 25.6-25.6 25.6s-25.6-11.486-25.6-25.6 11.486-25.6 25.6-25.6 25.6 11.486 25.6 25.6zm-58.837-46.481c.452-.887 11.153-21.786 33.237-21.786 4.71 0 8.533 3.823 8.533 8.533s-3.823 8.533-8.533 8.533c-11.452 0-17.929 12.271-17.988 12.399-1.519 2.935-4.514 4.634-7.62 4.634-1.297 0-2.611-.299-3.84-.922-4.182-2.124-5.88-7.201-3.789-11.391zm-60.63-30.319c0-4.71 3.823-8.533 8.533-8.533s8.533 3.823 8.533 8.533v93.867c0 4.71-3.823 8.533-8.533 8.533s-8.533-3.823-8.533-8.533zm0 128c0-4.71 3.823-8.533 8.533-8.533s8.533 3.823 8.533 8.533v17.067c0 4.71-3.823 8.533-8.533 8.533s-8.533-3.823-8.533-8.533z"/></g></g></svg>