<svg id="Capa_1" enable-background="new 0 0 512 512" height="512" fill="#fff" viewBox="0 0 512 512" width="512" xmlns="http://www.w3.org/2000/svg"><g><g><path d="m467 0h-140c-24.853 0-45.001 20.148-45.001 45.001v190c0 11.98 13.352 19.126 23.321 12.481l56.222-37.482h105.458c24.853 0 45-20.147 45-45v-120c0-24.853-20.147-45-45-45zm-30 150h-80c-8.284 0-15-6.716-15-15s6.716-15 15-15h80c8.284 0 15 6.716 15 15s-6.716 15-15 15zm0-60h-80c-8.284 0-15-6.716-15-15s6.716-15 15-15h80c8.284 0 15 6.716 15 15s-6.716 15-15 15z"/></g><g><path d="m206.919 142.446c17.546-17.546 17.545-46.094 0-63.64l-63.64-63.64c-17.545-17.546-46.094-17.546-63.64 0l-10.605 10.607 127.279 127.279z"/><path d="m496.833 368.721-63.64-63.64c-17.546-17.545-46.094-17.546-63.64 0l-10.606 10.606 127.279 127.279 10.606-10.606c17.547-17.545 17.547-46.093.001-63.639z"/><path d="m325.264 349.371c-4.839 4.839-12.244 5.855-18.008 2.469-20.148-11.835-50.845-32.622-82.66-64.437-31.816-31.816-52.601-62.512-64.437-82.66-3.385-5.763-2.37-13.168 2.469-18.008l12.471-12.471-127.278-127.277-21.078 21.08c-14.188 14.185-23.134 32.2-25.87 52.098-2.723 19.791.952 39.554 10.627 57.152 37.888 68.918 82.009 127.491 138.85 184.333 56.842 56.842 115.415 100.962 184.334 138.851 17.597 9.674 37.36 13.349 57.152 10.626 19.898-2.737 37.913-11.682 52.098-25.87l21.079-21.078-127.278-127.278z"/></g></g></svg>